<svg width="47" height="18" viewBox="0 0 47 18" fill="none" xmlns="http://www.w3.org/2000/svg">
<path d="M23.3784 16.5104C24.3014 17.4258 25.5781 17.9892 26.9929 18H37.82L47 9.00271L37.82 0H32.6248L39.9699 7.19892H30.0603C29.6679 7.19892 29.3087 7.04725 29.0434 6.79807L23.6382 1.48962C22.7097 0.57418 21.433 0.00541679 20.0126 0H9.18003L0 9.00271L9.18003 18H14.3752L7.0301 10.8011H16.9452C17.3376 10.8011 17.6968 10.9528 17.9566 11.2019L23.3784 16.5104ZM20.5487 8.65062C19.6202 7.75143 18.349 7.19892 16.9452 7.19892H7.0301L10.7054 3.59675H20.0181C20.4216 3.60217 20.7808 3.77009 21.0406 4.03009L26.4568 9.34397C27.3853 10.2377 28.6565 10.7957 30.0659 10.7957H39.9809L36.3111 14.3978H26.9985C26.6005 14.3924 26.2358 14.2191 25.976 13.9591L20.5542 8.65062H20.5487Z" fill="#003082"/>
</svg>
