<?xml version="1.0" encoding="utf-8"?>
<!-- Generator: Adobe Illustrator 24.1.2, SVG Export Plug-In . SVG Version: 6.00 Build 0)  -->
<svg version="1.1" id="Layer_1" xmlns="http://www.w3.org/2000/svg" xmlns:xlink="http://www.w3.org/1999/xlink" x="0px" y="0px"
	 viewBox="0 0 714 714" style="enable-background:new 0 0 714 714;" xml:space="preserve">
<style type="text/css">
	.st0{fill:#5F3916;}
	.st1{fill:#412312;}
	.st2{fill:#333333;}
	.st3{fill:#754D25;}
	.st4{fill:#947C2E;}
	.st5{fill:#7A6026;}
	.st6{fill:#B3B4B4;}
	.st7{fill:#808080;}
	.st8{fill:#FAC2BB;}
	.st9{fill:#FFFFFF;}
	.st10{fill:#4A1212;}
	.st11{fill:#F29E9C;}
	.st12{fill:#A65D5B;}
	.st13{fill:#F7EE65;}
	.st14{fill:#E6E6E6;}
</style>
<g>
	<g>
		<g>
			<path class="st0" d="M562.4578247,365.9145203c12.7315063,16.7106323,8.3728027,43.7681885,5.0556641,64.5521545
				c-6.1524658,38.5492859-13.5593872,78.4649353-31.9157104,109.8881226
				c-12.2215576,20.9213867-30.2404175,37.9573975-50.0723572,40.8493652
				c-21.5806274,3.1469727-43.9988403-11.9109497-59.7685242-31.102356
				c-24.7316589-30.0980835-39.0167236-73.8636475-47.57724-116.841217
				c-3.9931335-20.0472412-6.7450562-46.6480408,4.8138123-63.1595459
				C388.0108032,362.93396,553.7549438,354.4941711,562.4578247,365.9145203z"/>
		</g>
		<path class="st1" d="M569.7767944,377.5149841c0-17.4154053-43.319458-31.5333252-96.756958-31.5333252
			c-53.4373779,0-96.756958,14.1179199-96.756958,31.5333252c0,7.5664673,8.180542,14.5095215,21.8117676,19.9436646
			c1.7337646,12.03125,3.6665039,24.0341797,5.9156494,35.9802856c2.9421387,15.6271362,6.3989258,31.1706543,10.7119141,46.4798584
			c4.1121826,14.5958252,9.0100098,29.0007935,15.2248535,42.8435974
			c5.5681152,12.4016113,12.2729492,24.3729248,20.8605957,34.9511719
			c6.5720215,8.0953369,14.4313965,15.3551636,23.5500488,20.4851685c-0.0859375,0.0368042-0.18396,0.0807495-0.2644043,0.1143188
			c-1.0986328,0.4585571-1.8850098,1.4608154-1.5406494,2.713623c0.2850342,1.0369873,1.6071777,2.0025024,2.713623,1.5407715
			c0.1896973-0.0791626,0.3751221-0.1659546,0.5638428-0.2468872c0.7701416,1.0024414,2.2290039,1.0073853,3.1358643,0.3414917
			c0.9979248,0.7328491,2.6656494,0.6586914,3.3450928-0.6711426c1.1126709,0.4292603,2.4300537-0.5065918,2.7209473-1.5653076
			c0.27771-1.010498-0.1635742-1.852356-0.9143066-2.3868408c7.161499-4.3572388,13.4987793-9.9923706,18.993042-16.387146
			c8.6739502-10.0956421,15.4200439-21.7230225,21.0081787-33.7623291
			c6.3361816-13.6506958,11.2939453-27.9161072,15.4533691-42.3673401
			c4.394043-15.2664795,7.9003906-30.7810669,10.8811035-46.3814087c2.9262695-15.3162231,5.3334961-30.7284546,7.4296875-46.178894
			c0.0136719-0.100708,0.0268555-0.2014771,0.0404053-0.3021851
			C565.4702759,388.1644592,569.7767944,383.0038757,569.7767944,377.5149841z M502.7427368,407.5301208
			c0.3469238,22.2327271-0.5703125,44.4836426-2.7940674,66.6081543
			c-2.3477783,23.3577881-6.1513672,46.5761414-11.5080566,69.4343567
			c-2.515625,10.7348633-5.4036865,21.3800659-8.6363525,31.9208374c-0.1740723,0.097168-0.3465576,0.1965332-0.5217285,0.2921143
			c-0.4433594-0.222229-0.8842773-0.4494629-1.3222656-0.6826782c-6.171875-20.1899414-11.0117188-40.7799683-14.6300049-61.578186
			c-4.0733643-23.4142761-6.6016846-47.0925598-7.6795654-70.8326111
			c-0.5168457-11.3864746-0.6728516-22.7868042-0.5136719-34.1834717
			c5.7963867,0.3530273,11.7722168,0.5396729,17.8828125,0.5396729
			C483.3904419,409.0483093,493.3770142,408.5144958,502.7427368,407.5301208z M456.3457642,557.4110107
			c-8.534668-9.7843018-15.1546631-21.1618652-20.6984863-32.8580322
			c-6.3251953-13.3448792-11.2358398-27.3368835-15.3950195-41.4936218
			c-4.4082031-15.003479-7.9437256-30.2563477-10.9553223-45.5975342
			c-2.4914551-12.690979-4.6022949-25.4536133-6.4831543-38.2490845
			c12.7553711,4.3820801,29.3320313,7.5704346,47.9909668,8.9991455c-0.3186035,22.0845337,0.611084,44.1856689,2.8291016,66.161438
			c2.3730469,23.510437,6.1635742,46.8919373,11.5351563,69.9058533c2.1557617,9.2363281,4.5754395,18.4101563,7.2595215,27.5064697
			C466.4649048,567.796936,461.0796509,562.8381348,456.3457642,557.4110107z M547.258606,432.1833801
			c-2.8127441,15.4202271-6.1091309,30.7641602-10.2098389,45.8961792
			c-3.8809814,14.3214722-8.4455566,28.5239258-14.3311768,42.1573792
			c-5.2109375,12.0706787-11.430542,23.8944702-19.4995117,34.3197021
			c-5.123291,6.6194458-11.0169678,12.6369629-17.8161621,17.4139404c5.5811768-18.8898926,10.0074463-38.1171875,13.375-57.5234985
			c4.0888672-23.5624084,6.668335-47.3918152,7.7727051-71.2799377c0.5562744-12.0337524,0.7099609-24.083374,0.5113525-36.1280518
			c18.8607178-2.3109131,34.9219971-6.4846191,46.0673828-11.8352661
			C551.414856,407.5675354,549.4985962,419.9040833,547.258606,432.1833801z"/>
	</g>
	<g>
		<path d="M389.7988892,636.0719604c-11.6069031,11.3575439-23.6019592,23.3096313-29.3599548,39.180481
			c-2.0183716,5.5632324-3.1098328,12.22052-0.2193604,17.296875c4.1651611,7.3150024,13.7005615,7.2490845,21.5018311,6.3201904
			c10.3485413-1.2321167,20.6970825-2.4642944,31.0456238-3.6964111c2.3832092-5.8815918,4.7663879-11.7631836,7.1495972-17.6447754
			c2.5007324,6.1724854,5.0014648,12.3450317,7.5021667,18.5175171c14.1606445-0.2922363,28.3212891-0.5845337,42.4819336-0.8768311
			c1.6335449-0.0336914,3.3223572-0.0808105,4.8034363-0.8396606c1.6549377-0.8479004,2.856842-2.489502,3.8271484-4.1906128
			c7.8805237-13.8157959,2.8525391-33.1689453-8.0810852-44.1859741
			c-10.9336243-11.0170898-26.1922913-15.206665-40.9514465-16.772644
			c-14.7190857-1.5617065-30.3690796-0.671936-43.0166321,7.7561035L389.7988892,636.0719604z"/>
	</g>
	<g>
		<path d="M319.1083069,632.2345581c11.6069031,12.046814,23.6019592,24.7242432,29.3599548,41.5582275
			c2.0183716,5.9008179,3.1098328,12.9620972,0.2193604,18.3464966c-4.1651611,7.7589722-13.700531,7.6890259-21.5018311,6.7037964
			c-10.3485413-1.3069458-20.6970825-2.6138916-31.0456238-3.9207764
			c-2.3832092-6.2385254-4.7663879-12.4770508-7.1495972-18.7155762
			c-2.5007324,6.5471191-5.0014343,13.0941772-7.5021667,19.6412964
			c-14.1606445-0.3099976-28.3212891-0.6199951-42.4819336-0.9300537c-1.6335449-0.0357056-3.3223572-0.0857544-4.803421-0.890564
			c-1.654953-0.8994141-2.856842-2.640625-3.8271484-4.4449463c-7.8805237-14.6542358-2.8525391-35.1818237,8.0810699-46.8674927
			c10.9336243-11.6856079,26.1923218-16.1294556,40.9514465-17.7904663
			c14.7190857-1.6564941,30.3690796-0.7127075,43.0166321,8.2267456L319.1083069,632.2345581z"/>
	</g>
	<path class="st2" d="M650.4559937,515.6810913c-0.1497803-1.0687866-0.3334961-2.1325073-0.5002441-3.1947021
		c-0.3552246-2.1220398-0.770874-4.2297668-1.2966309-6.3092346c-2.7928467-11.7536011-7.8662109-22.9174194-14.8897705-32.3244629
		l36.0969238,3.208252l-27.9736328-17.0687256l-44.0020752-24.8323364l8.7363281,37.1596069l9.2161865,45.3212585
		l10.3300781-40.4754333c0.876709,3.1881104,1.6420898,6.3632813,2.2579346,9.5396729
		c1.4569092,7.3532715,2.1903076,14.6654663,2.3110352,21.9067993c0.1292725,7.2336731-0.4465332,14.3492126-1.5881348,21.2654724
		c-1.2299805,6.9101563-3.0148926,13.6191406-5.3977051,20.1108398
		c-4.7680664,12.9537964-11.3123779,25.4240723-20.5668945,36.4387207
		c-2.4177246,2.9017334-4.7890625,5.5201416-7.3154297,8.1417236c-2.5197754,2.5974121-5.1253662,5.0939941-7.777832,7.5770264
		c-2.6948242,2.4109497-5.421875,4.8323975-8.307251,7.0576172c-1.4578857,1.0791626-2.8947754,2.2438354-4.4219971,3.2282715
		l-2.2766113,1.5478516c-0.7587891,0.5290527-1.5634766,0.940979-2.3487549,1.421875
		c-6.3118896,3.7151489-13.3120117,6.5343628-20.6901855,7.5247192c-1.8408203,0.2250366-3.6932373,0.5331421-5.5494385,0.5107422
		l-1.3934326,0.043335c-0.4630127-0.0030518-0.9246826-0.0178223-1.387207-0.0354004
		c-0.9224854-0.0570679-1.8530273-0.0581055-2.767334-0.1824341c-3.6843262-0.3078003-7.3010254-1.1570435-10.7802734-2.4569092
		c-6.9880371-2.5913696-13.3128662-7.0379028-19.9788818-11.5549316
		c-6.6693115-4.5080566-13.8327637-8.9979858-21.4266357-12.3010254c-3.06604-1.3745117-6.2087402-2.5552368-9.3996582-3.5783081
		c4.5002441-8.1314697,5.5286865-17.9308472,2.5454102-26.6621704
		c17.7991943-10.9063721,21.4705811-37.2000732,7.2563477-51.9688721
		c8.3776855-3.3395691,12.2189941-12.5827332,12.5687256-21.0496521c0.2728271-6.6068726-1.1756592-13.2116089-4.0057373-19.2692261
		c13.6021729-1.1431885,27.3212891-5.1665649,39.4748535-11.7004395c2.8681641,4.7388306,10.9387207,6.2327881,16.9257813,3.1331177
		c1.4328613-0.7417603,2.8188477-1.8096313,3.2241211-3.1525879c0.5603027-1.8572388-0.9123535-3.4574585-2.3886719-4.668335
		c-4.8753662-3.9987183-10.7994385-7.0756226-17.3411865-9.006958c2.1678467-2.1081543,6.0007324-2.5811157,7.887085-4.8641968
		c2.1429443-2.5936279,0.2897949-6.0726929-2.7824707-7.1762085c-3.0723877-1.1034546-6.8066406-0.5380859-10.3173828,0.0422974
		c4.0820313-2.1671143,7.3265381-6.2977905,6.4443359-9.9737549s-7.1801758-5.3453979-10.3896484-2.2558594
		c2.807373-2.5198975,4.3216553-6.3071289,2.807373-9.1133423c-1.5141602-2.8062134-6.5842285-3.7241821-9.4937744-1.2893066
		c2.1534424-2.9710083,4.3842773-6.149353,4.4630127-9.4379272c0.0786133-3.2885132-3.0096436-6.494812-6.8728027-5.7037354
		c3.965332-2.4075317,4.0579834-7.8189087,0.7030029-10.098999c-3.3549805-2.2800293-8.8585205-1.6641846-12.852417,0.7046509
		c-3.9941406,2.3688354-6.645874,6.1329956-8.2949219,9.9399414c-10.8835449-2.4758301-24.3892822,1.8514404-31.9780273,10.2456665
		c-1.1315918,1.25177-2.1258545,2.5687866-2.9921875,3.9331665c-1.7794189-1.036499-3.6730957-1.9042969-5.673584-2.5567017
		c1.2175293-0.6472778,2.4641113-2.0646973,2.598877-3.4558716c1.217041-12.5655518-10.0957031-25.003418-23.6276855-25.9778442
		l0.5981445,3.4815674c-1.0375977-1.342041-2.4925537-2.5467529-3.9226074-3.4520264
		c-9.4958496-6.0117188-20.7717285-9.5672607-32.2425537-10.1668701
		c-5.7276611-0.2993774-11.4793701,0.1219482-17.2053223-0.2078247c-7.0708008-0.4072266-14.0650635-1.9482422-21.0836182-2.7351074
		v-0.2480469c-0.4064941,0.0343628-0.8122559,0.0843506-1.2185059,0.1251831
		c-0.4138184-0.0408325-0.8273926-0.0908203-1.2415771-0.1251831v0.2526855
		c-6.873291,0.7883911-13.7230225,2.3241577-20.6474609,2.7304688c-5.6199951,0.3297729-11.2650146-0.0915527-16.8867798,0.2078247
		c-11.2584229,0.5996094-22.3253174,4.1551514-31.6452637,10.1668701c-1.4035034,0.9052734-2.8314819,2.1099854-3.8500366,3.4520264
		l0.5870972-3.4815674c-13.2814331,0.9744263-24.3845825,13.4122925-23.1900635,25.9778442
		c0.1322021,1.3911743,1.355835,2.8085938,2.5508423,3.4558716c-2.0049438,0.6661987-3.9021606,1.5549927-5.680603,2.6210327
		c-0.9320068-1.4968872-2.0085449-2.9406128-3.256897-4.3022461c-7.6469879-8.3411255-21.1826324-12.5740967-32.0485992-10.0224609
		c-1.6755371-3.7953491-4.3535767-7.5409546-8.3640137-9.881897c-4.010376-2.3408813-9.5180054-2.918396-12.8570557-0.6149902
		c-3.3389893,2.3034058-3.2085571,7.7139893,0.7733154,10.0938721c-3.8684692-0.7641602-6.9342651,2.463623-6.8327026,5.7515259
		s2.3544922,6.4506226,4.5286255,9.4065552c-2.9263916-2.4145508-7.9900513-1.4612427-9.4846191,1.3554688
		s0.0461426,6.5932617,2.8709717,9.0935669c-3.2310181-3.0671387-9.5171509-1.3538208-10.3737183,2.328186
		c-0.8565063,3.6820068,2.416748,7.789978,6.5136108,9.9285889c-3.5145874-0.5559082-7.2526855-1.0952148-10.3172607,0.0296631
		s-4.8933716,4.6167603-2.7324219,7.1953735c1.9022217,2.2698975,5.7383423,2.7161255,7.9207764,4.8091431
		c-6.5281372,1.9768677-12.430603,5.0950317-17.2779541,9.1276245c-1.4678955,1.2211304-2.9293213,2.831604-2.355957,4.6848755
		c0.4145508,1.3400879,1.8079834,2.3982544,3.2459106,3.1300659c6.0085449,3.0578003,14.0685425,1.5076294,16.9035034-3.2510376
		c12.3713989,6.5401611,26.3343506,10.4813232,40.1325073,11.4616699
		c-2.7943115,6.0725098-4.2244873,12.6973877-3.9558716,19.3241577c0.3432007,8.4669189,4.1134644,17.710083,12.3357544,21.0496521
		c-13.9509277,14.7687988-10.3475342,41.0625,7.1221313,51.9688721c-2.6051025,7.7684937-2.0866089,16.3809814,1.166626,23.9146729
		c-0.7211304,0.8026733-1.4050293,1.6365356-2.0326538,2.5135498c-7.1252441,9.9567871-6.5517578,24.1322632,1.3579712,33.5635376
		c-4.0249023,2.8260498-7.5525513,6.5828857-8.7432861,11.1387939c-1.1907349,4.5558472,0.4760742,9.9489136,4.8088989,12.3495483
		c4.3328247,2.4006958,11.0504761,0.5056763,12.3023682-4.0360107c0.7218628,3.9054565,6.0934601,5.7452393,10.1659698,4.5726318
		s7.0548706-4.3370361,9.8123779-7.3592529c-1.7532959,3.5557861,1.6375122,8.0280151,5.8126831,8.5178223
		c4.1751099,0.4898682,8.2350464-2.2025757,10.1397095-5.6904297c-2.4381714,4.057251,2.4346313,9.435791,7.4163818,9.0393677
		c4.9816895-0.3964233,8.7047119-4.8344116,9.6046143-9.4057007c0.8290405,3.5028687,1.7758179,7.2114868,4.5139771,9.7387085
		c2.7381592,2.5272827,7.9036865,3.1117554,10.1945801,0.2255859c2.0166016-2.5406494,0.9107056-6.3114014,2.5842285-9.0588989
		c5.3078003,5.520874,11.7731323,10.0768433,18.9254761,13.3364258c2.1657715,0.9870605,4.8161621,1.8405762,6.8879395,0.6919556
		c1.4979248-0.8305054,2.2181396-2.4936523,2.510498-4.0919189c1.2211914-6.6785889-4.217041-13.7865601-11.4052734-14.9069214
		c0.0737305-0.3615723,0.1278076-0.7261963,0.196167-1.0886841c1.4805908,0.088562,2.9696045,0.0441895,4.4422607-0.161499
		c7.1694336-1.0013428,13.6075439-5.5807495,16.8522949-11.6907959c2.8205566,5.2128296,8.012207,9.3028564,14.0114746,11.0159912
		c0.1794434,1.1503906,0.3845215,2.2974243,0.6174316,3.4398193c-7.1882324,1.1203613-12.6264648,8.2283325-11.4051514,14.9069214
		c0.2922363,1.5982666,1.0125732,3.2614136,2.510498,4.0919189c2.0716553,1.1486206,4.7220459,0.295105,6.8878174-0.6919556
		c7.1524658-3.2595825,13.6176758-7.8155518,18.9255371-13.3364258c1.673584,2.7474976,0.567627,6.5182495,2.5842285,9.0588989
		c2.2907715,2.8862305,7.4564209,2.3016968,10.1945801-0.2255859c2.7380371-2.5272217,3.6849365-6.2358398,4.513916-9.7387085
		c0.8999023,4.5712891,4.6229248,9.0092773,9.6047363,9.4057007c4.9816895,0.3964233,9.8544922-4.9821167,7.4162598-9.0393677
		c1.9047852,3.487854,5.9645996,6.1802979,10.1397705,5.6904297c4.1751709-0.4898071,7.565918-4.9620361,5.8126221-8.5178223
		c2.7575684,3.0222168,5.7398682,6.1866455,9.8123779,7.3592529s9.4442139-0.6671753,10.1660156-4.5726318
		c1.2518311,4.541687,7.9696045,6.4367065,12.3023682,4.0360718c4.3327637-2.4006958,5.9995117-7.7937622,4.8088379-12.3496094
		c-1.1906738-4.5559082-4.7182617-8.3127441-8.7431641-11.1387939c3.4171143-4.0744629,5.4554443-9.0348511,6.1035156-14.1569214
		c1.3973389,0.3265991,2.7946777,0.6530762,4.2001953,0.9682007c7.2835693,1.7432861,14.6391602,3.3199463,22.1223145,5.6239014
		c7.5157471,2.1921997,15.1744385,5.0761719,23.2111816,7.1833496c4.0166016,1.0445557,8.1246338,1.8235474,12.2541504,2.3065186
		c1.0310059,0.1578369,2.0679932,0.1886597,3.1033936,0.2732544l1.5529785,0.1311646l1.5517578,0.0563354
		c2.074707,0.1194458,4.1357422,0.0233765,6.213501,0.0021362c8.2808838-0.2272949,16.6785889-1.3419189,24.8709717-3.6238403
		c1.0197754-0.289917,2.0767822-0.5213623,3.076416-0.8677979l3.0247803-1.0196533
		c2.0537109-0.6375122,3.9886475-1.4968262,5.970459-2.31073l1.4827881-0.6207886l1.4425049-0.6851196l2.894165-1.3861084
		c0.9678955-0.4663086,1.8717041-1.0157471,2.8134766-1.5235596c0.9310303-0.5199585,1.8781738-1.0286255,2.7822266-1.5910034
		c1.7891846-1.1431274,3.6431885-2.2347412,5.3483887-3.4998779c0.8647461-0.6188965,1.7481689-1.2214355,2.5998535-1.859375
		l2.5081787-1.9707642c3.3026123-2.6422729,6.5081787-5.5623779,9.4638672-8.3884888
		c12.3881836-11.7437744,22.739624-26.6231079,27.9979248-43.4604492c2.6662598-8.383728,4.1019287-17.154541,4.3708496-25.8757324
		c0.1635742-4.3624268-0.0634766-8.717041-0.4571533-13.0209961
		C650.7337036,517.8233032,650.5872192,516.7509766,650.4559937,515.6810913z"/>
	<path d="M157.60289,317.1237488c-0.0797119-2.0199585-1.8171997-3.3554688-3.1099243-4.7193604
		c-0.8257446-0.8712158-1.6515503-1.7424316-2.4772949-2.6136475c1.4485474-13.5511475,1.8447876-27.2485962,2.3952637-40.8397217
		c0.2684326-6.628418,0.5839844-13.2554321,1.081604-19.8710938c0.1465454-1.9481201-1.7654419-3.6129761-3.6130371-3.6129761
		c-2.0770264,0-3.4660645,1.6592407-3.6129761,3.6129761c-1.3441162,17.869873-1.2640991,35.9633789-2.7819214,53.8203125
		c-1.7246704-1.819519-3.4492188-3.6391602-5.1738892-5.4586792c1.1082153-2.7342529,2.2163696-5.4685059,3.324585-8.2028198
		c0.5531006-1.3647461,0.840332-2.5393066,0.1044312-3.9404297c-0.2173462-0.4139404-0.4907227-0.8065796-0.777832-1.1867065
		c0.5114136-18.2529297,2.3856201-36.4473877,5.6951904-54.4093018c0.3532104-1.9169922-0.5274658-3.8959961-2.5234375-4.444458
		c-0.2346191-0.0644531-0.4798584-0.0968018-0.7289429-0.1072998c0.6506958-2.1948853,1.3013916-4.3897095,1.9520874-6.5845947
		c0.5543823-1.8700562-0.6686401-3.9347534-2.5234985-4.444397c-1.9182129-0.5270996-3.8878174,0.645874-4.444397,2.5234375
		c-1.7351685,5.8529053-3.4703369,11.7057495-5.2055054,17.5586548
		c-1.5335693-17.6443481-2.5153198-35.3342896-2.9381714-53.0409546c-0.0466309-1.9515991-1.6271973-3.6130371-3.6130371-3.6130371
		c-1.9220505,0-3.6597824,1.6535034-3.6129684,3.6130371c0.1166382,4.8830566,0.2785034,9.7647705,0.4796753,14.6447754
		c-0.3488159-1.6047974-1.8666382-2.8551025-3.5348511-2.8551025c-1.9916382,0-3.572876,1.6541748-3.6130371,3.6129761
		c-0.2714844,13.2476807-0.5429077,26.4954224-0.8143921,39.743103c-0.340332-0.3458252-0.6696777-0.7025757-0.986145-1.0707397
		c-0.7809448-0.9086914-1.8459473-2.492981-2.6984253-3.9346924c-1.9519043-3.3010254-3.5716553-6.7865601-5.4744263-10.1160278
		c-4.321106-7.5610962-9.5258789-14.6269531-15.3919678-21.0606689c-1.2299194-1.348938-3.4490967-1.3278198-4.8249512-0.2294922
		c-0.4996338-0.0890503-1.0216675-0.0819092-1.5413208,0.0609131c-1.8564453,0.5101929-3.0831909,2.5675659-2.5234375,4.444458
		c3.2954102,11.0501709,5.7240601,22.4143677,7.0634155,33.8475342c0.5664673,4.8359985,0.6870728,9.7803345,1.4456787,14.6010742
		c-1.3840332-1.6820679-2.7680664-3.3642578-4.1520996-5.0463867c-5.1264038-13.6525879-9.0964355-27.7321167-11.7998657-42.0670166
		c-0.8944702-4.7427368-1.6713257-9.6038208-2.2645264-14.2922974c-0.244873-1.9355469-1.4852905-3.6130371-3.6130371-3.6130371
		c-1.762146,0-3.8596191,1.6636963-3.6129761,3.6130371c1.7459717,13.8000488,4.5509033,27.4330444,8.4605713,40.7662354
		c-4.9286499-5.9901733-9.8572998-11.9803467-14.7859497-17.97052c-1.2406616-1.5078735-3.8239136-1.2856445-5.1095581,0
		c-0.6386719,0.6386719-0.9421997,1.3911743-1.0014038,2.1604004c-1.2297974-1.7908325-2.4955444-3.5567627-3.8178101-5.2821045
		c-1.1849976-1.5462036-3.1098633-2.3685913-4.9432983-1.2962036c-1.5220337,0.8902588-2.4905396,3.3848877-1.2961426,4.9432983
		c8.9977417,11.7401733,15.4395752,25.1173706,23.3781128,37.5440674
		c-4.0361938-2.8486328-8.0722656-5.6972656-12.1084595-8.5458984c-1.5950928-1.1257935-4.0178833-0.2860107-4.9432983,1.2961426
		c-1.057312,1.8077393-0.3026123,3.8149414,1.2962036,4.9432983c11.3158569,7.9865112,22.677063,15.9129028,33.9481812,23.9622803
		c2.1732788,1.552063,3.6845093,2.6844482,5.7199707,4.6360474c2.0186768,1.9354248,2.9349365,3.1471558,4.2797241,5.579895
		c0.038208,0.0691528,0.0680542,0.1231689,0.0932007,0.1689453c0.125,0.2982788,0.2351074,0.605957,0.3342285,0.9130249
		c0.1806641,0.5595703,0.3087769,1.1265259,0.4321289,1.7009277c0.0089111,0.0414429,0.0140381,0.0664673,0.0211792,0.1002808
		c0.0348511,0.3592529,0.0568237,0.7195435,0.0617676,1.0805054c0.0106812,0.7874756-0.0471191,1.5720825-0.1480713,2.218811
		c-0.2356567,1.5099487-0.5658569,3.0013428-0.7763672,4.5157471c-0.267395,1.9234619-0.6777344,4.6289063,0.3508301,6.3875122
		c0.9580078,1.6378784,3.5889893,2.6020508,5.1994629,3.5192871c1.5219116,0.8668213,3.0438232,1.7336426,4.5657959,2.6004639
		c-0.1503906,1.6551514-0.3007813,3.3103027-0.4512329,4.9654541c-9.4439087-8.9771729-18.8878174-17.9543457-28.3317261-26.9315186
		c-5.8938599-5.6025391-11.7877197-11.2050781-17.6815796-16.8076782c-1.4140015-1.3441162-3.7052002-1.4043579-5.1095581,0
		c-1.3565063,1.3565063-1.4191895,3.7605591,0,5.1096191c16.7630005,15.9345093,33.526123,31.8691406,50.2891235,47.8037109
		c-0.1304321,1.4355469-0.2608643,2.8710938-0.3913574,4.3066406c-0.1199951,1.3200684-0.2399292,2.6401367-0.3599243,3.9602661
		c-0.0906372,0.9972534-0.229248,1.9147949,0.1762085,2.8771362c0.3527832,0.8372803,1.0420532,1.512146,1.6332397,2.1969604
		c7.7167969,8.9378052,16.2769775,17.1270142,25.5228195,24.4702759c1.5265503,1.2124023,3.6190796,1.4904175,5.1095581,0
		c0.4533081-0.4533691,0.7733154-1.0871582,0.9331665-1.7667236c0.3477173,0.5515137,0.7130127,1.0927124,1.1019897,1.6195679
		c1.1572266,1.5674438,3.1312256,2.3560791,4.9432983,1.2962036c1.5136719-0.885437,2.4100952-3.2575073,1.3533325-4.8382568
		c0.3303223-0.0272827,0.6461182-0.0942993,0.9423828-0.2054443c0.4527588,0.7254028,1.1456299,1.298645,2.0411377,1.5446777
		c1.8317261,0.5032959,3.994873-0.616272,4.444458-2.5234375c2.5709839-10.9058228,4.2086792-22.0470581,4.8672485-33.2332764
		C157.4855804,319.8824158,157.6562347,318.4755554,157.60289,317.1237488z M130.5762177,297.6717224
		c0.4423828,0.4667358,0.8848267,0.9335327,1.3272095,1.4002686c-0.6238403,1.5392456-1.2476807,3.0784302-1.871521,4.6176147
		c-1.0286865-0.8018799-2.0506516-1.6123047-3.0644455-2.4329224c-0.038269-0.1351929-0.0750732-0.2706909-0.1132813-0.4058838
		c0.4135742-1.9382324,0.8076782-3.880249,1.1679611-5.8283081
		C128.8793793,295.9034119,129.7349091,296.7840881,130.5762177,297.6717224z M110.9481735,249.4911804
		c1.208252,2.0844116,2.1051025,3.9834595,2.6069946,6.385498c0.2219238,1.0621948,0.3121948,2.2020264,0.3131104,3.3516235
		C112.7939377,256.0166321,111.8217697,252.7670593,110.9481735,249.4911804z M115.0990524,290.7366028
		c0.1239624-1.6644897,0.1481934-3.3070068,0.015686-4.9216309c0.0857544-0.2797241,0.1716919-0.5583496,0.2460938-0.8289795
		c0.380249-1.3831177,0.7717896-2.7653198,1.164856-4.1480103c0.1497192,0.1102295,0.2994995,0.2203979,0.4492188,0.3306274
		c0.3758545,0.2766724,0.75177,0.5532227,1.1276245,0.829895c0.4355469,1.1689453,0.9754639,2.2921753,1.6322021,3.3781128
		c-2.0986328,0.1017456-4.1781616,1.8306274-3.4589844,4.458313c0.2861938,1.0457153,0.5834961,2.0886841,0.871582,3.1339722
		c-0.7477417-0.6887817-1.4455566-1.4128418-2.0284424-2.1929932
		C115.1199265,290.7738953,115.1123581,290.7593689,115.0990524,290.7366028z M100.0838547,232.0832214
		c1.6484375,11.5620117,4.4586182,22.9113159,8.5087891,33.8839722c-1.5634155-1.2770386-3.0696411-2.6292725-4.4137573-4.1369019
		c-0.8494263-0.9527588-1.1422729-1.3311157-1.8295898-2.4284058c-0.5727539-0.9144287-1.1592407-2.0062866-1.4415894-2.8500366
		c-1.6869507-5.0413208-1.6550293-10.0708008-2.2069092-15.4338989c-0.5379028-5.2268677-1.2734375-10.4291382-2.1918945-15.5979004
		C97.6615524,227.7281799,98.8497238,229.9180603,100.0838547,232.0832214z M114.2728195,300.0432434
		c1.4636841,1.3120728,2.9727783,2.5802002,4.49646,3.8284302c-0.1015015,0.4203491-0.2028198,0.8413696-0.3045044,1.260437
		c-0.0585327,0.2410889-0.1230469,0.4807129-0.182373,0.7216187c-1.4395142-0.8198853-2.8789063-1.6397095-4.3184204-2.4595947
		C114.0663986,302.2771301,114.169426,301.1601868,114.2728195,300.0432434z M120.0210495,325.7549744
		c0.1262207-0.3605347,0.2647095-0.7174683,0.3796387-1.0668335c1.0601807-3.2224731,2.0436401-6.4726563,2.9642944-9.7414551
		c1.8950806,6.5215454,3.8356323,13.02948,5.8236008,19.5227661
		C126.1327438,331.5646667,123.0768967,328.6597595,120.0210495,325.7549744z M139.9040375,344.617157
		c-1.4401855-4.4608154-2.7957764-8.9507446-4.1607056-13.4350586c-1.848999-6.074585-3.647583-12.1643066-5.4232178-18.2608032
		c2.2952271,1.7015381,4.6203003,3.3627319,6.9769897,4.9783936c1.2756348,0.8745117,2.564209,1.7289429,3.8526001,2.5844116
		c0.5547485,0.3682861,0.7808228,0.3279419,1.1247559,0.9152222c-0.2689209-0.4591675-0.1383667,0.1947021-0.1520996,0.4239502
		c-0.1252441,2.0905762-0.1674805,4.1922607-0.2084351,6.2922974c-0.6217651,2.9391479-1.3151855,5.8630981-2.1087646,8.7625122
		c-0.513855,1.8775024,0.4110718,3.2946167,1.7441406,3.9926147c-0.0559082,1.8245239-0.1117554,3.6490479-0.1676636,5.4736328
		c-0.1651001-0.3253784-0.3676758-0.6339722-0.6427002-0.8953857c-0.2721558-0.258728-0.5443115-0.517395-0.8164673-0.776123
		C139.9164276,344.6540833,139.91008,344.6359558,139.9040375,344.617157z M149.1472015,328.7313538
		c0.2741699-1.3504028,0.5337524-2.703125,0.7758179-4.0587769c-0.236145,2.9860229-0.5445557,5.9634399-0.9251099,8.9315186
		C149.0476532,331.9798279,149.0974579,330.3556213,149.1472015,328.7313538z M144.5090179,312.3713074
		c-0.0636597,0.5181274-0.1253052,1.0365601-0.192688,1.5541382c-0.0977783-0.0635986-0.197876-0.1276855-0.2941895-0.1914673
		c-1.2249756-0.8110352-2.4420776-1.6338501-3.6512451-2.4682007c-1.4796753-1.0209961-2.9428711-2.0654907-4.3982544-3.1208496
		c0.4523315-1.1160889,0.9046631-2.2320557,1.3569946-3.3481445
		C139.7227631,307.3215637,142.1158905,309.8465271,144.5090179,312.3713074z M135.5937347,276.655426
		c-0.4041138-0.5719604-0.7456665-1.180542-1.0643921-1.8037109c-0.3302002-0.6455078-0.1346436-0.3058472-0.0738525-0.1511841
		c-0.1341553-0.3414307-0.2501831-0.6914673-0.3544312-1.0431519c-0.1751709-0.5910645-0.3013916-1.1901245-0.4179688-1.7950439
		c-0.0125732-0.0651855-0.0232544-0.1193848-0.032959-0.168396c-0.0001221-0.0273438-0.003418-0.0785522-0.0114136-0.1636963
		c-0.0294189-0.3123779-0.0545654-0.6245728-0.0707397-0.9379883c-0.0392456-0.7631836-0.0355225-1.5286255,0.0003052-2.2918701
		c0.0304565-0.6486816,0.0890503-1.2943726,0.1590576-1.9398193c0.0093384-0.0861816,0.0169067-0.1564331,0.0233154-0.2174683
		c0.005188-0.0211182,0.0148315-0.0745239,0.0325317-0.1884155c0.0508423-0.326416,0.1047363-0.6521606,0.163147-0.9772339
		c0.2578735-1.4354858,0.5899658-2.8568726,0.9608154-4.2670288c1.0991821-4.1795044,2.3521729-8.3248901,3.6129761-12.4654541
		c-1.2208862,9.5961304-2.0612793,19.2382813-2.519165,28.9013672
		C135.8827972,276.9989319,135.6416473,276.7017517,135.5937347,276.655426z M124.0960617,268.8340759
		c0.2324219-11.3411255,0.4648438-22.682251,0.6972046-34.0234375c0.2562866-12.50354,0.5124512-25.0071411,0.7686768-37.5107422
		c0.6490479,15.0951538,1.6993408,30.1720581,3.1561203,45.2120361c0.1672363,1.7269287,1.2471924,3.2321167,2.9509888,3.5460815
		c-0.300354,1.0131226-0.600708,2.0262451-0.901062,3.0393677c-2.7019043,9.1138306-6.8395309,19.586853-2.7067261,28.8977051
		c1.0517578,2.3695068,2.7526245,4.3572998,4.6668091,6.0791016c0.8997803,0.8093872,1.8336182,1.5810547,2.7128296,2.413269
		c0.0795898,0.0753174,0.1499023,0.1590576,0.2279663,0.2355957c-0.0128784,0.6174316-0.0390015,1.2344971-0.0487061,1.8519897
		c-0.005249,0.3347168,0.0568237,0.6549072,0.1463623,0.9655762c-0.2940063,0.7254028-0.5880127,1.4508057-0.882019,2.1761475
		c-1.2146606-1.2815552-2.4293823-2.5630493-3.644043-3.8446045c-0.6641235-0.7006836-1.3917236-1.4412231-2.1039429-2.1879883
		c-0.0808105-1.1184692-0.3079834-2.2258301-0.7749023-3.3126831c-0.869133-2.0232544-2.400322-3.440979-4.0759811-4.7321777
		c-0.0596924-0.3269653-0.1303711-0.6513672-0.1601563-0.9857178
		C123.8941574,274.0589294,124.042778,271.4337463,124.0960617,268.8340759z M116.7054977,244.7842712
		c0.2085571,0.1258545,0.4269409,0.2259521,0.6512451,0.3016968c-0.0072632,0.3546143-0.0145264,0.7091675-0.0217896,1.0637817
		c-0.2901001-0.5167236-0.5856934-1.0305786-0.8927002-1.538147
		C116.5317917,244.667572,116.6146164,244.7294617,116.7054977,244.7842712z M96.7964401,273.2338562
		c-2.9436646-2.7664795-6.2763062-5.0985718-9.5907593-7.4121094c-0.173584-0.4317017-0.4279785-0.8375244-0.7615967-1.1907959
		c-10.9933472-11.6397095-18.164917-26.4623413-26.5629883-40.2324219
		c7.4122925,9.008728,14.824585,18.0174561,22.2368774,27.0261841c0.8189697,2.1306152,1.6571045,4.2539063,2.5316772,6.3626099
		c0.7470093,1.8010864,2.3955688,3.0865479,4.444458,2.5234375c0.0855103-0.0234985,0.1677856-0.0690308,0.2523193-0.1008301
		c3.3135376,4.0272217,6.6270752,8.0543823,9.9406128,12.081604c1.7703857,2.1517334,3.578186,4.2783813,5.3047485,6.4655762
		c1.2016602,1.5222168,2.5869751,3.6655273,3.0794678,5.5513306c0.0552979,0.2116699,0.0959473,0.4281006,0.1375122,0.6442261
		c-0.3536987,1.3995361-0.6082764,2.8115234-0.5821533,4.2061768c0.019104,1.0194092,0.2202148,1.9813232,0.5401001,2.8961182
		c-0.2196655,2.475647-0.4488525,4.9501343-0.6745605,7.4252319c-1.2756958-0.7265625-2.5513306-1.453186-3.8270264-2.1797485
		c0.0800781-1.659668,0.4508057-3.2231445,0.7366333-5.0149536c0.4279785-2.6832275,0.5623779-5.2658691-0.0813599-7.9308472
		C102.869072,280.0020447,100.0059738,276.2502747,96.7964401,273.2338562z M113.2439499,311.3006897
		c1.0450439,0.5952148,2.0900269,1.1904297,3.1350708,1.7856445c-0.6744385,2.401062-1.3933105,4.7893066-2.1454468,7.1671753
		c-0.5532837-0.5259399-1.1065674-1.0518799-1.6598511-1.5778198
		C112.7971115,316.2173767,113.0205612,313.7590027,113.2439499,311.3006897z M111.5389328,330.0619812
		c0.0670166-0.7374268,0.1340332-1.4747314,0.2010498-2.2121582c0.3117676,0.2963257,0.6235352,0.5927734,0.9353027,0.8890991
		c0.3033447,1.2025757,0.9139404,2.2989502,1.6940918,3.3058472c2.090332,2.697876,4.378479,5.2584229,6.5734863,7.8718262
		c0.342041,0.4072266,0.684021,0.8143921,1.026062,1.2216187
		C118.3467941,337.5885925,114.8681564,333.89328,111.5389328,330.0619812z"/>
	<g>
		<path d="M516.9568481,427.5092163c-3.4636841-12.5660095-4.6035156-30.2724609,2.9969482-40.7218323
			c1.2627563-1.7360535,2.7936401-3.2622681,4.5682373-4.4746399c4.4293823-3.0262146,10.5834961-2.8634949,15.7276001-3.129425
			c6.2379761-0.3225098,12.5142822-0.4406128,18.7237549,0.3543396c8.3138428,1.0643921,17.4785767,3.9190369,23.6152954,9.9247437
			c5.0443115,4.9365845,8.0899658,11.7001038,9.2122803,18.6682739
			c2.5132446,15.6047668-2.9664307,32.5264893-15.7906494,42.1966248
			c-6.9568481,5.2458496-15.8787842,7.9863892-24.5359497,7.000885
			c-14.706604-1.6741333-28.949646-12.5858154-33.6008301-26.7732544
			C517.5541382,429.580719,517.2473145,428.5630493,516.9568481,427.5092163z"/>
	</g>
	<g>
		<path class="st3" d="M190.284317,483.4896851h-0.0000153c-6.9003601,2.4682617-14.5655823-1.1579895-17.0338287-8.0583496
			L132.1013794,360.393219c-2.4682617-6.9003601,1.1580048-14.5655823,8.0583496-17.033844h0.0000305
			c6.9003448-2.4682617,14.565567,1.15802,17.0338135,8.0583496l41.1491089,115.038147
			C200.8109283,473.3562012,197.1846771,481.0214233,190.284317,483.4896851z"/>
	</g>
	<path class="st4" d="M536.2605591,499.1761169c-0.5239258,0-1.0419922,0.0241089-1.5571289,0.0588989
		c-0.1872559-0.194458-0.3775635-0.3858032-0.5715332-0.5735474c0.5396729-1.9462891,0.8342285-3.9935303,0.8342285-6.109375
		c0-9.3447876-5.630127-17.3947144-13.6740723-20.9492188c-1.947998-4.8670654-9.0957031-9.057373-16.8056641-21.0745239
		c-8.666748-13.5079956-11.9017334-27.3445435-12.2996826-29.1090698
		c-3.2614746-14.4619141-0.6237793-21.0415649-5.739624-24.5992432c-5.4506836-3.7904053-15.8444824-1.4677124-20.0895996,4.5098267
		c-1.8400879,2.5913086-3.0224609,6.5700684,2.460083,24.5992432c4.0708008,13.3864746,7.8707275,25.5344849,17.6295166,40.5887451
		c3.0039063,4.6340332,5.5341797,8.4986572,7.8895264,11.5733643c-3.2232666,3.9454956-5.1605225,8.9805908-5.1605225,14.4608765
		c0,6.4465332,2.6821289,12.2750854,6.9841309,16.4399414c-0.5396729,1.9462891-0.8342285,3.9935608-0.8342285,6.1094055
		c0,12.6245117,10.2705078,22.8950195,22.8950195,22.8950195c0.5238037,0,1.0418701-0.0241089,1.5570068-0.0588989
		c4.1678467,4.3278198,10.0140381,7.0286255,16.4825439,7.0286255c12.6245117,0,22.8950195-10.2705078,22.8950195-22.8950195
		C559.1555786,509.4466248,548.8850708,499.1761169,536.2605591,499.1761169z M535.0945435,515.1014404
		c0,7.9122925-5.4814453,14.5513306-12.8411865,16.3662109c-1.8088379-2.6875-2.8668213-5.9204712-2.8668213-9.3964844
		c0-3.2503052,0.9395752-6.2783203,2.5383301-8.8564453c3.3500977-1.6040955,6.2519531-3.9984436,8.4622803-6.9414368
		c0.5987549-0.2234497,1.2122803-0.413269,1.8408203-0.5682373
		C534.0366821,508.3924866,535.0945435,511.6253967,535.0945435,515.1014404z M526.406311,501.4086609
		c-3.3500977,1.6040649-6.2519531,3.9985962-8.4621582,6.9414673c-1.8322754,0.6835327-3.8054199,1.0755005-5.8730469,1.0755005
		c-3.1647949,0-6.118042-0.8918457-8.6517334-2.4137573c2.8695068-5.2295532,8.4272461-8.7839966,14.8016357-8.7839966
		c3.1647949,0,6.118042,0.8918457,8.6517334,2.4137573C526.7284546,500.9046326,526.5640259,501.1543274,526.406311,501.4086609z
		 M495.1975708,492.5520935c0-3.6774292,1.1958008-7.0733643,3.2004395-9.8485107
		c2.6899414,2.5205078,5.3723145,3.8555298,8.5483398,3.9036255c5.4660645,0.0827026,11.5627441-3.637207,13.8908691-8.4453125
		c4.8518066,2.9668579,8.1074219,8.298584,8.1074219,14.3901978c0,0.7623901-0.0686035,1.5074463-0.1669922,2.2433472
		c-3.161377-1.6502075-6.7504883-2.5890503-10.5566406-2.5890503c-8.1688232,0-15.3475342,4.3032837-19.4003906,10.7588501
		C496.5591431,500.0939636,495.1975708,496.4822083,495.1975708,492.5520935z M501.3474731,515.1014404
		c0-0.7623901,0.0686035-1.5074463,0.1669922-2.2433472c3.161377,1.6502075,6.7504883,2.5890503,10.5566406,2.5890503
		c0.7788086,0,1.548584-0.0397949,2.3077393-0.1161499c-0.6580811,2.1318359-1.0137939,4.3951416-1.0137939,6.7401733
		c0,3.4527588,0.7727051,6.7269897,2.1473389,9.6656494C507.4944458,530.4344482,501.3474731,523.4815674,501.3474731,515.1014404z
		 M536.2605591,538.9447021c-3.3847656,0-6.5333252-1.0112305-9.1779785-2.7337646
		c8.2363281-3.47052,14.0334473-11.6252441,14.0334473-21.1094971c0-3.4527893-0.7727051-6.7270813-2.1472168-9.665741
		c8.0180664,1.3021851,14.1652832,8.2552185,14.1652832,16.6354675
		C553.1340942,531.3753662,545.5647583,538.9447021,536.2605591,538.9447021z"/>
	<g>
		<path class="st5" d="M479.4636841,597.8543701c-12.9658203-1.112793-25.8837891-3.5581055-38.3950195-7.2675781
			c-28.0874023-8.3276367-47.5332031-21.3876953-66.3388672-34.0170898l-3.269043-2.1938477
			c-31.7841797-21.2871094-53.8833008-43.2812805-64.2275391-54.4971008
			c-26.2163086-28.4238281-48.0361328-61.6274414-64.8525543-98.6894531l26.4873199-12.0185547
			c15.5336914,34.2338867,35.6352539,64.8466797,59.746582,90.987793
			c9.4726563,10.2709961,29.7373047,30.4301758,59.0322266,50.0498352l3.2998047,2.2143555
			c17.7744141,11.9370117,34.5634766,23.2124023,58.390625,30.2773438
			c10.6298828,3.1513672,21.6030273,5.2285156,32.6137695,6.1738281L479.4636841,597.8543701z"/>
	</g>
	<path d="M440.4690552,379.931488c-3.4370117,7.8222656-7.5585938,15.3530273-12.2504883,22.3823242
		c-12.5273438,18.7666016-26.4736328,30.0463867-33.671875,35.1000977
		c-11.1131592,7.802063-18.677002,13.0990601-27.3198242,14.7088623c-1.1174316-0.8098145-4.0605469-2.5686646-7.9360352-2.0159912
		c-1.2454834,0.1784058-2.8596191,0.654541-4.4882813,1.7711182c-7.4595947-1.7260132-14.3259277-6.4268799-25.659668-14.210083
		c-17.4526367-11.984375-28.1005859-25.0405273-33.8212891-32.0546875
		c-5.9624023-7.3120117-11.4594727-15.152832-16.3383789-23.3051758l-5.3144531,3.1806641
		c5.0317383,8.4082031,10.7021484,16.4960938,16.8530273,24.0390625c5.4951172,6.737793,16.9296875,20.7587891,35.1152344,33.246582
		c10.3464355,7.1047363,17.4559326,11.9783936,24.9135742,14.3660278c-0.6948242,1.7032471-0.8704834,3.262146-0.894043,4.2311401
		l4.9980469,0.1220703c0.0170898-0.6954956,0.1708984-1.9130859,0.859375-3.1583862
		c1.6901855,0.2800293,3.4273682,0.4545898,5.2612305,0.4909058c0.2709961,0.0053711,0.5390625,0.0083008,0.8066406,0.0083008
		c1.5664063,0,3.0744629-0.0985718,4.5454102-0.2764893c0.6132813,1.4650269,0.5579834,2.8265991,0.5532227,2.9136963
		l4.9931641,0.2626953c0.0273438-0.5198364,0.045166-2.1854858-0.5690918-4.1333008
		c8.7785645-2.3309937,16.6036377-7.8180542,27.0007324-15.1176758c7.5527344-5.3022461,22.1772461-17.125,35.2646484-36.730957
		c4.8916016-7.3286133,9.1879883-15.1777344,12.7700195-23.3295898L440.4690552,379.931488z"/>
	<g>
		<path d="M403.5521851,194.707489c-26.3613892-17.5452728-40.195343-52.0430298-33.2600403-82.9406204
			c6.4657593-28.8055649,28.2473755-51.4263268,50.0681763-71.3114624
			c14.8518982-13.5344257,32.5639038-27.3951778,52.5776062-25.603363
			c-6.8664551,13.7636957-9.7192993,29.500576-8.1213074,44.7987404
			c2.4864197,23.8032646,15.4048157,46.4024239,13.1470337,70.2284546
			c-1.0977478,11.5841675-5.785675,22.5852661-11.8624268,32.5085297
			c-9.1629944,14.9629974-22.4794312,28.4116058-39.4481506,32.874115s-37.6175842-2.5740967-44.519165-18.7054291
			L403.5521851,194.707489z"/>
	</g>
	<g>
		<path d="M264.2590637,195.6299591c-26.3614044-17.5452728-40.1953583-52.0430298-33.260025-82.9406204
			c6.465744-28.8055649,28.2473602-51.4263268,50.068161-71.3114624
			c14.8518982-13.5344257,32.5639038-27.3951759,52.5776062-25.603363
			c-6.8664551,13.7636967-9.7192993,29.500576-8.1213074,44.7987442
			c2.4864197,23.8032608,15.4048157,46.40242,13.1470337,70.2284546
			c-1.0977478,11.5841675-5.785675,22.5852661-11.8624268,32.5085297
			c-9.1629944,14.9629974-22.4794312,28.4116058-39.4481506,32.874115s-37.617569-2.5740967-44.519165-18.7054291
			L264.2590637,195.6299591z"/>
	</g>
	<g>
		<path class="st6" d="M252.6812286,271.9230957c-14.8197327-29.6340179-43.3035431-42.1125031-53.9719696-46.6074066
			c-5.9538269-2.5085907-46.6743164-19.1387177-55.5340729-6.1238861
			c-6.1666565,9.0587158,6.1079559,28.063446,17.9654388,46.4225159
			c12.9881897,20.1097107,22.2775269,34.4923401,40.4030914,42.2855225
			c20.544754,8.8333435,49.9956207,8.1489868,57.0649261-6.2440491
			C263.0391541,292.6351929,257.2695618,281.0980225,252.6812286,271.9230957z"/>
	</g>
	<g>
		<path class="st7" d="M223.8580475,264.7494812c-3.8030396-10.078064-11.2354584-18.9971161-20.1552887-22.7554016
			c-4.0406647-1.7024994-31.675766-12.9885712-37.6884918-4.1560059
			c-4.1850281,6.1477509,4.1452026,19.0454102,12.1923523,31.5049133
			c8.8144073,13.6473999,15.1186218,23.4082031,27.4193726,28.6971436
			c6.7010498,2.8812256,12.5722504,2.5996094,16.7323761-3.7648315
			C227.8320618,285.9011841,227.6334381,274.7542419,223.8580475,264.7494812z"/>
	</g>
	<g>
		<path class="st6" d="M452.1379395,276.5708618c12.9716797-30.4882965,40.6352844-44.6926727,51.0074768-49.8343353
			c5.7885437-2.8695374,45.4107361-21.9692841,55.0531311-9.5231934
			c6.7113647,8.6628571-4.3728027,28.3856049-15.0803223,47.4383087
			c-11.7285156,20.8694458-20.1169434,35.7955017-37.7296448,44.6872253
			c-19.9634094,10.0784912-49.4007263,11.2042847-57.3406982-2.7273865
			C443.0716858,297.8800354,448.1218262,286.0102844,452.1379395,276.5708618z"/>
	</g>
	<g>
		<path class="st7" d="M484.5118408,262.3870239c0.8320923-4.7640991,2.5501404-9.3205414,5.4415894-13.3985138
			c2.5930176-3.6570282,5.4944153-3.4454651,9.2322693-5.2983704c3.9284363-1.9474335,30.8182678-14.9095917,37.3620911-6.4629822
			c4.5547485,5.8791046-2.9675903,19.2640533-10.234314,32.1942902
			c-7.9589844,14.1620789-13.6516113,24.2912292-25.6064758,30.3277588
			c-6.9918213,3.5304565-9.6733704,0.0790405-12.0531311-6.2299194
			C484.9898071,283.805603,482.7019043,272.7495728,484.5118408,262.3870239z"/>
	</g>
	<g>
		<path class="st6" d="M391.3922119,145.6955566c-44.581604-10.7056732-99.6628418-2.4647217-131.7519836,29.1036377
			c-22.941925,22.5695801-42.5796967,57.5207672-36.6057892,88.9441528
			c0.4439697,2.3353577,2.5713348,9.9021912,6.8282471,25.0358582c2.7214966,9.6763916,3.7160797,12.8830872,3.7922516,18.2078857
			c0.0903168,6.259552-1.192627,8.1755371-3.0337982,18.9664917c-1.8280487,10.7094421-2.7410278,16.0644531-2.2758179,20.4898071
			c2.6995392,25.644928,30.1846466,33.5298157,51.1140594,38.8004761
			c50.2849426,12.663269,104.7714539,16.3592834,154.6334229-0.4200439
			c22.7201538-7.6456909,54.9090271-24.6283569,45.3692627-53.5595703c-1.3438721-4.078064-2.39505-4.4457092-3.793335-9.1040344
			c-0.5985107-1.9947205-2.0468445-7.3959961-1.5180054-16.6904297c0.4200439-7.3704224,1.7247314-10.901947,3.0348816-17.4493103
			c0-0.0002747,1.6669922-8.3326721,2.2764893-24.2778015c1.870575-48.9386902-20.8227844-90.5375671-64.1991577-110.0012512
			C407.8288269,150.4056244,399.7971191,147.7138672,391.3922119,145.6955566z"/>
	</g>
	<g>
		<ellipse class="st8" cx="274.1986084" cy="353.7581177" rx="22.7505779" ry="15.4868383"/>
	</g>
	<g>
		
			<ellipse transform="matrix(0.999346 -0.0361622 0.0361622 0.999346 -12.4505177 15.8687887)" class="st8" cx="432.4536438" cy="352.1181641" rx="22.7505779" ry="15.4868383"/>
	</g>
	<g>
		<path class="st9" d="M315.730072,306.0112305c0,20.4368591-13.7836304,37.0041809-30.7865906,37.0041809
			c-17.0029907,0-30.7866058-16.5673218-30.7866058-37.0041809c0-20.4368286,18.0172272-37.8552246,35.0201874-37.8552246
			S315.730072,285.5744019,315.730072,306.0112305z"/>
	</g>
	<g>
		<path class="st9" d="M456.0422974,305.7666321c0,19.5791626-13.7836304,35.4512329-30.7865906,35.4512329
			s-30.7865906-15.8720703-30.7865906-35.4512329c0-19.5791931,9.449646-38.6319275,26.4526367-38.6319275
			C437.9247131,267.1347046,456.0422974,286.187439,456.0422974,305.7666321z"/>
	</g>
	<g>
		<path d="M457.6472778,298.282074c-1.6988525-8.447998-5.5054932-16.5883789-11.0968018-23.3297729
			c-1.4401855-1.6495972-2.8636475-3.3011475-4.494751-4.8093872c-1.6303711-1.49823-3.3587646-2.9415283-5.260376-4.1945801
			c-3.7672119-2.5234375-8.2161865-4.4164429-13.0089111-4.8390503c-1.1645508-0.1137085-2.338501-0.1177979-3.5024414-0.0249023
			c7.6728516-6.5516815,11.5246582-13.601059,9.1977539-18.3966522c-3.5168457-7.2476196-19.8063965-6.6019897-36.3837891,1.4420776
			c-16.5773926,8.0440063-27.1650391,20.4403534-23.6481934,27.687973
			c3.3719482,6.9489136,18.4863281,6.6369629,34.3374023-0.4902344c-4.6577148,5.3884277-7.5614014,12.8862915-8.855835,19.1947021
			c-3.2740479,15.9569702-0.3197021,44.3491821,19.0655518,49.0187378
			c10.888916,2.6229248,21.4753418-3.4663086,26.1981201-13.3461304c1.2391357-2.5922241,2.1031494-5.348877,2.6690674-8.1627808
			c1.0211182-5.0770874,1.1755371-10.5455933,0.9526367-15.8143921c-0.0568848-1.3463745-0.1385498-2.6796875-0.2365723-3.9900513
			c-0.4493408-6.0028076-1.8936768-11.9672852-4.4672852-17.420105c-0.1781006-0.3773193-0.3713379-0.7555542-0.5643311-1.133606
			c0.3125,0.3648682,0.6312256,0.7229004,0.9370117,1.0946655c4.7480469,5.7566528,8.5068359,12.3463135,11.2376709,19.4796753
			c2.7585449,7.151123,4.3673096,14.8132935,5.1568604,23.0955811
			C458.9255981,315.5645447,459.3173218,306.7193909,457.6472778,298.282074z M409.0504761,334.1808777
			c-3.7341309,0-6.7612305-3.0270996-6.7612305-6.7612305s3.0270996-6.7612305,6.7612305-6.7612305
			s6.7612305,3.0270996,6.7612305,6.7612305S412.7846069,334.1808777,409.0504761,334.1808777z M419.1047974,298.3268127
			c-7.8117676,0-14.1445313-6.3327637-14.1445313-14.1445923s6.3327637-14.1445313,14.1445313-14.1445313
			c7.8118896,0,14.1445313,6.3327026,14.1445313,14.1445313S426.916687,298.3268127,419.1047974,298.3268127z"/>
		<path d="M316.4575195,246.5695648c-15.5669556-9.8582153-31.6804199-12.3326416-35.9904785-5.5267334
			c-3.0068359,4.7481079,0.5310669,12.7583008,8.2278442,20.5156097c-3.0951538-0.0973511-6.2409668,0.3427734-9.1767578,1.3651123
			c-2.480957,0.835022-4.8060303,2.0234375-6.9179688,3.4492798c-2.1142578,1.421875-4.0435791,3.0492554-5.7598877,4.8335571
			c-1.7307129,1.7713013-3.2834473,3.6694336-4.6582031,5.663208c-1.3918457,1.9818115-2.6167603,4.0507202-3.697998,6.1762695
			c-2.1810303,4.2409668-3.7785187,8.7077026-4.9146881,13.2539063c-1.1073608,4.5545044-1.7183228,9.2163086-1.7088013,13.8754272
			c0.0123901,2.3250732,0.1710205,4.6625977,0.5654297,6.9372559c0.368042,2.2748413,0.8987427,4.5102539,1.6447144,6.6672363
			c0.1289673-2.2774658,0.2984009-4.5122681,0.5742188-6.7137451c0.2954102-2.2019043,0.6611328-4.3453979,1.1506348-6.4720459
			c0.9687653-4.244873,2.2846222-8.3742676,3.8877716-12.3521118c3.1957397-7.9203491,7.460022-15.4456787,13.116272-21.1600342
			c0.0353394-0.0349731,0.0719604-0.067749,0.1073608-0.1025391c-4.3325806,6.7942505-6.9952393,15.9631348-6.9952393,26.0617065
			c0,20.9363403,6.5305176,37.9902954,25.5128784,37.9086914c14.09021-0.0606079,25.5128174-16.9723511,25.5128174-37.9086914
			c0-7.3599243-1.4161377-14.2252808-3.8589478-20.0402832c-0.2021484-2.1098633-0.7636108-4.2086182-1.6314697-6.2155762
			c11.7094727,4.9301758,22.0669556,5.2097778,25.3931274-0.0425415
			C341.1500854,269.936676,332.0244751,256.4277649,316.4575195,246.5695648z M283.3460083,337.8707581
			c-3.7341309,0-6.7612305-3.0270996-6.7612305-6.7612305s3.0270996-6.7612305,6.7612305-6.7612305
			c3.7340698,0,6.7611694,3.0270996,6.7611694,6.7612305S287.0800781,337.8707581,283.3460083,337.8707581z
			 M290.3688965,298.3268127c-7.8118286,0-14.1445923-6.3327637-14.1445923-14.1445923s6.3327637-14.1445313,14.1445923-14.1445313
			s14.1445313,6.3327026,14.1445313,14.1445313S298.1807251,298.3268127,290.3688965,298.3268127z"/>
	</g>
	<path class="st2" d="M491.6296997,159.8472748c-5.3300781-6.2055054-15.9689941-10.4376221-20.2739258-3.4024658
		c-15.0146484-34.6853027-59.503418-50.968811-91.6655273-33.5509033
		c-6.0455322-6.5481567-16.6025391-7.7584839-23.8410645-2.7332153c-3.2449951,2.2527466-5.6534424,5.6501465-7.0344238,9.4703979
		c-5.0727539-5.7235718-11.0266113-10.4746704-17.895752-13.3873901
		c-11.7353516-4.9760742-26.3665771-3.6428833-35.5065918,5.5774536c-8.425293,8.4993286-10.118042,24.017334-2.9702759,33.3845215
		c-9.1092529-9.8526611-21.0219727-17.4205322-33.9910278-17.7148438
		c-13.9409943-0.3162842-28.5096588,9.9174194-30.3148956,24.4989624
		c-0.5619507,4.5390625,0.5333252,9.1002197,2.6929932,13.0547485c-3.4291382-0.1208496-6.8613281,0.3184814-10.1578979,1.4467773
		c-11.5787964,3.9629517-20.2581177,17.0449829-18.1031494,29.6799927c0.7471313,4.3804932,2.6045532,8.2682495,5.192627,11.6506348
		c-0.0402832,0.6209717-0.098999,1.237915-0.1348267,1.8596802c-0.6699219,11.6357422-0.5665894,23.3932495,0.3062744,34.8171997
		c0.0197144,0.2576904,0.0393677,0.5153198,0.059082,0.7730713c0.71875,9.4086761,2.0597534,18.7162323,3.7557373,27.6833954
		c6.6508789,35.164978,47.888504,69.3383789,45.9309235,66.8085938
		c-9.107254-11.7697754-17.1500397-24.3931274-19.7313385-38.7636108
		c-2.7730103-15.4378662-0.7836914-31.2806396,3.0968018-46.4164429c1.1530151-4.4973145,2.3120117-8.993576,3.4363403-13.496933
		c0.4209595-1.6862793,1.762146-4.4693604,1.4523315-6.2241211c-0.0452271,0.0961914,1.9610596-5.6456909,3.6308594-10.5229492
		c9.3098907-0.6984863,18.2039948-4.0792847,24.735611-11.0040283c2.0158081,14.2403564,15.4682007,24.3201294,29.022522,26.0474854
		s27.0574951-3.1317749,39.5849609-8.8560791c6.984375-3.1914063,14.0155029-6.800415,19.2670898-12.611084
		c3.2895508-3.6395874,5.7702637-8.3289185,6.6464844-13.2199707c2.2658691,8.831604,10.0878906,16.3165283,18.8410645,18.4383545
		c11.5632324,2.8030396,23.699707-1.7262573,33.7451172-8.3845215
		c11.2670898-7.4679565,21.1625977-18.1968384,25.0749512-31.6106567
		c-3.3513184,12.3565063,4.3769531,25.9258423,15.4765625,31.0298462c1.4106445,5.713623,3.2124023,12.8352051,3.1724854,12.7203979
		c-0.3238525,1.9909058,0.8148193,5.1854248,1.1514893,7.1131592c0.8995361,5.1480713,1.8303223,10.2888184,2.7558594,15.4305878
		c3.1147461,17.3048096,4.5063477,35.3762207,1.6140137,52.8909912
		c-2.6923828,16.303772-10.2646484,30.5092773-18.7753906,43.7218018
		c-1.8293457,2.8399658,36.2213135-35.2250366,43.1109619-75.1141968c1.756958-10.171875,3.2022705-20.7382202,4.0892334-31.4322357
		c0.024292-0.2929077,0.048584-0.5857544,0.072876-0.8786621c1.0770264-12.9845581,1.4686279-26.3642578,1.1600342-39.6208496
		c-0.0230713-0.9914551-0.072998-1.9763794-0.104126-2.9661865c0.5302734-1.2138062,0.9956055-2.4581909,1.3807373-3.7307739
		C505.9866333,187.7613983,501.3469849,171.1605072,491.6296997,159.8472748z"/>
	<g>
		<path class="st10" d="M359.7335205,345.1075439c-13.60495-0.6786499-29.8272095-13.1976929-43.0076599-5.1357117
			c-7.2110596,4.4107666-8.8965759,11.9029236-7.537262,19.7548828c0.3034058,1.7531738,1.4285278,7.2087708,5.7439575,12.5714111
			c1.5406799,1.9145508,6.5891418,8.1878662,14.8243713,9.5441895c10.8753662,1.7909241,20.2523193-7.7790527,31.0533752-3.2634277
			c4.9788208,2.081543,9.3321228,5.809845,14.8106384,6.5963135c11.5028687,1.650238,20.6812439-9.0377808,24.4359741-18.6807251
			c1.8267517-4.6914673,2.6598511-9.8908691,1.5450745-14.8004456c-1.4837646-6.534668-6.5197144-11.1878662-13.0664368-12.4161072
			c-6.7303467-1.2627258-12.7175293,2.1943359-18.8260193,4.3961182
			C366.3100586,344.8992615,362.996521,345.2702942,359.7335205,345.1075439z"/>
	</g>
	<g>
		<path class="st11" d="M390.8055115,373.5021667c-5.8779907-7.3844299-16.7919922-7.8154297-25.349884-9.2439575
			c-6.8833313-1.1489868-12.4147034-0.9666748-15.0755005-0.800415c-6.7733765,0.4231873-11.8088989,1.7958679-13.7415466,2.3634644
			c-0.467804,0.1373901-4.3457336,1.297699-9.0848694,3.7241821c-6.6220703,3.390625-6.809967,5.0985718-6.8067322,5.6400146
			c0.0003052,0.063446,0.0144043,0.1229248,0.0201416,0.1847229c-0.6811218,0.8508606-1.2838745,1.7571106-1.7931213,2.6992493
			c-2.6975708,4.9899597-3.1932983,10.8106079-3.0092163,16.434967c0.1643372,5.021637,0.7837219,10.2904663-1.3791504,14.8604431
			c-1.5627441,3.3022461-4.5602112,5.9516602-8.1213379,7.1786194c-0.9144287,0.3151245-1.8820801,0.5493164-2.6706543,1.0930481
			c-2.014679,1.3892212-2.1006775,4.4396667-0.7181702,6.4230347c1.3823853,1.983429,3.805603,3.0649414,6.2055969,3.6913757
			c8.3339233,2.175293,17.3702698-0.1165161,24.7705078-4.352478c7.400238-4.2359314,13.4616089-10.2692871,19.4465637-16.2123413
			c5.9846191-5.9430847,12.0886536-11.9458923,19.5407715-16.0978699c3.4962769-1.947998,7.2630615-3.4720154,10.5358887-5.74823
			c0.5466003-0.380249,1.0787964-0.8044434,1.5883484-1.2599792c0.5571899-0.1875,1.1311035-0.4128723,1.7212219-0.6994934
			c1.5048523-0.730957,5.5050964-2.6739807,5.5232849-5.2324829
			C392.4206848,376.2960815,391.8167114,374.772583,390.8055115,373.5021667z"/>
	</g>
	<g>
		<path class="st12" d="M358.9408264,365.3535461c-3.1030273,1.9925537-5.7774658,4.2702637-7.9204102,6.945282
			c-2.1551514,2.6550293-3.7957764,5.6470032-4.9429932,8.8304443c-1.1809082,3.2583923-2.0950928,6.7491455-3.4902344,10.2046509
			c-1.3803711,3.4313965-3.4262695,6.8378906-6.4005127,9.0735168c1.8034668-3.2326965,2.8929443-6.5134583,3.6993408-9.9538269
			c0.8343506-3.4232178,1.5107422-7.0071411,2.7949219-10.552887c1.3016357-3.6163635,3.4545898-6.9613647,6.2858887-9.5507813
			C351.7951965,367.7713318,355.2845764,365.9362793,358.9408264,365.3535461z"/>
	</g>
	<path class="st12" d="M368.1306763,324.1706848c-1.5245361,0.6956787-2.9749756,1.4790649-4.3831787,2.3123169
		c-1.4141846,0.8260498-2.7513428,1.7432861-4.0718994,2.6800537c-0.5549316,0.4025879-1.0963135,0.8213501-1.6411133,1.2359619
		c-0.541748-0.3636475-1.0852051-0.7249146-1.6412354-1.0692139c-1.354126-0.8456421-2.7490234-1.6362915-4.1873779-2.3684692
		c-1.4438477-0.7244873-2.9239502-1.4002075-4.4698486-1.9870605c-1.5527344-0.5775146-3.1405029-1.1079102-4.8824463-1.4301147
		c0.815918,1.5724487,1.7858887,2.9367065,2.7908936,4.2537842c1.0118408,1.3077393,2.0895996,2.5266724,3.2033691,3.6967773
		c1.1195068,1.1625366,2.2823486,2.2664795,3.4859619,3.3154297c1.1998291,1.053894,2.4481201,2.0426025,3.7177734,3.0023193
		l2.3114014,1.7470093l2.1689453-1.8920288l1.8236084-1.5908813c0.5871582-0.5549316,1.1817627-1.1009521,1.7585449-1.6680298
		c1.1424561-1.1472778,2.2683105-2.314209,3.3170166-3.5722656c1.0548096-1.2507935,2.0675049-2.5515137,3.0059814-3.9399414
		c0.9299316-1.3983765,1.8226318-2.8408203,2.5412598-4.4889526
		C371.2339478,322.8432922,369.6637573,323.4850159,368.1306763,324.1706848z"/>
	<g>
		<circle class="st13" cx="359.2196045" cy="491.8155823" r="33.7021294"/>
	</g>
	<g>
		<g>
			<path class="st4" d="M360.3910522,477.8864136c4.4797363,0.1464233,9.5596008,0.7244263,15.0028381,2.0567017
				c4.4080811,1.0788879,8.7058716,2.5667114,12.848938,4.445343c4.1967468,1.9029541,5.8676453,7.3880615,3.6379395,11.7025452
				l-0.0010986,0.0021362c-1.9204712,3.716095-6.1054993,5.2813416-9.7219238,3.6467896
				c-3.3007813-1.4919128-6.7249451-2.6748962-10.2377014-3.534729
				c-10.7017822-2.6183472-19.5570984-1.6270752-23.8833923-0.8018494
				c-4.0578918,0.7738342-8.0066833,2.008728-11.8016663,3.6878967c-3.6252747,1.6040649-7.7696228,0.0496826-9.6524048-3.6469727
				l0,0c-2.2326965-4.383667-0.3900146-9.8915405,3.9095764-11.7922058
				c4.8062134-2.1245728,9.8070984-3.6876831,14.9458923-4.667511
				C348.6721802,478.3679199,353.901123,477.6742859,360.3910522,477.8864136z"/>
		</g>
	</g>
	<path class="st4" d="M371.210022,509.059967c-2.3679199-0.6057129-4.7785645,0.8227539-5.3842773,3.1907043
		c-0.5345459,2.0899048,0.5181885,4.2085571,2.4000244,5.0947876c-0.8553467,1.5973511-1.9249268,3.0081787-3.2171631,4.2042236
		c-1.3515625,1.2509766-2.5185547,2.3310547-4.1650391,2.4604492c-2.5546875,0.1987305-4.7026367-1.9594727-6.7880859-4.0493164
		c-0.888916-0.8914185-1.6866455-1.8667603-2.4064941-2.9014893c0.9074707-0.583374,1.6121826-1.4874878,1.9006348-2.6150513
		c0.6057129-2.3679199-0.8227539-4.7785339-3.1906738-5.3843079c-2.3679199-0.6057129-4.7785645,0.8228149-5.3842773,3.1907043
		c-0.6057129,2.3679199,0.8227539,4.7785645,3.1906738,5.3842773c0.5158691,0.131958,1.0310059,0.151123,1.5317383,0.1013184
		c0.8637695,1.3063965,1.8393555,2.5307617,2.9443359,3.6386108c2.1806641,2.1860352,4.6381836,4.6489258,7.8583984,4.6489258
		c0.1645508,0,0.331543-0.0063477,0.5004883-0.0195313c2.3383789-0.184082,3.8779297-1.6088867,5.3666992-2.9868164
		c1.5783691-1.4609375,2.8933105-3.244751,3.8996582-5.2670288c1.9125977-0.0669556,3.6357422-1.3582153,4.1340332-3.3061523
		C375.0064087,512.076355,373.5779419,509.665741,371.210022,509.059967z"/>
	<g>
		<path d="M207.2557373,417.7627258c-0.1382751-13.033905-3.9287109-30.3674011-14.1175079-38.3137817
			c-1.6927643-1.3201904-3.5853729-2.3646851-5.6255646-3.0403442c-5.0924988-1.6864624-10.9627838,0.1681519-15.9805145,1.3320007
			c-6.0848083,1.411377-12.1499939,3.0297241-17.8990021,5.5072937
			c-7.6973419,3.3171997-15.7185364,8.5899658-19.9597778,16.0558777
			c-3.4862366,6.1368713-4.5473175,13.4781799-3.7032013,20.4855042
			c1.8903503,15.6924133,11.8266754,30.4450684,26.8213806,36.2009888
			c8.1343536,3.1224976,17.4661102,3.2946777,25.515213-0.0414429
			c13.6736145-5.6673279,24.3526459-20.0856018,24.9083252-35.0056458
			C207.2532349,419.9186401,207.267334,418.8558044,207.2557373,417.7627258z"/>
	</g>
	<g>
		<path class="st14" d="M261.62146,191.3465424c-2.8167725-7.9412231,2.9152832-16.9043579,8.7962036-21.9093018
			c2.8147583-2.3955078,6.6028442-4.222229,10.3720093-3.4282837c3.0471191,0.6418457,6.2496948,2.7852173,6.6224365,6.1212158
			c0.2137451,1.913147,2.8140869,1.9424438,3,0c0.6625977-6.9223022,8.1654053-12.5963135,15.0178223-11.0334473
			c6.6852417,1.5247803,11.1375732,9.0952759,9.3154907,15.6729126c-0.3818359,1.3783569,1.4998779,2.6271973,2.5070801,1.4594116
			c3.9375-4.5653687,10.3734131-6.5769043,16.2436523-5.2304077c5.986084,1.3731079,10.2705078,6.2340088,11.6153564,12.135376
			c0.7320557,3.2123413,0.5323486,6.7012329-0.7854004,9.7408447c-0.7601318,1.7532959,1.8236084,3.2827759,2.5904541,1.5141602
			c2.8295898-6.5268555,1.7528076-14.2276611-2.6008301-19.8426514c-4.4731445-5.7688599-11.935791-8.0014038-18.9699707-6.4428101
			c-2.5923462,0.5744019-5.0637207,1.6904907-7.2060547,3.2547607c-0.1265869-5.1558838-2.9089355-10.156311-7.2177734-13.090271
			c-5.7866211-3.9401855-13.3459473-2.6923218-18.4057007,1.8392944c-1.6965332,1.5194702-3.0128174,3.3670654-3.8991699,5.4087524
			c-2.8179932-3.8430786-8.3460083-5.505127-13.0879517-4.2199707c-7.3359985,1.9881592-13.1032715,9.2560425-15.9378662,15.9942627
			c-1.7125854,4.071167-2.3666992,8.6134033-0.8626709,12.8536987
			C259.3695068,193.9510345,262.269165,193.1726532,261.62146,191.3465424z"/>
		<path class="st14" d="M391.750061,149.7534027c2.4655762-1.0744019,5.9240723-0.8809814,7.3422852,1.7128906
			c0.7946777,1.4537354,0.8669434,3.2159424,1.0268555,4.8284302c0.1860352,1.874939,0.4567871,3.6490479,1.2188721,5.3839722
			c0.3980713,0.90625,1.7349854,0.9190674,2.355835,0.3035889c5.904541-5.8528442,14.1409912-10.3357544,22.6522217-8.1029053
			c3.7875977,0.9936523,7.1153564,3.2927246,8.9381104,6.8115234c1.717041,3.3148804,1.940918,7.4017944,0.0969238,10.7045288
			c-0.6335449,1.1346436,0.4140625,2.5534058,1.6938477,2.2034912c6.5966797-1.8035889,14.5819092-3.5563354,20.9968262-0.1902466
			c4.8334961,2.5363159,8.6838379,8.1896973,6.7290039,13.729126c-0.6436768,1.8241577,2.2536621,2.6087646,2.8928223,0.7975464
			c2.3081055-6.5404663-1.8640137-13.4790039-7.4858398-16.7719116c-6.3415527-3.7144165-14.0983887-2.8688965-21.0510254-1.199646
			c1.550415-5.6881104-0.7504883-12.0987549-5.4464111-15.762146c-6.0314941-4.7052002-14.3728027-4.8270264-21.2113037-1.9359131
			c-3.3865967,1.4317017-6.4318848,3.5176392-9.1689453,5.9537964c-0.5823975-2.8669434-0.192627-5.9712524-1.8256836-8.5706177
			c-1.9639893-3.1262817-5.8459473-4.0308228-9.2785645-3.2020874c-3.8609619,0.9321289-6.6207275,4.0664063-8.8387451,7.1651611
			c-2.418335,3.3786011-4.6137695,7.0089111-5.9143066,10.9771118c-1.3684082,4.175354-1.4715576,8.7849731,1.0457764,12.5505981
			c1.067627,1.597229,3.6673584,0.0969238,2.590332-1.5141602c-3.9753418-5.9465942,0.15625-13.5095825,3.604126-18.6681519
			C386.5393677,154.2247162,388.6260376,151.1146698,391.750061,149.7534027z"/>
		<path class="st14" d="M469.6218872,471.3874817c-5.2214355-4.0625-12.2919922-4.2344971-18.0285645-1.1235962
			c-2.3139648,1.2547607-4.3459473,3.0500488-5.847168,5.2120361c-3.1750488-5.6247559-9.5227051-9.4344482-16.0856934-8.8981323
			c-7.4619141,0.6097412-14.0456543,6.4778442-15.4182129,13.8568726c-0.3510742,1.887146,2.5396729,2.696106,2.8928223,0.7975464
			c1.1162109-6.0008545,6.3272705-11.1479492,12.5253906-11.6544189c6.2803955-0.5132446,12.5050049,3.6218872,14.4949951,9.5947266
			c0.3647461,1.0946655,2.1801758,1.6276855,2.7415771,0.3582764c2.7468262-6.2104492,10.1512451-9.9020996,16.7495117-7.9475708
			c6.6159668,1.9597168,10.9005127,9.475647,9.4770508,16.1694946c-0.4005127,1.8830566,2.4907227,2.6878662,2.8928223,0.7974854
			C477.3731079,482.1708679,474.7531128,475.3797913,469.6218872,471.3874817z"/>
		<path class="st14" d="M451.2879028,484.2402039c-7.9179688-3.5482178-16.9941406-1.09021-22.7397461,5.25177
			c-3.1817627,3.5120239-5.1553955,7.9555054-5.3601074,12.7072754c-0.0830078,1.9302979,2.9169922,1.9263306,3,0
			c0.3077393-7.1436157,5.6276855-13.5872803,12.3375244-15.8223267c7.0061035-2.3337402,14.449585,0.6321411,18.7322998,6.4933472
			c2.4135742,3.3029785,3.7004395,7.2545166,3.4351807,11.3510742c-0.1248779,1.9276733,2.8756104,1.920105,3,0
			C464.2348022,495.8569641,458.8676147,487.6368713,451.2879028,484.2402039z"/>
		<path class="st14" d="M339.7754517,564.7427368c-3.2723389-2.2618408-7.0145264-3.6618652-10.8859863-4.2119751
			c0.6524658-0.2432861,1.1452637-0.8707275,0.8903809-1.7355347c-2.0354004-6.9058228-7.0863647-12.8658447-13.6914063-15.8034058
			c-6.7441406-2.9993286-14.5968628-2.7675171-21.1912231,0.4528809
			c-3.3634033-5.9486694-10.5101929-9.4329224-17.2861938-8.3146362
			c-7.3302612,1.2097778-12.9802856,7.7293091-13.7235718,14.9993286c-0.196167,1.9187622,2.8052368,1.9050903,3,0
			c0.6087036-5.9535522,5.5907593-11.2219238,11.5210571-12.1065063c6.0245361-0.8986206,12.0955811,2.744873,14.5466309,8.2127686
			c0.3341064,0.7454224,1.4088745,0.9049683,2.0522461,0.538147c5.984314-3.4121094,13.6010742-3.9465332,19.9050903-1.0385742
			c5.7640991,2.6588745,10.1810913,7.7727661,11.9744263,13.8574829c0.1017456,0.3452759,0.2857666,0.5982666,0.513916,0.7697754
			c-3.3935547-0.289917-6.8519897,0.0620728-10.1507568,1.0509033c-4.3041382,1.2901611-8.2539063,3.6159058-11.4203491,6.807312
			c-1.3612671,1.3720703,0.7590332,3.4944458,2.1213379,2.1213379c4.9752197-5.0145264,12.0638428-7.5390625,19.0912476-7.0289307
			c6.8948975,0.5005493,13.2600098,4.3492432,17.2121582,9.9797363c2.2099609,3.1486816,3.7424316,6.7935181,4.2294922,10.62323
			c0.2402344,1.8892212,3.2434082,1.913208,3,0C350.4979858,576.1626587,346.2067261,569.1881104,339.7754517,564.7427368z"/>
		<path class="st14" d="M457.286438,619.7963867c-3.2519531-2.5045776-8.036377-3.0693359-11.626709-1.1328125
			c-0.6384277-2.6570435-2.4631348-4.9759521-4.7769775-6.4957275c-3.3792725-2.2196655-7.6069336-2.3704834-11.3138428-0.9055176
			c-7.1102295,2.8101196-10.5964355,9.4636841-12.9698486,16.3052979c-2.1766357-4.3693237-6.309082-7.7727661-11.0236816-9.0656128
			c-6.5159912-1.7867432-13.2264404,0.9915771-17.2487793,6.2684937c-2.2302246,2.9258423-3.4991455,6.5020752-3.4669189,10.1908569
			c0.0169678,1.9294434,3.0170898,1.9341431,3,0c-0.0600586-6.8725586,5.6508789-13.5202026,12.6333008-13.9989624
			c7.0556641-0.4837646,13.5917969,5.0136719,14.6689453,11.9196167c0.2407227,1.5427856,2.5046387,1.3070679,2.8928223,0
			c2.0415039-6.8739624,4.4833984-14.6446533,11.2802734-18.2311401c2.809082-1.4822998,6.2268066-1.9395752,9.1207275-0.4296875
			c2.7615967,1.440918,4.7293701,4.1546021,4.4091797,7.3479614c-0.1293945,1.2908325,1.7318115,1.984375,2.5606689,1.0606689
			c2.6086426-2.9071655,7.380127-2.7147217,10.2680664-0.2862549c3.4550781,2.9053955,4.0361328,8.0111694,3.0043945,12.1540527
			c-0.4666748,1.8735962,2.4257813,2.6728516,2.8928223,0.7974854
			C462.9360962,629.8936768,461.928772,623.3718262,457.286438,619.7963867z"/>
		<path class="st14" d="M317.0280151,623.1704102c-5.9084473-1.7113647-11.8853149,1.1264038-16.5093994,4.8720703
			c-0.9351196-5.6332397-5.4361572-10.7081299-11.1711426-11.6525879
			c-5.5747681-0.9180908-11.2064819,1.8175659-14.182251,6.4587402c-2.8450928-4.7183228-7.7649536-8.5560913-13.4777832-7.9841309
			c-6.1371613,0.6144409-11.7830353,6.9298096-9.6936188,13.2190552c0.6057739,1.8233643,3.5039673,1.0419922,2.8928833-0.7974854
			c-1.527771-4.5986328,2.9216461-9.3551636,7.4793243-9.4649658c5.2075195-0.1253662,9.5563354,4.1772461,11.3682861,8.7494507
			c0.5410767,1.3652954,2.387085,1.4735718,2.8928223,0c1.6661377-4.8540039,7.1693115-8.1901245,12.2572021-7.2280884
			c5.4460449,1.0297852,9.2449951,6.4714966,8.7823486,11.895874c-0.1149902,1.3485107,1.6890259,1.9072876,2.5606689,1.0606689
			c3.8942871-3.7824097,9.5961304-7.6525269,15.3364868-6.4060059c4.513855,0.9801636,8.7337036,5.722168,6.9641724,10.4709473
			c-0.6749878,1.8114624,2.2235718,2.5935669,2.8928223,0.7975464
			C327.6687622,631.1290283,322.7269287,624.8210449,317.0280151,623.1704102z"/>
		<path class="st14" d="M254.7164764,454.7291565c1.886673,0.3588867,2.6949615-2.5319214,0.7974854-2.8928223
			c-7.118103-1.3539429-14.0980225,2.5691528-17.9276733,8.4874878c-2.0980835,3.2423096-3.3042603,7.0234985-3.8724976,10.822937
			c-0.5209351,3.4828491-0.8210449,7.2426147-0.1018066,10.7196655c0.68396,3.3065186,2.5967407,6.4024658,6.206543,6.7601318
			c1.9197388,0.1902466,1.9065552-2.8110962,0-3c-2.9256592-0.289856-3.5137329-4.7363281-3.5728149-6.9854736
			c-0.105835-4.0285034,0.3092041-8.1204834,1.6013184-11.9522095
			C240.1818695,459.7652283,246.8560638,453.2341003,254.7164764,454.7291565z"/>
	</g>
</g>
</svg>
