<?xml version="1.0" encoding="iso-8859-1"?>
<!-- Generator: Adobe Illustrator 18.0.0, SVG Export Plug-In . SVG Version: 6.00 Build 0)  -->
<!DOCTYPE svg PUBLIC "-//W3C//DTD SVG 1.1//EN" "http://www.w3.org/Graphics/SVG/1.1/DTD/svg11.dtd" [
	<!ENTITY ns_flows "http://ns.adobe.com/Flows/1.0/">
	<!ENTITY ns_extend "http://ns.adobe.com/Extensibility/1.0/">
	<!ENTITY ns_ai "http://ns.adobe.com/AdobeIllustrator/10.0/">
	<!ENTITY ns_graphs "http://ns.adobe.com/Graphs/1.0/">
]>
<svg version="1.1" id="Layer_1" xmlns:x="&ns_extend;" xmlns:i="&ns_ai;" xmlns:graph="&ns_graphs;"
	 xmlns="http://www.w3.org/2000/svg" xmlns:xlink="http://www.w3.org/1999/xlink" xmlns:a="http://ns.adobe.com/AdobeSVGViewerExtensions/3.0/"
	 x="0px" y="0px" viewBox="0 0 715.46 715.46" style="enable-background:new 0 0 715.46 715.46;" xml:space="preserve">
<g>
	<path style="fill:#ACDAC2;" d="M452.151,328.31c-0.23-3.82-0.78-7.73-2.69-10.98c-0.97,3.12-3.88,5.38-7.33,5.38
		c-4.25,0-7.69-3.44-7.69-7.68c0-1.92,0.7-3.67,1.87-5.02c-12.16-1.41-21.93,5.13-22.84,18.76c-0.67,10.06,7.34,14.81,11.89,16.69
		c1.71,0.7,3.53,1.11,5.38,1.18C448.331,347.35,452.591,335.9,452.151,328.31z M452.151,328.31c-0.23-3.82-0.78-7.73-2.69-10.98
		c-0.97,3.12-3.88,5.38-7.33,5.38c-4.25,0-7.69-3.44-7.69-7.68c0-1.92,0.7-3.67,1.87-5.02c-12.16-1.41-21.93,5.13-22.84,18.76
		c-0.67,10.06,7.34,14.81,11.89,16.69c1.71,0.7,3.53,1.11,5.38,1.18C448.331,347.35,452.591,335.9,452.151,328.31z M452.151,328.31
		c-0.23-3.82-0.78-7.73-2.69-10.98c-0.97,3.12-3.88,5.38-7.33,5.38c-4.25,0-7.69-3.44-7.69-7.68c0-1.92,0.7-3.67,1.87-5.02
		c-12.16-1.41-21.93,5.13-22.84,18.76c-0.67,10.06,7.34,14.81,11.89,16.69c1.71,0.7,3.53,1.11,5.38,1.18
		C448.331,347.35,452.591,335.9,452.151,328.31z M452.151,328.31c-0.23-3.82-0.78-7.73-2.69-10.98c-0.97,3.12-3.88,5.38-7.33,5.38
		c-4.25,0-7.69-3.44-7.69-7.68c0-1.92,0.7-3.67,1.87-5.02c-12.16-1.41-21.93,5.13-22.84,18.76c-0.67,10.06,7.34,14.81,11.89,16.69
		c1.71,0.7,3.53,1.11,5.38,1.18C448.331,347.35,452.591,335.9,452.151,328.31z M452.151,328.31c-0.23-3.82-0.78-7.73-2.69-10.98
		c-0.97,3.12-3.88,5.38-7.33,5.38c-4.25,0-7.69-3.44-7.69-7.68c0-1.92,0.7-3.67,1.87-5.02c-12.16-1.41-21.93,5.13-22.84,18.76
		c-0.67,10.06,7.34,14.81,11.89,16.69c1.71,0.7,3.53,1.11,5.38,1.18C448.331,347.35,452.591,335.9,452.151,328.31z M452.151,328.31
		c-0.23-3.82-0.78-7.73-2.69-10.98c-0.97,3.12-3.88,5.38-7.33,5.38c-4.25,0-7.69-3.44-7.69-7.68c0-1.92,0.7-3.67,1.87-5.02
		c-12.16-1.41-21.93,5.13-22.84,18.76c-0.67,10.06,7.34,14.81,11.89,16.69c1.71,0.7,3.53,1.11,5.38,1.18
		C448.331,347.35,452.591,335.9,452.151,328.31z M452.151,328.31c-0.23-3.82-0.78-7.73-2.69-10.98c-0.97,3.12-3.88,5.38-7.33,5.38
		c-4.25,0-7.69-3.44-7.69-7.68c0-1.92,0.7-3.67,1.87-5.02c-12.16-1.41-21.93,5.13-22.84,18.76c-0.67,10.06,7.34,14.81,11.89,16.69
		c1.71,0.7,3.53,1.11,5.38,1.18C448.331,347.35,452.591,335.9,452.151,328.31z M452.151,328.31c-0.23-3.82-0.78-7.73-2.69-10.98
		c-0.97,3.12-3.88,5.38-7.33,5.38c-4.25,0-7.69-3.44-7.69-7.68c0-1.92,0.7-3.67,1.87-5.02c-12.16-1.41-21.93,5.13-22.84,18.76
		c-0.67,10.06,7.34,14.81,11.89,16.69c1.71,0.7,3.53,1.11,5.38,1.18C448.331,347.35,452.591,335.9,452.151,328.31z M452.151,328.31
		c-0.23-3.82-0.78-7.73-2.69-10.98c-0.97,3.12-3.88,5.38-7.33,5.38c-4.25,0-7.69-3.44-7.69-7.68c0-1.92,0.7-3.67,1.87-5.02
		c-12.16-1.41-21.93,5.13-22.84,18.76c-0.67,10.06,7.34,14.81,11.89,16.69c1.71,0.7,3.53,1.11,5.38,1.18
		C448.331,347.35,452.591,335.9,452.151,328.31z M452.151,328.31c-0.23-3.82-0.78-7.73-2.69-10.98c-0.97,3.12-3.88,5.38-7.33,5.38
		c-4.25,0-7.69-3.44-7.69-7.68c0-1.92,0.7-3.67,1.87-5.02c-12.16-1.41-21.93,5.13-22.84,18.76c-0.67,10.06,7.34,14.81,11.89,16.69
		c1.71,0.7,3.53,1.11,5.38,1.18C448.331,347.35,452.591,335.9,452.151,328.31z M452.151,328.31c-0.23-3.82-0.78-7.73-2.69-10.98
		c-0.97,3.12-3.88,5.38-7.33,5.38c-4.25,0-7.69-3.44-7.69-7.68c0-1.92,0.7-3.67,1.87-5.02c-12.16-1.41-21.93,5.13-22.84,18.76
		c-0.67,10.06,7.34,14.81,11.89,16.69c1.71,0.7,3.53,1.11,5.38,1.18C448.331,347.35,452.591,335.9,452.151,328.31z M452.151,328.31
		c-0.23-3.82-0.78-7.73-2.69-10.98c-0.97,3.12-3.88,5.38-7.33,5.38c-4.25,0-7.69-3.44-7.69-7.68c0-1.92,0.7-3.67,1.87-5.02
		c-12.16-1.41-21.93,5.13-22.84,18.76c-0.67,10.06,7.34,14.81,11.89,16.69c1.71,0.7,3.53,1.11,5.38,1.18
		C448.331,347.35,452.591,335.9,452.151,328.31z M452.151,328.31c-0.23-3.82-0.78-7.73-2.69-10.98c-0.97,3.12-3.88,5.38-7.33,5.38
		c-4.25,0-7.69-3.44-7.69-7.68c0-1.92,0.7-3.67,1.87-5.02c-12.16-1.41-21.93,5.13-22.84,18.76c-0.67,10.06,7.34,14.81,11.89,16.69
		c1.71,0.7,3.53,1.11,5.38,1.18C448.331,347.35,452.591,335.9,452.151,328.31z M452.151,328.31c-0.23-3.82-0.78-7.73-2.69-10.98
		c-0.97,3.12-3.88,5.38-7.33,5.38c-4.25,0-7.69-3.44-7.69-7.68c0-1.92,0.7-3.67,1.87-5.02c-12.16-1.41-21.93,5.13-22.84,18.76
		c-0.67,10.06,7.34,14.81,11.89,16.69c1.71,0.7,3.53,1.11,5.38,1.18C448.331,347.35,452.591,335.9,452.151,328.31z M452.151,328.31
		c-0.23-3.82-0.78-7.73-2.69-10.98c-0.97,3.12-3.88,5.38-7.33,5.38c-4.25,0-7.69-3.44-7.69-7.68c0-1.92,0.7-3.67,1.87-5.02
		c-12.16-1.41-21.93,5.13-22.84,18.76c-0.67,10.06,7.34,14.81,11.89,16.69c1.71,0.7,3.53,1.11,5.38,1.18
		C448.331,347.35,452.591,335.9,452.151,328.31z M452.151,328.31c-0.23-3.82-0.78-7.73-2.69-10.98c-0.97,3.12-3.88,5.38-7.33,5.38
		c-4.25,0-7.69-3.44-7.69-7.68c0-1.92,0.7-3.67,1.87-5.02c-12.16-1.41-21.93,5.13-22.84,18.76c-0.67,10.06,7.34,14.81,11.89,16.69
		c1.71,0.7,3.53,1.11,5.38,1.18C448.331,347.35,452.591,335.9,452.151,328.31z M452.151,328.31c-0.23-3.82-0.78-7.73-2.69-10.98
		c-0.97,3.12-3.88,5.38-7.33,5.38c-4.25,0-7.69-3.44-7.69-7.68c0-1.92,0.7-3.67,1.87-5.02c-12.16-1.41-21.93,5.13-22.84,18.76
		c-0.67,10.06,7.34,14.81,11.89,16.69c1.71,0.7,3.53,1.11,5.38,1.18C448.331,347.35,452.591,335.9,452.151,328.31z M452.151,328.31
		c-0.23-3.82-0.78-7.73-2.69-10.98c-0.97,3.12-3.88,5.38-7.33,5.38c-4.25,0-7.69-3.44-7.69-7.68c0-1.92,0.7-3.67,1.87-5.02
		c-12.16-1.41-21.93,5.13-22.84,18.76c-0.67,10.06,7.34,14.81,11.89,16.69c1.71,0.7,3.53,1.11,5.38,1.18
		C448.331,347.35,452.591,335.9,452.151,328.31z M452.151,328.31c-0.23-3.82-0.78-7.73-2.69-10.98c-0.97,3.12-3.88,5.38-7.33,5.38
		c-4.25,0-7.69-3.44-7.69-7.68c0-1.92,0.7-3.67,1.87-5.02c-12.16-1.41-21.93,5.13-22.84,18.76c-0.67,10.06,7.34,14.81,11.89,16.69
		c1.71,0.7,3.53,1.11,5.38,1.18C448.331,347.35,452.591,335.9,452.151,328.31z M452.151,328.31c-0.23-3.82-0.78-7.73-2.69-10.98
		c-0.97,3.12-3.88,5.38-7.33,5.38c-4.25,0-7.69-3.44-7.69-7.68c0-1.92,0.7-3.67,1.87-5.02c-12.16-1.41-21.93,5.13-22.84,18.76
		c-0.67,10.06,7.34,14.81,11.89,16.69c1.71,0.7,3.53,1.11,5.38,1.18C448.331,347.35,452.591,335.9,452.151,328.31z M452.151,328.31
		c-0.23-3.82-0.78-7.73-2.69-10.98c-0.97,3.12-3.88,5.38-7.33,5.38c-4.25,0-7.69-3.44-7.69-7.68c0-1.92,0.7-3.67,1.87-5.02
		c-12.16-1.41-21.93,5.13-22.84,18.76c-0.67,10.06,7.34,14.81,11.89,16.69c1.71,0.7,3.53,1.11,5.38,1.18
		C448.331,347.35,452.591,335.9,452.151,328.31z M452.151,328.31c-0.23-3.82-0.78-7.73-2.69-10.98c-0.97,3.12-3.88,5.38-7.33,5.38
		c-4.25,0-7.69-3.44-7.69-7.68c0-1.92,0.7-3.67,1.87-5.02c-12.16-1.41-21.93,5.13-22.84,18.76c-0.67,10.06,7.34,14.81,11.89,16.69
		c1.71,0.7,3.53,1.11,5.38,1.18C448.331,347.35,452.591,335.9,452.151,328.31z M452.151,328.31c-0.23-3.82-0.78-7.73-2.69-10.98
		c-0.97,3.12-3.88,5.38-7.33,5.38c-4.25,0-7.69-3.44-7.69-7.68c0-1.92,0.7-3.67,1.87-5.02c-12.16-1.41-21.93,5.13-22.84,18.76
		c-0.67,10.06,7.34,14.81,11.89,16.69c1.71,0.7,3.53,1.11,5.38,1.18C448.331,347.35,452.591,335.9,452.151,328.31z M307.841,315.94
		c-9.8-19.59-22.36-23.61-35.17-19.09c-12.8,4.53-22.85,20.1-25.11,33.66c-0.85,5.1,3.14,10.34,6.45,13.7
		c2.22,2.25,7.55,6.24,10.38,7.65c8.03,4.02,15.07,5.27,24.61,5.78c10.33,0.54,14.32,1.5,18.84-1.51
		C312.361,353.11,317.631,335.53,307.841,315.94z M266.091,316.09c0-4.02,3.26-7.28,7.28-7.28c2.2,0,4.17,0.98,5.51,2.52
		c1.1,1.28,1.77,2.94,1.77,4.76c0,4.02-3.26,7.28-7.28,7.28c-3.26,0-6.02-2.14-6.94-5.1
		C266.211,317.58,266.091,316.85,266.091,316.09z M306.141,217.73v0.03c0.02-0.12,0.05-0.23,0.07-0.34
		C306.191,217.52,306.171,217.62,306.141,217.73z M305.381,220.73c0.01-0.05,0.03-0.11,0.05-0.17l-0.01,0.01
		C305.411,220.63,305.401,220.68,305.381,220.73z M304.931,222.32c0.02-0.08,0.04-0.16,0.07-0.24c0.01-0.05,0.02-0.1,0.04-0.14
		c-0.02,0.05-0.03,0.1-0.05,0.14C304.971,222.16,304.951,222.24,304.931,222.32z M304.721,223.02c0.01-0.01,0.01-0.03,0.02-0.05
		c0.05-0.2,0.11-0.4,0.17-0.6l-0.18,0.6C304.731,222.99,304.721,223,304.721,223.02z M268.981,237.72c0.01-0.02,0.03-0.04,0.04-0.05
		c0.02-0.03,0.04-0.06,0.05-0.09c-0.01,0.01-0.02,0.03-0.03,0.04C269.021,237.65,269.001,237.68,268.981,237.72z M267.901,239.36
		c0.04-0.06,0.07-0.11,0.1-0.17c-0.07,0.12-0.15,0.24-0.23,0.36C267.811,239.48,267.861,239.42,267.901,239.36z M265.871,242.47
		c0.09-0.14,0.18-0.28,0.27-0.41c0.02-0.05,0.05-0.09,0.07-0.13c-0.02,0.04-0.05,0.09-0.08,0.13
		C266.051,242.19,265.961,242.33,265.871,242.47z M265.201,243.52c0.08-0.12,0.15-0.24,0.23-0.35h-0.01
		C265.351,243.28,265.271,243.4,265.201,243.52z M314.531,235.83c0.01-0.05,0.02-0.09,0.03-0.14c0.02-0.1,0.03-0.19,0.04-0.29
		C314.581,235.54,314.561,235.68,314.531,235.83z M316.201,223.98c-0.02,0.23-0.05,0.46-0.08,0.69c0.03-0.21,0.05-0.42,0.08-0.62
		c0.02-0.17,0.04-0.35,0.06-0.52C316.241,223.68,316.221,223.83,316.201,223.98z M316.451,221.86c0,0.02,0,0.05-0.01,0.07
		c-0.02,0.16-0.03,0.33-0.05,0.49c0.02-0.16,0.04-0.33,0.06-0.49c0.02-0.2,0.04-0.4,0.06-0.59
		C316.491,221.52,316.471,221.69,316.451,221.86z M316.831,218.3c-0.01,0.12-0.02,0.24-0.03,0.36c0.02-0.18,0.04-0.34,0.05-0.51
		C316.851,218.2,316.841,218.25,316.831,218.3z M316.991,216.72c-0.02,0.21-0.04,0.42-0.06,0.64c0.02-0.23,0.05-0.45,0.07-0.67
		c0-0.08,0.01-0.16,0.02-0.23C317.011,216.54,317.001,216.63,316.991,216.72z M317.141,215.15c-0.01,0.06-0.01,0.13-0.02,0.19v0.05
		c0.01-0.02,0.01-0.03,0.01-0.05c0-0.07,0.01-0.14,0.02-0.21C317.151,215.13,317.141,215.14,317.141,215.15z M317.161,214.93
		c0,0.04-0.01,0.09-0.01,0.13c0.01-0.1,0.02-0.18,0.03-0.28c0.03-0.37,0.06-0.71,0.09-1.04
		C317.231,214.12,317.201,214.51,317.161,214.93z M317.521,210.65c0.01-0.06,0.01-0.11,0.02-0.17v-0.07
		C317.541,210.49,317.531,210.57,317.521,210.65z M346.701,227.34c-0.03,0.33-0.05,0.67-0.08,1.01c-0.03,0.5-0.07,0.99-0.1,1.49
		c0.05-0.8,0.11-1.6,0.18-2.4c0-0.06,0-0.12,0.01-0.17C346.711,227.3,346.701,227.32,346.701,227.34z M350.581,196.11
		c0.01-0.01,0.01-0.01,0.01-0.02v-0.04C350.591,196.07,350.591,196.09,350.581,196.11z M398.961,225.79h-0.01
		c0.01,0.18,0.02,0.36,0.04,0.54L398.961,225.79z M398.901,224.9c-0.01-0.02-0.01-0.04-0.01-0.06c0.01,0.24,0.03,0.48,0.05,0.72
		C398.931,225.34,398.911,225.12,398.901,224.9z M398.731,222.15c-0.01-0.02-0.01-0.03-0.01-0.05c0.01,0.15,0.02,0.3,0.03,0.45
		C398.741,222.41,398.741,222.28,398.731,222.15z M398.661,220.84l-0.01-0.06c0.01,0.23,0.02,0.47,0.04,0.71
		C398.681,221.27,398.671,221.06,398.661,220.84z M398.601,219.68c-0.01-0.04-0.01-0.09-0.01-0.13v0.09
		c0.01,0.13,0.01,0.26,0.02,0.39C398.611,219.91,398.601,219.79,398.601,219.68z M398.551,218.87l0.01,0.01v-0.01H398.551z
		 M398.511,217.97c0,0.04,0,0.07,0.01,0.11v-0.1C398.521,217.98,398.511,217.98,398.511,217.97z M398.351,213.8
		c0.01,0.23,0.02,0.47,0.02,0.72c0,0.03,0,0.05,0.01,0.07C398.371,214.31,398.361,214.05,398.351,213.8z M362.571,227.57
		c0,0.01,0.01,0.01,0.01,0.01c0-0.01,0-0.01,0-0.02C362.581,227.56,362.571,227.56,362.571,227.57z M362.571,227.55
		c0,0.01,0.01,0.01,0.01,0.01v-0.51C362.581,227.21,362.581,227.38,362.571,227.55z M407.861,354.04c1.04,0.8,2.25,1.29,3.51,1.48
		C410.091,355.2,408.931,354.83,407.861,354.04z M452.151,328.31c-0.23-3.82-0.78-7.73-2.69-10.98c-0.97,3.12-3.88,5.38-7.33,5.38
		c-4.25,0-7.69-3.44-7.69-7.68c0-1.92,0.7-3.67,1.87-5.02c-12.16-1.41-21.93,5.13-22.84,18.76c-0.67,10.06,7.34,14.81,11.89,16.69
		c1.71,0.7,3.53,1.11,5.38,1.18C448.331,347.35,452.591,335.9,452.151,328.31z M407.371,213.99c-0.01-0.01-0.01-0.01-0.01-0.01
		c0.01,0.05,0.03,0.1,0.04,0.16C407.391,214.09,407.381,214.03,407.371,213.99z M407.411,214.18c0.01,0.03,0.02,0.06,0.02,0.1
		c0,0.01,0,0.01,0.01,0.02c0-0.01,0-0.01,0-0.02C407.431,214.25,407.421,214.21,407.411,214.18z M407.461,214.38
		c0,0.02,0.01,0.04,0.01,0.06l0.01,0.01v-0.01C407.471,214.42,407.461,214.4,407.461,214.38z M407.511,214.59
		c0,0.02,0.01,0.04,0.01,0.06h0.01C407.521,214.63,407.521,214.61,407.511,214.59z M408.101,217.13c0.01,0.04,0.02,0.08,0.02,0.12
		c0,0,0,0,0.01,0C408.121,217.21,408.111,217.17,408.101,217.13z M408.351,218.23c0.01,0.07,0.03,0.13,0.04,0.2h0.01
		C408.381,218.36,408.371,218.3,408.351,218.23z M409.221,222.22c-0.02-0.09-0.04-0.18-0.06-0.26c0.02,0.1,0.04,0.2,0.06,0.3
		c0.04,0.16,0.07,0.33,0.11,0.49C409.291,222.57,409.261,222.4,409.221,222.22z M410.751,229.88c0.04,0.24,0.09,0.49,0.13,0.74
		c0.02,0.08,0.03,0.15,0.05,0.23C410.871,230.53,410.811,230.2,410.751,229.88z M440.071,229.29l-0.02-0.01
		c0.07,0.08,0.15,0.16,0.22,0.25C440.201,229.45,440.131,229.37,440.071,229.29z M444.071,234.39c-0.02-0.02-0.04-0.05-0.06-0.07
		c0.02,0.02,0.03,0.05,0.05,0.07c0.05,0.06,0.1,0.13,0.15,0.2C444.161,234.52,444.111,234.45,444.071,234.39z M447.071,238.55
		c0.02,0.05,0.06,0.11,0.1,0.16c0.11,0.14,0.21,0.29,0.31,0.44C447.341,238.95,447.211,238.75,447.071,238.55z M448.411,240.48
		c-0.07-0.1-0.14-0.19-0.2-0.28c0.07,0.1,0.14,0.2,0.2,0.3c0.05,0.07,0.1,0.14,0.15,0.21
		C448.511,240.63,448.461,240.56,448.411,240.48z M451.971,245.79c0.09,0.16,0.19,0.3,0.29,0.46c0.22,0.33,0.43,0.66,0.65,1
		C452.591,246.75,452.281,246.27,451.971,245.79z M452.151,328.31c-0.23-3.82-0.78-7.73-2.69-10.98c-0.97,3.12-3.88,5.38-7.33,5.38
		c-4.25,0-7.69-3.44-7.69-7.68c0-1.92,0.7-3.67,1.87-5.02c-12.16-1.41-21.93,5.13-22.84,18.76c-0.67,10.06,7.34,14.81,11.89,16.69
		c1.71,0.7,3.53,1.11,5.38,1.18C448.331,347.35,452.591,335.9,452.151,328.31z M452.151,328.31c-0.23-3.82-0.78-7.73-2.69-10.98
		c-0.97,3.12-3.88,5.38-7.33,5.38c-4.25,0-7.69-3.44-7.69-7.68c0-1.92,0.7-3.67,1.87-5.02c-12.16-1.41-21.93,5.13-22.84,18.76
		c-0.67,10.06,7.34,14.81,11.89,16.69c1.71,0.7,3.53,1.11,5.38,1.18C448.331,347.35,452.591,335.9,452.151,328.31z M452.151,328.31
		c-0.23-3.82-0.78-7.73-2.69-10.98c-0.97,3.12-3.88,5.38-7.33,5.38c-4.25,0-7.69-3.44-7.69-7.68c0-1.92,0.7-3.67,1.87-5.02
		c-12.16-1.41-21.93,5.13-22.84,18.76c-0.67,10.06,7.34,14.81,11.89,16.69c1.71,0.7,3.53,1.11,5.38,1.18
		C448.331,347.35,452.591,335.9,452.151,328.31z M452.151,328.31c-0.23-3.82-0.78-7.73-2.69-10.98c-0.97,3.12-3.88,5.38-7.33,5.38
		c-4.25,0-7.69-3.44-7.69-7.68c0-1.92,0.7-3.67,1.87-5.02c-12.16-1.41-21.93,5.13-22.84,18.76c-0.67,10.06,7.34,14.81,11.89,16.69
		c1.71,0.7,3.53,1.11,5.38,1.18C448.331,347.35,452.591,335.9,452.151,328.31z M452.151,328.31c-0.23-3.82-0.78-7.73-2.69-10.98
		c-0.97,3.12-3.88,5.38-7.33,5.38c-4.25,0-7.69-3.44-7.69-7.68c0-1.92,0.7-3.67,1.87-5.02c-12.16-1.41-21.93,5.13-22.84,18.76
		c-0.67,10.06,7.34,14.81,11.89,16.69c1.71,0.7,3.53,1.11,5.38,1.18C448.331,347.35,452.591,335.9,452.151,328.31z M452.151,328.31
		c-0.23-3.82-0.78-7.73-2.69-10.98c-0.97,3.12-3.88,5.38-7.33,5.38c-4.25,0-7.69-3.44-7.69-7.68c0-1.92,0.7-3.67,1.87-5.02
		c-12.16-1.41-21.93,5.13-22.84,18.76c-0.67,10.06,7.34,14.81,11.89,16.69c1.71,0.7,3.53,1.11,5.38,1.18
		C448.331,347.35,452.591,335.9,452.151,328.31z M452.151,328.31c-0.23-3.82-0.78-7.73-2.69-10.98c-0.97,3.12-3.88,5.38-7.33,5.38
		c-4.25,0-7.69-3.44-7.69-7.68c0-1.92,0.7-3.67,1.87-5.02c-12.16-1.41-21.93,5.13-22.84,18.76c-0.67,10.06,7.34,14.81,11.89,16.69
		c1.71,0.7,3.53,1.11,5.38,1.18C448.331,347.35,452.591,335.9,452.151,328.31z M452.151,328.31c-0.23-3.82-0.78-7.73-2.69-10.98
		c-0.97,3.12-3.88,5.38-7.33,5.38c-4.25,0-7.69-3.44-7.69-7.68c0-1.92,0.7-3.67,1.87-5.02c-12.16-1.41-21.93,5.13-22.84,18.76
		c-0.67,10.06,7.34,14.81,11.89,16.69c1.71,0.7,3.53,1.11,5.38,1.18C448.331,347.35,452.591,335.9,452.151,328.31z M452.151,328.31
		c-0.23-3.82-0.78-7.73-2.69-10.98c-0.97,3.12-3.88,5.38-7.33,5.38c-4.25,0-7.69-3.44-7.69-7.68c0-1.92,0.7-3.67,1.87-5.02
		c-12.16-1.41-21.93,5.13-22.84,18.76c-0.67,10.06,7.34,14.81,11.89,16.69c1.71,0.7,3.53,1.11,5.38,1.18
		C448.331,347.35,452.591,335.9,452.151,328.31z M452.151,328.31c-0.23-3.82-0.78-7.73-2.69-10.98c-0.97,3.12-3.88,5.38-7.33,5.38
		c-4.25,0-7.69-3.44-7.69-7.68c0-1.92,0.7-3.67,1.87-5.02c-12.16-1.41-21.93,5.13-22.84,18.76c-0.67,10.06,7.34,14.81,11.89,16.69
		c1.71,0.7,3.53,1.11,5.38,1.18C448.331,347.35,452.591,335.9,452.151,328.31z M452.151,328.31c-0.23-3.82-0.78-7.73-2.69-10.98
		c-0.97,3.12-3.88,5.38-7.33,5.38c-4.25,0-7.69-3.44-7.69-7.68c0-1.92,0.7-3.67,1.87-5.02c-12.16-1.41-21.93,5.13-22.84,18.76
		c-0.67,10.06,7.34,14.81,11.89,16.69c1.71,0.7,3.53,1.11,5.38,1.18C448.331,347.35,452.591,335.9,452.151,328.31z M452.151,328.31
		c-0.23-3.82-0.78-7.73-2.69-10.98c-0.97,3.12-3.88,5.38-7.33,5.38c-4.25,0-7.69-3.44-7.69-7.68c0-1.92,0.7-3.67,1.87-5.02
		c-12.16-1.41-21.93,5.13-22.84,18.76c-0.67,10.06,7.34,14.81,11.89,16.69c1.71,0.7,3.53,1.11,5.38,1.18
		C448.331,347.35,452.591,335.9,452.151,328.31z M452.151,328.31c-0.23-3.82-0.78-7.73-2.69-10.98c-0.97,3.12-3.88,5.38-7.33,5.38
		c-4.25,0-7.69-3.44-7.69-7.68c0-1.92,0.7-3.67,1.87-5.02c-12.16-1.41-21.93,5.13-22.84,18.76c-0.67,10.06,7.34,14.81,11.89,16.69
		c1.71,0.7,3.53,1.11,5.38,1.18C448.331,347.35,452.591,335.9,452.151,328.31z M452.151,328.31c-0.23-3.82-0.78-7.73-2.69-10.98
		c-0.97,3.12-3.88,5.38-7.33,5.38c-4.25,0-7.69-3.44-7.69-7.68c0-1.92,0.7-3.67,1.87-5.02c-12.16-1.41-21.93,5.13-22.84,18.76
		c-0.67,10.06,7.34,14.81,11.89,16.69c1.71,0.7,3.53,1.11,5.38,1.18C448.331,347.35,452.591,335.9,452.151,328.31z M452.151,328.31
		c-0.23-3.82-0.78-7.73-2.69-10.98c-0.97,3.12-3.88,5.38-7.33,5.38c-4.25,0-7.69-3.44-7.69-7.68c0-1.92,0.7-3.67,1.87-5.02
		c-12.16-1.41-21.93,5.13-22.84,18.76c-0.67,10.06,7.34,14.81,11.89,16.69c1.71,0.7,3.53,1.11,5.38,1.18
		C448.331,347.35,452.591,335.9,452.151,328.31z M452.151,328.31c-0.23-3.82-0.78-7.73-2.69-10.98c-0.97,3.12-3.88,5.38-7.33,5.38
		c-4.25,0-7.69-3.44-7.69-7.68c0-1.92,0.7-3.67,1.87-5.02c-12.16-1.41-21.93,5.13-22.84,18.76c-0.67,10.06,7.34,14.81,11.89,16.69
		c1.71,0.7,3.53,1.11,5.38,1.18C448.331,347.35,452.591,335.9,452.151,328.31z M452.151,328.31c-0.23-3.82-0.78-7.73-2.69-10.98
		c-0.97,3.12-3.88,5.38-7.33,5.38c-4.25,0-7.69-3.44-7.69-7.68c0-1.92,0.7-3.67,1.87-5.02c-12.16-1.41-21.93,5.13-22.84,18.76
		c-0.67,10.06,7.34,14.81,11.89,16.69c1.71,0.7,3.53,1.11,5.38,1.18C448.331,347.35,452.591,335.9,452.151,328.31z M452.151,328.31
		c-0.23-3.82-0.78-7.73-2.69-10.98c-0.97,3.12-3.88,5.38-7.33,5.38c-4.25,0-7.69-3.44-7.69-7.68c0-1.92,0.7-3.67,1.87-5.02
		c-12.16-1.41-21.93,5.13-22.84,18.76c-0.67,10.06,7.34,14.81,11.89,16.69c1.71,0.7,3.53,1.11,5.38,1.18
		C448.331,347.35,452.591,335.9,452.151,328.31z M452.151,328.31c-0.23-3.82-0.78-7.73-2.69-10.98c-0.97,3.12-3.88,5.38-7.33,5.38
		c-4.25,0-7.69-3.44-7.69-7.68c0-1.92,0.7-3.67,1.87-5.02c-12.16-1.41-21.93,5.13-22.84,18.76c-0.67,10.06,7.34,14.81,11.89,16.69
		c1.71,0.7,3.53,1.11,5.38,1.18C448.331,347.35,452.591,335.9,452.151,328.31z M452.151,328.31c-0.23-3.82-0.78-7.73-2.69-10.98
		c-0.97,3.12-3.88,5.38-7.33,5.38c-4.25,0-7.69-3.44-7.69-7.68c0-1.92,0.7-3.67,1.87-5.02c-12.16-1.41-21.93,5.13-22.84,18.76
		c-0.67,10.06,7.34,14.81,11.89,16.69c1.71,0.7,3.53,1.11,5.38,1.18C448.331,347.35,452.591,335.9,452.151,328.31z M452.151,328.31
		c-0.23-3.82-0.78-7.73-2.69-10.98c-0.97,3.12-3.88,5.38-7.33,5.38c-4.25,0-7.69-3.44-7.69-7.68c0-1.92,0.7-3.67,1.87-5.02
		c-12.16-1.41-21.93,5.13-22.84,18.76c-0.67,10.06,7.34,14.81,11.89,16.69c1.71,0.7,3.53,1.11,5.38,1.18
		C448.331,347.35,452.591,335.9,452.151,328.31z M431.911,413.41c0,0.01,0.01,0.01,0.01,0.03v-0.03H431.911z M309.941,540.86
		c0.03,0.01,0.06,0.02,0.09,0.03c0.1,0.03,0.2,0.05,0.3,0.07C310.201,540.93,310.071,540.9,309.941,540.86z M367.391,510.01
		c-0.08,0.01-0.16,0.01-0.24,0.02c0.41-0.02,0.81-0.04,1.22-0.07c0.06-0.01,0.12-0.01,0.18-0.02
		C368.161,509.97,367.781,509.99,367.391,510.01z M365.401,518.4c0.67,0.32,1.35,0.66,2.04,1.03
		C366.751,519.05,366.071,518.71,365.401,518.4z M407.721,561.19c-0.45,0-0.94,0.01-1.46,0.02c-0.32,0-0.66,0-1.01,0.01
		c-0.49,0-1.01,0-1.54,0.01c-1.09,0-2.26,0-3.49-0.01c-0.89,0-1.81-0.01-2.77-0.02c-0.2-0.01-0.39-0.01-0.59-0.01
		c-0.13,0-0.27-0.01-0.41-0.01c-2.06-0.03-4.23-0.09-6.46-0.18c-1.12-0.05-2.24-0.09-3.37-0.15c-0.12-0.01-0.24-0.01-0.36-0.02
		c-1.01-0.06-2.04-0.12-3.05-0.19c-1.38-0.09-2.77-0.2-4.13-0.33c-0.66-0.06-1.31-0.12-1.95-0.19c-0.62-0.06-1.23-0.13-1.84-0.2
		c-0.59-0.07-1.18-0.14-1.76-0.22c-0.59-0.08-1.17-0.16-1.74-0.25c-0.58-0.09-1.14-0.18-1.7-0.27c-0.05-0.01-0.11-0.02-0.17-0.03
		c-0.61-0.11-1.21-0.21-1.8-0.33c12.28,3.11,34.24,2.61,41.37,2.34C408.981,561.16,408.381,561.18,407.721,561.19z M342.251,543.39
		c-0.03,2.45,0.16,4.63,0.21,6.74C342.541,547.94,342.271,545.87,342.251,543.39z"/>
	<path style="fill:#ACDAC2;" d="M466.181,269.9c-3.43-0.06-7.17-1.84-10.28-7.2c-4.15-7.16-6.03-5.65-10.18-7.16
		c-4.14-1.51-1.88,4.9-8.66,4.52c-6.78-0.38-4.52-5.27-8.67-10.55c-4.14-5.27-5.65,3.39-11.3,3.77c-0.96,0.06-2.11-0.12-3.39-0.48
		c0.23,7.19-0.75,12.4-4.14,12.16c-4.08-0.29-6.69-8.59-8.37-18.65c-2.65-1.88-4.95-3.84-6.33-5.46c0,0-4.89-5.66-7.91-7.54
		c-3.01-1.88-3.76,7.54-8.29,8.29c-4.52,0.75,0-6.41-6.02-7.91c-5.88-1.47-4.24,8.5-11.12,11.45c-1.24,9.67-3.75,17.06-8.47,17.56
		c-5.25,0.56-6.95-8.42-7.01-20.01c-2.4-0.96-4.35-1.63-5.43-1.09c-3.01,1.51-1.88,6.78-7.53,5.27c-5.65-1.5-6.41-5.27-12.43-0.37
		c-2.13,1.73-5.53,3.03-9.17,3.88c-2.5,9.27-5.89,16.35-10.42,16.08c-4.81-0.28-5.16-6.94-3.76-15.35c-0.83-0.21-1.49-0.49-1.9-0.85
		c-3.01-2.63-8.66-3.01-12.43-1.5c-3.77,1.5-5.27,8.29-10.55,8.66c-5.27,0.38-4.52-5.27-10.55-0.75c-1.47,1.11-3.65,1.85-6.1,2.35
		c-13.04,22.45-30.47,57.08-28.56,79.03c3.02,34.66,76.86,51.99,76.86,51.99l3.01,0.5c0,0,56.77,8.41,107.75-2.01
		c74.6-7.54,72.34-33.91,72.34-33.91C492.411,328.8,479.951,295.86,466.181,269.9z M380.171,286.93c0,1.88-1.52,3.39-3.39,3.39
		s-3.39-1.51-3.39-3.39c0-1.87,1.52-3.39,3.39-3.39S380.171,285.06,380.171,286.93z M373.891,245.62c1.53,0,2.77,1.23,2.77,2.76
		c0,1.53-1.24,2.76-2.77,2.76c-1.52,0-2.76-1.23-2.76-2.76C371.131,246.85,372.371,245.62,373.891,245.62z M364.851,255.92
		c0.83,0,1.51,0.67,1.51,1.5c0,0.83-0.68,1.51-1.51,1.51s-1.51-0.68-1.51-1.51C363.341,256.59,364.021,255.92,364.851,255.92z
		 M363.591,263.2c2.92,0,5.28,2.36,5.28,5.27c0,2.92-2.36,5.28-5.28,5.28c-2.91,0-5.27-2.36-5.27-5.28
		C358.321,265.56,360.681,263.2,363.591,263.2z M346.641,273.5c1.18,0,2.14,0.95,2.14,2.13s-0.96,2.14-2.14,2.14
		c-1.18,0-2.13-0.96-2.13-2.14S345.461,273.5,346.641,273.5z M342.501,247.88c0.97,0,1.76,0.79,1.76,1.76
		c0,0.97-0.79,1.75-1.76,1.75c-0.97,0-1.76-0.78-1.76-1.75C340.741,248.67,341.531,247.88,342.501,247.88z M337.351,253.4
		c1.18,0,2.13,0.96,2.13,2.14c0,1.18-0.95,2.13-2.13,2.13s-2.14-0.95-2.14-2.13C335.211,254.36,336.171,253.4,337.351,253.4z
		 M325.921,248.88c0.97,0,1.76,0.79,1.76,1.76c0,0.97-0.79,1.76-1.76,1.76c-0.97,0-1.76-0.79-1.76-1.76
		C324.161,249.67,324.951,248.88,325.921,248.88z M309.851,276.76c1.38,0,2.51,1.13,2.51,2.51c0,1.39-1.13,2.51-2.51,2.51
		c-1.39,0-2.52-1.12-2.52-2.51C307.331,277.89,308.461,276.76,309.851,276.76z M296.281,271.24c0.97,0,1.76,0.78,1.76,1.75
		c0,0.98-0.79,1.76-1.76,1.76c-0.97,0-1.75-0.78-1.75-1.76C294.531,272.02,295.311,271.24,296.281,271.24z M289.001,256.17
		c2.64,0,4.77,2.13,4.77,4.77c0,2.63-2.13,4.77-4.77,4.77c-2.64,0-4.77-2.14-4.77-4.77C284.231,258.3,286.361,256.17,289.001,256.17
		z M282.091,270.48c2.15,0,3.9,1.75,3.9,3.9c0,2.15-1.75,3.89-3.9,3.89c-2.15,0-3.89-1.74-3.89-3.89
		C278.201,272.23,279.941,270.48,282.091,270.48z M274.311,259.93c0.76,0,1.38,0.62,1.38,1.39c0,0.76-0.62,1.38-1.38,1.38
		c-0.77,0-1.38-0.62-1.38-1.38C272.931,260.55,273.541,259.93,274.311,259.93z M267.271,269.73c1.04,0,1.89,0.84,1.89,1.88
		c0,1.04-0.85,1.89-1.89,1.89c-1.04,0-1.88-0.85-1.88-1.89C265.391,270.57,266.231,269.73,267.271,269.73z M263.761,262.7
		c1.18,0,2.13,0.95,2.13,2.13s-0.95,2.14-2.13,2.14c-1.18,0-2.14-0.96-2.14-2.14S262.581,262.7,263.761,262.7z M261.371,279.27
		c0.97,0,1.76,0.79,1.76,1.76c0,0.97-0.79,1.76-1.76,1.76c-0.97,0-1.76-0.79-1.76-1.76
		C259.611,280.06,260.401,279.27,261.371,279.27z M253.711,269.73c1.6,0,2.89,1.29,2.89,2.89c0,1.59-1.29,2.89-2.89,2.89
		c-1.59,0-2.89-1.3-2.89-2.89C250.821,271.02,252.121,269.73,253.711,269.73z M307.841,356.13c-4.52,3.01-8.51,2.05-18.84,1.51
		c-9.54-0.51-16.58-1.76-24.61-5.78c-2.83-1.41-8.16-5.4-10.38-7.65c-3.31-3.36-7.3-8.6-6.45-13.7
		c2.26-13.56,12.31-29.13,25.11-33.66c12.81-4.52,25.37-0.5,35.17,19.09C317.631,335.53,312.361,353.11,307.841,356.13z
		 M318.511,262.95c-1.87,0-3.39-1.52-3.39-3.39c0-1.88,1.52-3.39,3.39-3.39c1.87,0,3.39,1.51,3.39,3.39
		C321.901,261.43,320.381,262.95,318.511,262.95z M322.401,267.97c0-3.74,3.04-6.78,6.79-6.78c3.74,0,6.78,3.04,6.78,6.78
		c0,3.75-3.04,6.78-6.78,6.78C325.441,274.75,322.401,271.72,322.401,267.97z M378.251,351.51c0.14,2.39-0.43,5.02-2.1,5.62
		c-2.81,1.03-4.27-3.26-4.93-6.28h-0.09c-2.82-0.12-3.99,16.57-17.14,17.71c-7.28,0.63-8.08-10.42-10.57-13.65
		c-0.49,2.55-1.92,5.02-3.18,5.24c-2.05,0.34-3.8-2.66-4.13-5.45c-3.26,0.7-6.31,0.94-3.41-1.96c0,0,14.32-10.17,28.26-10.17
		s18.83,4.14,19.21,7.15C380.391,351.46,380.111,351.7,378.251,351.51z M379.171,262.19c-0.7,0-1.26-0.56-1.26-1.25
		c0-0.7,0.56-1.26,1.26-1.26c0.69,0,1.25,0.56,1.25,1.26C380.421,261.63,379.861,262.19,379.171,262.19z M453.381,266.97
		c1.18,0,2.14,0.95,2.14,2.13s-0.96,2.14-2.14,2.14c-1.17,0-2.13-0.96-2.13-2.14S452.211,266.97,453.381,266.97z M434.171,264.96
		c1.25,0,2.26,1.01,2.26,2.26s-1.01,2.26-2.26,2.26s-2.26-1.01-2.26-2.26S432.921,264.96,434.171,264.96z M422.871,260.44
		c2.77,0,5.02,2.25,5.02,5.02s-2.25,5.02-5.02,5.02c-2.78,0-5.02-2.25-5.02-5.02S420.091,260.44,422.871,260.44z M390.221,250.14
		c1.52,0,2.76,1.24,2.76,2.76c0,1.53-1.24,2.76-2.76,2.76c-1.53,0-2.76-1.23-2.76-2.76
		C387.461,251.38,388.691,250.14,390.221,250.14z M393.231,278.02c-3.19,0-5.77-2.59-5.77-5.78c0-3.19,2.58-5.78,5.77-5.78
		s5.78,2.59,5.78,5.78C399.011,275.43,396.421,278.02,393.231,278.02z M463.051,345.58c-0.16,0.16-0.32,0.32-0.49,0.47
		c-6.63,6.43-13.66,8.87-27.64,11.08c-7.6,1.2-15.09,1.21-19.59-0.5c-1.42-0.53-2.74-0.8-3.96-1.11c-1.26-0.19-2.47-0.68-3.51-1.48
		c-0.48-0.36-0.95-0.8-1.39-1.36c-4.33-5.48-8.29-14.4-6.71-24.43c2.26-14.32,9.04-28.63,21.85-33.91
		c12.81-5.27,21.48-4.52,34.29,9.8C468.711,318.45,469.841,338.8,463.051,345.58z M465.061,285.3c-2.08,0-3.76-1.69-3.76-3.77
		s1.68-3.76,3.76-3.76c2.08,0,3.77,1.68,3.77,3.76S467.141,285.3,465.061,285.3z"/>
	<path style="fill:#ACDAC2;" d="M298.041,272.99c0,0.98-0.79,1.76-1.76,1.76c-0.97,0-1.75-0.78-1.75-1.76
		c0-0.97,0.78-1.75,1.75-1.75C297.251,271.24,298.041,272.02,298.041,272.99z"/>
	<path style="fill:#FEEA8A;" d="M430.741,346.64c-1.85-0.07-3.67-0.48-5.38-1.18c-4.55-1.88-12.56-6.63-11.89-16.69
		c0.91-13.63,10.68-20.17,22.84-18.76c-1.17,1.35-1.87,3.1-1.87,5.02c0,4.24,3.44,7.68,7.69,7.68c3.45,0,6.36-2.26,7.33-5.38
		c1.91,3.25,2.46,7.16,2.69,10.98C452.591,335.9,448.331,347.35,430.741,346.64z"/>
	<path style="fill:#FEEA8A;" d="M411.371,355.52c-1.26-0.19-2.47-0.68-3.51-1.48C408.931,354.83,410.091,355.2,411.371,355.52z"/>
	<path style="fill:#FEEA8A;" d="M430.741,346.64c-1.85-0.07-3.67-0.48-5.38-1.18c-4.55-1.88-12.56-6.63-11.89-16.69
		c0.91-13.63,10.68-20.17,22.84-18.76c-1.17,1.35-1.87,3.1-1.87,5.02c0,4.24,3.44,7.68,7.69,7.68c3.45,0,6.36-2.26,7.33-5.38
		c1.91,3.25,2.46,7.16,2.69,10.98C452.591,335.9,448.331,347.35,430.741,346.64z"/>
	<path style="fill:#FEEA8A;" d="M455.901,304.14c-12.81-14.32-21.48-15.07-34.29-9.8c-12.81,5.28-19.59,19.59-21.85,33.91
		c-1.58,10.03,2.38,18.95,6.71,24.43c0.44,0.56,0.91,1,1.39,1.36c1.07,0.79,2.23,1.16,3.51,1.48c1.22,0.31,2.54,0.58,3.96,1.11
		c4.5,1.71,11.99,1.7,19.59,0.5c13.98-2.21,21.01-4.65,27.64-11.08c0.17-0.15,0.33-0.31,0.49-0.47
		C469.841,338.8,468.711,318.45,455.901,304.14z M454.031,349.17c-4.2,3.52-10.2,5.8-17.88,6.79c0,0-9.97,1.16-18.58-1.91
		c-5.48-1.95-10.42-5.61-11.87-12.38c-3.73-17.4,4.97-37.91,22.99-40.39c18.02-2.49,27.96,5.59,31.69,23.61
		C462.621,335.73,460.371,343.87,454.031,349.17z"/>
	<path style="fill:#FEEA8A;" d="M307.841,315.94c-9.8-19.59-22.36-23.61-35.17-19.09c-12.8,4.53-22.85,20.1-25.11,33.66
		c-0.85,5.1,3.14,10.34,6.45,13.7c2.22,2.25,7.55,6.24,10.38,7.65c8.03,4.02,15.07,5.27,24.61,5.78c10.33,0.54,14.32,1.5,18.84-1.51
		C312.361,353.11,317.631,335.53,307.841,315.94z M266.091,316.09c0-4.02,3.26-7.28,7.28-7.28c2.2,0,4.17,0.98,5.51,2.52
		c1.1,1.28,1.77,2.94,1.77,4.76c0,4.02-3.26,7.28-7.28,7.28c-3.26,0-6.02-2.14-6.94-5.1
		C266.211,317.58,266.091,316.85,266.091,316.09z"/>
	<path style="fill:#5D9F98;" d="M378.251,351.51c-0.1-1.58-0.5-3.05-1.09-3.8c-1.51-1.88-5.65-1.88-6.41,0.38
		c0,0,0.13,1.21,0.47,2.76h-0.09c-2.82-0.12-3.99,16.57-17.14,17.71c-7.28,0.63-8.08-10.42-10.57-13.65
		c0.29-1.46,0.26-2.96-0.29-4.06c-1.51-3.01-6.41,0.38-6.41,0.38c-0.61,0.85-0.77,2.13-0.61,3.47c-3.26,0.7-6.31,0.94-3.41-1.96
		c0,0,14.32-10.17,28.26-10.17s18.83,4.14,19.21,7.15C380.391,351.46,380.111,351.7,378.251,351.51z"/>
	<path style="fill:#FFFFFF;" d="M376.151,357.13c-2.81,1.03-4.27-3.26-4.93-6.28c-0.34-1.55-0.47-2.76-0.47-2.76
		c0.76-2.26,4.9-2.26,6.41-0.38c0.59,0.75,0.99,2.22,1.09,3.8C378.391,353.9,377.821,356.53,376.151,357.13z"/>
	<path style="fill:#FFFFFF;" d="M343.421,354.91c-0.49,2.55-1.92,5.02-3.18,5.24c-2.05,0.34-3.8-2.66-4.13-5.45
		c-0.16-1.34,0-2.62,0.61-3.47c0,0,4.9-3.39,6.41-0.38C343.681,351.95,343.711,353.45,343.421,354.91z"/>
	<path style="fill:#91D2C3;" d="M460.381,324.89c-3.73-18.02-13.67-26.1-31.69-23.61c-18.02,2.48-26.72,22.99-22.99,40.39
		c1.45,6.77,6.39,10.43,11.87,12.38c8.61,3.07,18.58,1.91,18.58,1.91c7.68-0.99,13.68-3.27,17.88-6.79
		C460.371,343.87,462.621,335.73,460.381,324.89z M430.741,346.64c-1.85-0.07-3.67-0.48-5.38-1.18
		c-4.55-1.88-12.56-6.63-11.89-16.69c0.91-13.63,10.68-20.17,22.84-18.76c1.4-1.63,3.49-2.67,5.82-2.67c4.25,0,7.69,3.44,7.69,7.69
		c0,0.8-0.12,1.58-0.36,2.3c1.91,3.25,2.46,7.16,2.69,10.98C452.591,335.9,448.331,347.35,430.741,346.64z"/>
	<path style="fill:#91D2C3;" d="M430.741,346.64c-1.85-0.07-3.67-0.48-5.38-1.18c-4.55-1.88-12.56-6.63-11.89-16.69
		c0.91-13.63,10.68-20.17,22.84-18.76c-1.17,1.35-1.87,3.1-1.87,5.02c0,4.24,3.44,7.68,7.69,7.68c3.45,0,6.36-2.26,7.33-5.38
		c1.91,3.25,2.46,7.16,2.69,10.98C452.591,335.9,448.331,347.35,430.741,346.64z"/>
	<path style="fill:#3B6059;" d="M430.741,346.64c-1.85-0.07-3.67-0.48-5.38-1.18c-4.55-1.88-12.56-6.63-11.89-16.69
		c0.91-13.63,10.68-20.17,22.84-18.76c-1.17,1.35-1.87,3.1-1.87,5.02c0,4.24,3.44,7.68,7.69,7.68c3.45,0,6.36-2.26,7.33-5.38
		c1.91,3.25,2.46,7.16,2.69,10.98C452.591,335.9,448.331,347.35,430.741,346.64z"/>
	<path style="fill:#FFFFFF;" d="M449.821,315.03c0,0.8-0.12,1.58-0.36,2.3c-0.97,3.12-3.88,5.38-7.33,5.38
		c-4.25,0-7.69-3.44-7.69-7.68c0-1.92,0.7-3.67,1.87-5.02c1.4-1.63,3.49-2.67,5.82-2.67
		C446.381,307.34,449.821,310.78,449.821,315.03z"/>
	<circle style="fill:#FFFFFF;" cx="429.975" cy="327.841" r="3.728"/>
	<path style="fill:#91D2C3;" d="M286.091,303.07c-17.06-2.35-26.47,5.29-30,22.36c-3.53,17.06,4.7,27.06,22.94,29.41
		c0,0,25.3,2.95,28.83-13.53C311.391,324.84,303.151,305.42,286.091,303.07z M273.371,308.81c2.2,0,4.17,0.98,5.51,2.52
		c1.1,1.28,1.77,2.94,1.77,4.76c0,4.02-3.26,7.28-7.28,7.28c-3.26,0-6.02-2.14-6.94-5.1c-0.22-0.69-0.34-1.42-0.34-2.18
		C266.091,312.07,269.351,308.81,273.371,308.81z"/>
	<path style="fill:#3B6059;" d="M286.391,345.87c-18.54,1.77-22.95-9.71-22.51-17.21c0.21-3.61,0.73-7.32,2.55-10.39
		c0.92,2.96,3.68,5.1,6.94,5.1c4.02,0,7.28-3.26,7.28-7.28c0-1.82-0.67-3.48-1.77-4.76c11.52-1.33,20.76,4.87,21.63,17.77
		C301.391,342.34,286.391,345.87,286.391,345.87z"/>
	<path style="fill:#FFFFFF;" d="M280.651,316.09c0,4.02-3.26,7.28-7.28,7.28c-3.26,0-6.02-2.14-6.94-5.1
		c-0.22-0.69-0.34-1.42-0.34-2.18c0-4.02,3.26-7.28,7.28-7.28c2.2,0,4.17,0.98,5.51,2.52
		C279.981,312.61,280.651,314.27,280.651,316.09z"/>
	<g>
		<path style="fill:#00AD90;" d="M401.191,246.31c-2.65-1.88-4.95-3.84-6.33-5.46c0,0-4.89-5.66-7.91-7.54
			c-3.01-1.88-3.76,7.54-8.29,8.29c-4.52,0.75,0-6.41-6.02-7.91c-5.88-1.47-4.24,8.5-11.12,11.45c0.08-0.6,0.15-1.2,0.21-1.82
			c0.01-0.08,0.02-0.16,0.03-0.24c0.04-0.35,0.08-0.7,0.11-1.06c0.03-0.26,0.05-0.52,0.07-0.79c0.08-0.87,0.15-1.75,0.21-2.64
			c0.04-0.45,0.07-0.9,0.09-1.36c0.02-0.27,0.04-0.54,0.05-0.82c0.11-1.91,0.19-3.85,0.23-5.79c0.01-0.27,0.01-0.55,0.02-0.83
			c0-0.15,0.01-0.31,0.01-0.46c5.53-1.69,10.62-3.05,14.61-3.18c5.19-0.16,13.26,1.08,22.08,3.57c0.07,0.87,0.15,1.74,0.23,2.63
			c0.09,1.03,0.19,2.07,0.3,3.11c0.16,1.57,0.34,3.14,0.54,4.71c0.06,0.52,0.13,1.04,0.2,1.56c0.08,0.64,0.17,1.29,0.27,1.93
			c0.09,0.61,0.18,1.22,0.28,1.81C401.101,245.75,401.141,246.03,401.191,246.31z"/>
		<path style="fill:#00AD90;" d="M398.461,216.7c0,0.1,0.01,0.2,0.01,0.31c-0.01-0.14-0.01-0.27-0.02-0.4v-0.11
			C398.451,216.57,398.461,216.64,398.461,216.7z"/>
		<path style="fill:#00AD90;" d="M398.511,217.89c0,0.03,0,0.06,0.01,0.09v0.1c-0.01-0.04-0.01-0.07-0.01-0.11V217.89z"/>
		<path style="fill:#00AD90;" d="M398.661,220.84c0.01,0.22,0.02,0.43,0.03,0.65c-0.02-0.24-0.03-0.48-0.04-0.71v-0.08
			C398.651,220.75,398.661,220.79,398.661,220.84z"/>
		<path style="fill:#00AD90;" d="M398.731,222.15c0.01,0.13,0.01,0.26,0.02,0.4c-0.01-0.15-0.02-0.3-0.03-0.45
			c-0.01-0.13-0.01-0.26-0.02-0.39C398.711,221.86,398.721,222,398.731,222.15z"/>
		<path style="fill:#00AD90;" d="M398.901,224.9c0.01,0.22,0.03,0.44,0.04,0.66c-0.02-0.24-0.04-0.48-0.05-0.72
			C398.891,224.86,398.891,224.88,398.901,224.9z"/>
		<path style="fill:#00AD90;" d="M398.961,225.79l0.03,0.54c-0.02-0.18-0.03-0.36-0.04-0.54c-0.01-0.08-0.01-0.16-0.01-0.23
			C398.951,225.64,398.951,225.71,398.961,225.79z"/>
		<path style="fill:#00AD90;" d="M399.471,232.35c-0.08-0.89-0.16-1.76-0.23-2.63c-0.01-0.14-0.02-0.29-0.03-0.43
			C399.291,230.29,399.381,231.32,399.471,232.35z"/>
		<path style="fill:#00AD90;" d="M346.241,234.3c0.01,0.02,0,0.05,0,0.08c-0.05,1-0.09,1.98-0.12,2.96
			c-0.03,0.81-0.05,1.62-0.06,2.43c-0.01,0.8-0.02,1.59-0.02,2.37v0.55c-2.4-0.96-4.35-1.63-5.43-1.09
			c-3.01,1.51-1.88,6.78-7.53,5.27c-5.65-1.5-6.41-5.27-12.43-0.37c-2.13,1.73-5.53,3.03-9.17,3.88c0.81-3.01,1.53-6.24,2.16-9.53
			c0.11-0.56,0.21-1.11,0.31-1.67c0.09-0.45,0.17-0.89,0.24-1.34c0.02-0.07,0.03-0.14,0.04-0.2c0.09-0.54,0.18-1.07,0.27-1.61
			c0.01-0.07,0.03-0.14,0.03-0.2c0.01-0.05,0.02-0.09,0.03-0.14c4.86-0.13,10.1-0.01,14.75,0.63
			C334.141,237,340.061,235.94,346.241,234.3z"/>
		<path style="fill:#00AD90;" d="M348.271,212.1c0.01-0.07,0.02-0.13,0.03-0.2c0,0.06-0.01,0.12-0.02,0.19v0.01H348.271z"/>
		<path style="fill:#00AD90;" d="M349.491,203.13c0.02-0.16,0.05-0.33,0.07-0.49c-0.02,0.13-0.04,0.27-0.05,0.4
			C349.501,203.07,349.491,203.1,349.491,203.13z"/>
		<path style="fill:#00AD90;" d="M350.581,196.11c0.01-0.02,0.01-0.04,0.01-0.06v0.04C350.591,196.1,350.591,196.1,350.581,196.11z"
			/>
		<path style="fill:#00AD90;" d="M350.651,195.69v0.03c-0.01,0.02-0.01,0.05-0.02,0.07v-0.01
			C350.641,195.75,350.651,195.72,350.651,195.69z"/>
		<path style="fill:#00AD90;" d="M466.181,269.9c-3.43-0.06-7.17-1.84-10.28-7.2c-4.15-7.16-6.03-5.65-10.18-7.16
			c-4.14-1.51-1.88,4.9-8.66,4.52c-6.78-0.38-4.52-5.27-8.67-10.55c-4.14-5.27-5.65,3.39-11.3,3.77c-0.96,0.06-2.11-0.12-3.39-0.48
			c-0.01-0.24-0.02-0.48-0.04-0.72c-0.01-0.24-0.02-0.48-0.03-0.73c-0.02-0.3-0.04-0.61-0.06-0.92c-0.01-0.26-0.03-0.52-0.05-0.78
			c-0.1-1.44-0.25-2.94-0.42-4.47c-0.11-1.07-0.24-2.15-0.39-3.24c-0.15-1.09-0.31-2.18-0.47-3.28c-0.12-0.78-0.24-1.56-0.37-2.34
			c-0.13-0.84-0.27-1.67-0.41-2.49c7.88,3.11,15.62,7.12,21.83,11.91c5.29,4.09,14.12,6.72,23.76,8.11
			c1.72,2.82,3.48,5.81,5.24,8.93c0.18,0.32,0.37,0.65,0.55,0.98c0.93,1.65,1.85,3.34,2.77,5.06c0.15,0.26,0.29,0.53,0.42,0.79
			C466.081,269.71,466.131,269.8,466.181,269.9z"/>
		<path style="fill:#00AD90;" d="M407.531,214.65c0,0.02,0.01,0.04,0.01,0.06c-0.01-0.02-0.01-0.04-0.02-0.06
			c0-0.02-0.01-0.04-0.01-0.06C407.521,214.61,407.521,214.63,407.531,214.65z"/>
		<path style="fill:#00AD90;" d="M407.561,214.81c0.01,0.03,0.02,0.06,0.03,0.1v0.03C407.581,214.9,407.571,214.85,407.561,214.81z"
			/>
		<path style="fill:#00AD90;" d="M407.971,216.54c0.01,0.06,0.02,0.12,0.04,0.18c-0.03-0.11-0.05-0.21-0.08-0.31
			c-0.01-0.06-0.02-0.13-0.04-0.19C407.921,216.32,407.941,216.43,407.971,216.54z"/>
		<path style="fill:#00AD90;" d="M408.131,217.25c0.02,0.07,0.03,0.14,0.05,0.22c-0.02-0.08-0.04-0.15-0.06-0.22
			c0-0.04-0.01-0.08-0.02-0.12C408.111,217.17,408.121,217.21,408.131,217.25z"/>
		<path style="fill:#00AD90;" d="M408.401,218.43c0.01,0.04,0.01,0.07,0.02,0.11c-0.01-0.04-0.02-0.08-0.03-0.11
			c-0.01-0.07-0.03-0.13-0.04-0.2C408.371,218.3,408.381,218.36,408.401,218.43z"/>
		<path style="fill:#00AD90;" d="M410.251,227.24c0.03,0.19,0.07,0.38,0.11,0.58c-0.04-0.2-0.08-0.39-0.12-0.59
			c-0.01-0.05-0.02-0.11-0.03-0.17C410.221,227.12,410.231,227.18,410.251,227.24z"/>
		<path style="fill:#00AD90;" d="M410.931,230.85c0.04,0.24,0.09,0.48,0.13,0.72c-0.06-0.32-0.12-0.64-0.18-0.95
			c-0.04-0.25-0.09-0.5-0.13-0.74C410.811,230.2,410.871,230.53,410.931,230.85z"/>
		<path style="fill:#00AD90;" d="M440.071,229.29c0.06,0.08,0.13,0.16,0.2,0.24c-0.07-0.09-0.15-0.17-0.22-0.25L440.071,229.29z"/>
		<path style="fill:#00AD90;" d="M445.961,236.99c-0.04-0.05-0.07-0.1-0.11-0.14c-0.05-0.07-0.1-0.14-0.14-0.21
			C445.791,236.76,445.881,236.87,445.961,236.99z"/>
		<path style="fill:#00AD90;" d="M413.661,252.08c0.02,0.24,0.03,0.48,0.04,0.72h-0.01
			C413.681,252.56,413.671,252.32,413.661,252.08z"/>
		<path style="fill:#00AD90;" d="M466.191,269.9h-0.01c-0.19-0.36-0.38-0.72-0.57-1.08C465.811,269.18,466.001,269.54,466.191,269.9
			z"/>
		<path style="fill:#00AD90;" d="M300.681,236.66c-0.03,0.12-0.06,0.23-0.09,0.34c-0.12,0.46-0.25,0.91-0.37,1.36
			c-0.12,0.46-0.25,0.91-0.37,1.37c-0.06,0.22-0.12,0.45-0.18,0.68c-0.12,0.46-0.24,0.91-0.35,1.37c-0.15,0.57-0.29,1.14-0.42,1.71
			c-0.09,0.34-0.17,0.68-0.25,1.02c-0.09,0.39-0.18,0.79-0.27,1.18c-0.07,0.31-0.14,0.62-0.21,0.92c-0.09,0.42-0.18,0.84-0.26,1.25
			c-0.09,0.44-0.18,0.88-0.26,1.32c-0.08,0.42-0.16,0.83-0.23,1.24c-0.04,0.23-0.08,0.46-0.12,0.69c-0.83-0.21-1.49-0.49-1.9-0.85
			c-3.01-2.63-8.66-3.01-12.43-1.5c-3.77,1.5-5.27,8.29-10.55,8.66c-5.27,0.38-4.52-5.27-10.55-0.75c-1.47,1.11-3.65,1.85-6.1,2.35
			c1.5-2.58,2.94-5.01,4.29-7.23c0.01-0.02,0.02-0.04,0.03-0.06c0,0,0.01,0,0.01-0.01c6.44-3.45,12.71-6.66,17.22-8.61
			c13.94-6.03,19.97-6.03,19.97-6.03S298.571,236.9,300.681,236.66z"/>
		<path style="fill:#00AD90;" d="M265.421,243.17c0.02-0.03,0.04-0.06,0.06-0.09c-0.02,0.03-0.04,0.06-0.05,0.09
			c-0.08,0.11-0.15,0.23-0.23,0.35C265.271,243.4,265.351,243.28,265.421,243.17z"/>
		<path style="fill:#00AD90;" d="M266.131,242.06h0.01c-0.09,0.13-0.18,0.27-0.27,0.41
			C265.961,242.33,266.051,242.19,266.131,242.06z"/>
		<path style="fill:#00AD90;" d="M268.581,238.31c0.05-0.07,0.1-0.14,0.14-0.2c-0.04,0.07-0.09,0.13-0.13,0.2
			c-0.02,0.02-0.03,0.04-0.05,0.07C268.561,238.36,268.571,238.33,268.581,238.31z"/>
		<path style="fill:#00AD90;" d="M269.041,237.62c0.01-0.01,0.02-0.03,0.03-0.04c-0.01,0.03-0.03,0.06-0.05,0.09
			C269.021,237.65,269.031,237.64,269.041,237.62z"/>
		<path style="fill:#00AD90;" d="M300.681,236.66c0.03-0.11,0.06-0.22,0.1-0.33c-0.03,0.11-0.06,0.22-0.09,0.33
			c-0.03,0.12-0.07,0.23-0.1,0.34C300.621,236.89,300.651,236.78,300.681,236.66z"/>
		<path style="fill:#00AD90;" d="M301.691,233.13c0.02-0.04,0.03-0.08,0.04-0.12c-0.01,0.04-0.02,0.08-0.03,0.12H301.691z"/>
		<path style="fill:#00AD90;" d="M305.681,219.62c-0.03,0.13-0.07,0.27-0.1,0.41c-0.02,0.06-0.04,0.12-0.06,0.18
			C305.581,220,305.631,219.81,305.681,219.62z"/>
	</g>
	<circle style="fill:#FFFFFF;" cx="284.35" cy="328.221" r="3.53"/>
	<g>
		<path style="fill:#007F7F;" d="M399.241,229.72c-8.82-2.49-16.89-3.73-22.08-3.57c-3.99,0.13-9.08,1.49-14.61,3.18
			c0.01-0.57,0.02-1.15,0.02-1.72v-0.01c0,0,0.01-0.01,0.01-0.02s0-0.01,0-0.02v-0.51c0.14-15.71-1.25-30.66-1.25-30.66
			s26.38,4.52,36.92,13.56c0,0,0.01,0.43,0.02,1.22c0.01,0.06,0.01,0.12,0.01,0.18c0.01,0.25,0.01,0.52,0.02,0.83
			c0,0.1,0.01,0.21,0.01,0.33c0,0.11,0.01,0.23,0.01,0.35c0,0.1,0.01,0.22,0.01,0.33c0,0.19,0.01,0.4,0.02,0.61
			c0.01,0.23,0.02,0.47,0.02,0.72c0,0.03,0,0.05,0.01,0.07v0.06c0.02,0.57,0.04,1.19,0.07,1.85v0.11c0.01,0.13,0.01,0.26,0.02,0.4
			c0,0.07,0.01,0.14,0.01,0.21c0,0.14,0.01,0.28,0.02,0.43c0,0.08,0,0.16,0.01,0.24v0.08c0,0.04,0,0.07,0.01,0.11
			c0.01,0.23,0.02,0.46,0.03,0.7v0.09l0.01,0.01c0.01,0.22,0.02,0.44,0.03,0.67v0.09c0.01,0.13,0.01,0.26,0.02,0.39
			c0.01,0.11,0.01,0.23,0.02,0.35c0,0.1,0.01,0.21,0.02,0.32v0.08c0.01,0.23,0.02,0.47,0.04,0.71c0,0.07,0.01,0.14,0.01,0.22
			c0.01,0.13,0.01,0.26,0.02,0.39c0.01,0.15,0.02,0.3,0.03,0.45c0.04,0.73,0.09,1.48,0.14,2.25v0.04c0.01,0.24,0.03,0.48,0.05,0.72
			c0,0.07,0,0.15,0.01,0.23c0.01,0.18,0.02,0.36,0.04,0.54c0.03,0.48,0.07,0.97,0.11,1.47c0.03,0.49,0.07,0.99,0.11,1.49
			C399.221,229.43,399.231,229.58,399.241,229.72z"/>
		<path style="fill:#007F7F;" d="M362.571,227.55c0.01-0.05,0.01-0.09,0.01-0.14v0.15C362.581,227.56,362.571,227.56,362.571,227.55
			z"/>
		<path style="fill:#007F7F;" d="M362.571,227.57c0-0.01,0.01-0.01,0.01-0.01c0,0.01,0,0.01,0,0.02
			C362.581,227.58,362.571,227.58,362.571,227.57z"/>
		<path style="fill:#007F7F;" d="M398.461,216.7c0,0.1,0.01,0.2,0.01,0.31c-0.01-0.14-0.01-0.27-0.02-0.4
			C398.451,216.64,398.451,216.67,398.461,216.7z"/>
		<path style="fill:#007F7F;" d="M398.551,218.78c0,0.03,0,0.06,0.01,0.09v0.01l-0.01-0.01V218.78z"/>
		<path style="fill:#007F7F;" d="M398.611,220.03c-0.01-0.13-0.01-0.26-0.02-0.39c0,0.01,0,0.02,0.01,0.04
			C398.601,219.79,398.611,219.91,398.611,220.03z"/>
		<path style="fill:#007F7F;" d="M306.341,216.47c0,0.07-0.01,0.14-0.02,0.21c0,0.05-0.01,0.09-0.02,0.14
			c-0.02,0.18-0.05,0.38-0.09,0.6c-0.02,0.1-0.04,0.2-0.07,0.31v0.03c-0.01,0.03-0.01,0.06-0.02,0.09
			c-0.02,0.09-0.04,0.18-0.06,0.27c0,0.01,0,0.01,0,0.01h-0.01c0,0.03-0.01,0.07-0.02,0.11c-0.03,0.14-0.06,0.27-0.1,0.41
			c-0.07,0.27-0.14,0.56-0.22,0.86c-0.01,0.03-0.02,0.07-0.03,0.11c-0.05,0.19-0.1,0.38-0.16,0.59c-0.01,0.06-0.03,0.12-0.05,0.18
			c0,0.02,0,0.04-0.01,0.06s-0.01,0.04-0.02,0.06c0,0.02-0.01,0.03-0.01,0.05l-0.01,0.01c-0.01,0.06-0.02,0.11-0.04,0.16
			c-0.11,0.39-0.22,0.79-0.34,1.21c-0.02,0.05-0.03,0.1-0.05,0.14c-0.02,0.08-0.04,0.16-0.06,0.24c-0.01,0.02-0.01,0.04-0.02,0.05
			l-0.18,0.6c0,0.02-0.01,0.03-0.01,0.05c-0.38,1.3-0.82,2.74-1.28,4.27c0,0.01,0,0.01-0.01,0.02c-0.08,0.27-0.16,0.55-0.24,0.82
			c-0.11,0.36-0.22,0.72-0.33,1.08c-0.37,1.23-0.74,2.5-1.13,3.8c-0.01,0.04-0.02,0.08-0.04,0.12c-0.01,0.06-0.03,0.12-0.05,0.19
			c-0.07,0.26-0.15,0.52-0.22,0.78c-0.21,0.74-0.43,1.48-0.64,2.23c-0.04,0.11-0.07,0.22-0.1,0.33c-2.11,0.24-3.39,0.42-3.39,0.42
			s-6.03,0-19.97,6.03c-4.51,1.95-10.78,5.16-17.22,8.61c0.67-1.11,1.33-2.18,1.95-3.19c0.12-0.19,0.24-0.38,0.35-0.57
			c0.26-0.41,0.51-0.81,0.75-1.2c0.09-0.13,0.17-0.27,0.25-0.4c0.64-1.02,1.24-1.97,1.8-2.84c0.08-0.12,0.15-0.24,0.23-0.35
			c0.01-0.03,0.03-0.06,0.05-0.09c0.13-0.21,0.26-0.41,0.39-0.61c0.09-0.14,0.18-0.28,0.27-0.41c0.02-0.05,0.05-0.09,0.07-0.13
			c0.02-0.02,0.02-0.03,0.03-0.04c0.59-0.9,1.1-1.68,1.53-2.34c0.04-0.07,0.09-0.13,0.13-0.19c0.04-0.06,0.07-0.11,0.1-0.17
			c0.03-0.03,0.05-0.07,0.07-0.1c0.17-0.26,0.33-0.5,0.47-0.71c0.02-0.03,0.03-0.05,0.05-0.07c0.04-0.07,0.09-0.13,0.13-0.2
			c0.1-0.15,0.18-0.28,0.26-0.39c0.01-0.02,0.03-0.04,0.04-0.05c0.02-0.03,0.04-0.06,0.05-0.09c0.22-0.33,0.34-0.5,0.34-0.5
			s36.17-24.87,36.92-21.1C306.351,216.1,306.361,216.27,306.341,216.47z"/>
		<path style="fill:#007F7F;" d="M268.581,238.31h0.01c-0.02,0.02-0.03,0.04-0.05,0.07
			C268.561,238.36,268.571,238.33,268.581,238.31z"/>
		<path style="fill:#007F7F;" d="M300.681,236.66c0.03-0.11,0.06-0.22,0.1-0.33c-0.03,0.11-0.06,0.22-0.09,0.33H300.681z"/>
		<path style="fill:#007F7F;" d="M301.691,233.13c0.02-0.04,0.03-0.08,0.04-0.12c-0.01,0.04-0.02,0.08-0.03,0.12
			c-0.02,0.06-0.04,0.13-0.06,0.19C301.661,233.25,301.681,233.19,301.691,233.13z"/>
		<path style="fill:#007F7F;" d="M304.731,222.97l0.18-0.6c-0.06,0.2-0.12,0.4-0.17,0.6H304.731z"/>
		<path style="fill:#007F7F;" d="M304.991,222.08c0.02-0.04,0.03-0.09,0.05-0.14c-0.02,0.04-0.03,0.09-0.04,0.14H304.991z"/>
		<path style="fill:#007F7F;" d="M305.521,220.21c0.06-0.21,0.11-0.4,0.16-0.59c-0.03,0.13-0.07,0.27-0.1,0.41
			c-0.04,0.11-0.07,0.24-0.11,0.36C305.491,220.33,305.511,220.27,305.521,220.21z"/>
		<path style="fill:#007F7F;" d="M306.061,218.13c-0.01,0.04-0.02,0.08-0.03,0.11c0.01-0.04,0.02-0.08,0.02-0.11H306.061z"/>
		<path style="fill:#007F7F;" d="M350.791,194.88c0,0,0,0.02-0.01,0.06c-0.01,0.08-0.04,0.24-0.08,0.47
			c-0.01,0.04-0.02,0.09-0.02,0.14c-0.01,0.01-0.01,0.03-0.01,0.05c-0.01,0.03-0.02,0.06-0.02,0.09c0,0.03-0.01,0.06-0.02,0.09v0.01
			c0,0.01,0,0.01,0,0.02c-0.01,0.08-0.02,0.16-0.04,0.24c0,0.02,0,0.04-0.01,0.06c-0.14,0.84-0.34,2.1-0.58,3.68
			c-0.03,0.15-0.05,0.3-0.07,0.46c-0.06,0.35-0.11,0.71-0.17,1.08c-0.06,0.36-0.11,0.73-0.17,1.12c-0.01,0.07-0.01,0.13-0.03,0.19
			c-0.02,0.16-0.05,0.33-0.07,0.49c0,0.01,0,0.01,0,0.02c-0.13,0.91-0.27,1.88-0.41,2.9c-0.01,0.06-0.02,0.12-0.03,0.19
			c-0.24,1.75-0.5,3.65-0.75,5.66c-0.01,0.07-0.02,0.13-0.03,0.2c-0.02,0.23-0.05,0.46-0.08,0.7c-0.04,0.3-0.07,0.6-0.11,0.9
			c-0.13,1.05-0.25,2.13-0.37,3.23c-0.09,0.8-0.18,1.62-0.27,2.45c-0.03,0.31-0.06,0.61-0.09,0.92c-0.01,0.02-0.01,0.04-0.01,0.06
			c-0.03,0.33-0.07,0.65-0.1,0.98c-0.08,0.8-0.16,1.61-0.23,2.42c-0.11,1.17-0.21,2.34-0.3,3.51c0,0.03-0.01,0.05-0.01,0.07
			c-0.03,0.33-0.05,0.67-0.08,1.01c-0.03,0.5-0.07,0.99-0.1,1.49c-0.03,0.38-0.06,0.76-0.08,1.14c-0.03,0.5-0.06,0.99-0.09,1.49
			c-0.02,0.31-0.04,0.61-0.05,0.91c-0.02,0.31-0.03,0.61-0.05,0.92h-0.01c-6.18,1.64-12.1,2.7-16.93,2.02
			c-4.65-0.64-9.89-0.76-14.75-0.63c0.02-0.1,0.03-0.19,0.04-0.29c0.02-0.08,0.03-0.16,0.04-0.24c0.05-0.26,0.09-0.53,0.13-0.79
			c0.03-0.16,0.05-0.33,0.08-0.49c0.18-1.17,0.36-2.34,0.52-3.49c0.03-0.18,0.05-0.35,0.07-0.51c0.03-0.22,0.06-0.44,0.09-0.65
			c0.18-1.32,0.35-2.61,0.51-3.86c0.02-0.24,0.05-0.47,0.08-0.7c0.03-0.21,0.05-0.42,0.08-0.62c0.02-0.17,0.04-0.35,0.06-0.52
			c0.04-0.37,0.08-0.74,0.13-1.11c0.02-0.16,0.04-0.33,0.06-0.49c0.02-0.2,0.04-0.4,0.06-0.59c0.02-0.21,0.05-0.42,0.07-0.62
			c0.01-0.08,0.02-0.16,0.03-0.24c0.01-0.06,0.01-0.12,0.01-0.18c0.03-0.18,0.04-0.35,0.06-0.52c0.02-0.17,0.04-0.33,0.05-0.5
			c0.01-0.06,0.02-0.13,0.02-0.19c0.02-0.15,0.03-0.29,0.05-0.43c0.02-0.18,0.04-0.34,0.05-0.51c0.03-0.27,0.05-0.53,0.08-0.79
			c0.02-0.23,0.05-0.45,0.07-0.67c0-0.08,0.01-0.16,0.02-0.23c0.04-0.37,0.07-0.73,0.1-1.07c0.01-0.02,0.01-0.03,0.01-0.05
			c0-0.07,0.01-0.14,0.02-0.21v-0.07c0.01-0.1,0.02-0.18,0.03-0.28c0.03-0.37,0.06-0.71,0.09-1.04c0-0.06,0.01-0.11,0.01-0.16
			c0.01-0.06,0.01-0.12,0.02-0.17c0.06-0.67,0.11-1.27,0.15-1.79c0.01-0.15,0.02-0.3,0.03-0.43c0.02-0.19,0.03-0.37,0.04-0.54
			c0.01-0.06,0.01-0.11,0.02-0.17v-0.07c0.01-0.03,0.01-0.06,0.01-0.1c0.05-0.72,0.08-1.11,0.08-1.11S340.241,199.4,350.791,194.88z
			"/>
		<path style="fill:#007F7F;" d="M316.201,223.98c0.02-0.15,0.04-0.3,0.06-0.45c-0.02,0.17-0.04,0.35-0.06,0.52V223.98z"/>
		<path style="fill:#007F7F;" d="M316.441,221.93h0.01c-0.02,0.16-0.04,0.33-0.06,0.49
			C316.411,222.26,316.421,222.09,316.441,221.93z"/>
		<path style="fill:#007F7F;" d="M316.451,221.86c0.02-0.17,0.04-0.34,0.06-0.52c-0.02,0.19-0.04,0.39-0.06,0.59V221.86z"/>
		<path style="fill:#007F7F;" d="M316.581,220.72c0.01-0.14,0.03-0.28,0.04-0.42c0,0.06,0,0.12-0.01,0.18
			C316.601,220.56,316.591,220.64,316.581,220.72z"/>
		<path style="fill:#007F7F;" d="M316.831,218.3c0.01-0.05,0.02-0.1,0.02-0.15c-0.01,0.17-0.03,0.33-0.05,0.51
			c-0.02,0.14-0.03,0.28-0.05,0.43C316.781,218.82,316.811,218.56,316.831,218.3z"/>
		<path style="fill:#007F7F;" d="M316.991,216.72c0-0.01,0-0.02,0.01-0.03c-0.02,0.22-0.05,0.44-0.07,0.67
			C316.951,217.14,316.971,216.93,316.991,216.72z"/>
		<path style="fill:#007F7F;" d="M317.121,215.34h0.01c0,0.02,0,0.03-0.01,0.05V215.34z"/>
		<path style="fill:#007F7F;" d="M317.141,215.15c0-0.01,0.01-0.02,0.01-0.02c-0.01,0.07-0.02,0.14-0.02,0.21
			C317.131,215.27,317.141,215.21,317.141,215.15z"/>
		<path style="fill:#007F7F;" d="M317.161,214.93c0.01-0.05,0.01-0.1,0.02-0.15c-0.01,0.1-0.02,0.18-0.03,0.28
			C317.151,215.02,317.161,214.97,317.161,214.93z"/>
		<path style="fill:#007F7F;" d="M346.621,228.35c0.03-0.34,0.05-0.68,0.08-1.01v0.1C346.671,227.75,346.651,228.05,346.621,228.35z
			"/>
		<path style="fill:#007F7F;" d="M348.271,212.1c0.01-0.07,0.02-0.13,0.03-0.2c0,0.06-0.01,0.12-0.02,0.19v0.01
			c-0.03,0.23-0.06,0.46-0.09,0.7C348.221,212.56,348.251,212.33,348.271,212.1z"/>
		<path style="fill:#007F7F;" d="M349.491,203.13c0.02-0.16,0.05-0.33,0.07-0.49c-0.02,0.13-0.04,0.27-0.05,0.4
			C349.501,203.07,349.491,203.1,349.491,203.13z"/>
		<path style="fill:#007F7F;" d="M350.651,195.69v0.03c-0.01,0.02-0.01,0.04-0.02,0.06
			C350.641,195.75,350.651,195.72,350.651,195.69z"/>
		<path style="fill:#007F7F;" d="M457.051,253.85c-9.64-1.39-18.47-4.02-23.76-8.11c-6.21-4.79-13.95-8.8-21.83-11.91
			c-0.01-0.08-0.03-0.17-0.04-0.25c-0.05-0.3-0.1-0.6-0.16-0.9c-0.07-0.37-0.13-0.74-0.2-1.11c-0.04-0.24-0.09-0.48-0.13-0.72
			c-0.06-0.32-0.12-0.65-0.18-0.97s-0.12-0.64-0.18-0.95c-0.03-0.13-0.05-0.26-0.07-0.39c-0.05-0.24-0.1-0.48-0.14-0.72
			c-0.04-0.2-0.08-0.39-0.11-0.58c-0.02-0.06-0.03-0.12-0.04-0.18c-0.3-1.52-0.6-2.97-0.88-4.31c-0.04-0.18-0.07-0.35-0.11-0.53
			c-0.02-0.09-0.04-0.18-0.06-0.26c-0.12-0.58-0.24-1.14-0.36-1.67c-0.04-0.22-0.09-0.44-0.14-0.65c-0.08-0.38-0.16-0.75-0.24-1.1
			c-0.01-0.04-0.01-0.07-0.02-0.11c-0.02-0.07-0.03-0.13-0.05-0.2c-0.06-0.26-0.12-0.52-0.17-0.76c-0.02-0.08-0.03-0.15-0.05-0.22
			c-0.01-0.04-0.02-0.08-0.03-0.12c-0.03-0.14-0.06-0.28-0.09-0.41c-0.02-0.06-0.03-0.12-0.04-0.18c-0.03-0.11-0.05-0.22-0.08-0.32
			c-0.01-0.08-0.03-0.16-0.05-0.23c-0.02-0.08-0.03-0.15-0.05-0.23c-0.03-0.09-0.05-0.19-0.07-0.28c-0.01-0.04-0.02-0.09-0.03-0.13
			c-0.02-0.08-0.04-0.16-0.05-0.23c-0.01-0.05-0.03-0.1-0.04-0.15c0-0.01,0-0.02-0.01-0.03v-0.03c-0.01-0.04-0.02-0.07-0.03-0.1
			c-0.01-0.03-0.01-0.07-0.02-0.1c0-0.02-0.01-0.04-0.01-0.06c-0.01-0.02-0.01-0.04-0.02-0.06c-0.01-0.05-0.02-0.09-0.03-0.14v-0.01
			c-0.01-0.02-0.02-0.04-0.02-0.06c-0.01-0.03-0.01-0.06-0.02-0.08c0-0.01,0-0.01,0-0.02c-0.01-0.03-0.02-0.07-0.03-0.1
			c0-0.01,0-0.03-0.01-0.04c-0.01-0.05-0.02-0.11-0.03-0.15c-0.01-0.01-0.01-0.01-0.01-0.01c-0.04-0.17-0.06-0.26-0.06-0.26
			s24.11,7.53,30.89,13.56c0.06,0.05,0.12,0.11,0.19,0.18c0.07,0.07,0.15,0.14,0.22,0.22c0.15,0.14,0.32,0.32,0.5,0.52
			c0.14,0.15,0.28,0.31,0.43,0.48c0.17,0.18,0.34,0.38,0.52,0.6c0.07,0.08,0.15,0.16,0.22,0.25c0.47,0.57,1,1.22,1.57,1.95
			c0.1,0.12,0.19,0.24,0.29,0.36c0.07,0.1,0.15,0.19,0.22,0.29c0.04,0.05,0.08,0.1,0.12,0.15c0.11,0.15,0.23,0.3,0.35,0.46
			c0.38,0.5,0.78,1.02,1.19,1.58c0.02,0.02,0.03,0.05,0.05,0.07c0.05,0.06,0.1,0.13,0.15,0.2c0.45,0.6,0.92,1.24,1.4,1.92
			c0.03,0.04,0.06,0.08,0.1,0.13c0.04,0.07,0.09,0.14,0.14,0.21c0.04,0.04,0.07,0.09,0.11,0.14c0.35,0.48,0.7,0.99,1.07,1.51
			c0.01,0.02,0.02,0.03,0.04,0.05c0.02,0.05,0.06,0.11,0.1,0.16c0.11,0.14,0.21,0.29,0.31,0.44c0.24,0.34,0.48,0.69,0.73,1.05
			c0.07,0.1,0.14,0.2,0.2,0.3c0.05,0.07,0.1,0.14,0.15,0.21c0.24,0.34,0.48,0.69,0.71,1.04c0.31,0.44,0.61,0.89,0.92,1.35
			c0.56,0.84,1.14,1.72,1.73,2.62c0.01,0.02,0.03,0.05,0.05,0.07c0.09,0.16,0.19,0.3,0.29,0.46c0.22,0.33,0.43,0.66,0.65,1
			c0.14,0.2,0.27,0.41,0.4,0.63c0.14,0.21,0.28,0.42,0.41,0.64c0.04,0.05,0.07,0.1,0.1,0.15
			C454.881,250.32,455.961,252.05,457.051,253.85z"/>
		<path style="fill:#007F7F;" d="M407.411,214.18c0.01,0.03,0.02,0.07,0.03,0.1h-0.01C407.431,214.24,407.421,214.21,407.411,214.18
			z"/>
		<path style="fill:#007F7F;" d="M407.461,214.38c0,0.02,0.01,0.04,0.02,0.06h-0.01C407.471,214.42,407.461,214.4,407.461,214.38z"
			/>
		<path style="fill:#007F7F;" d="M407.891,216.22c0.03,0.1,0.05,0.21,0.08,0.32c-0.01-0.04-0.02-0.09-0.04-0.13
			C407.921,216.35,407.911,216.28,407.891,216.22z"/>
		<path style="fill:#007F7F;" d="M409.221,222.22c0.04,0.18,0.07,0.35,0.11,0.53c-0.04-0.16-0.07-0.33-0.11-0.49V222.22z"/>
		<path style="fill:#007F7F;" d="M410.211,227.06c0.01,0.06,0.02,0.12,0.04,0.18c0,0-0.01,0-0.01-0.01
			C410.231,227.18,410.221,227.12,410.211,227.06z"/>
		<path style="fill:#007F7F;" d="M444.071,234.39c0.04,0.06,0.09,0.13,0.14,0.2c-0.05-0.07-0.1-0.14-0.15-0.2H444.071z"/>
		<path style="fill:#007F7F;" d="M448.411,240.48c0,0,0,0.01,0,0.02c-0.06-0.1-0.13-0.2-0.2-0.3
			C448.271,240.29,448.341,240.38,448.411,240.48z"/>
	</g>
	<path style="fill:#00AD90;" d="M455.521,269.1c0,1.18-0.96,2.14-2.14,2.14c-1.17,0-2.13-0.96-2.13-2.14s0.96-2.13,2.13-2.13
		C454.561,266.97,455.521,267.92,455.521,269.1z"/>
	<path style="fill:#00AD90;" d="M468.831,281.53c0,2.08-1.69,3.77-3.77,3.77c-2.08,0-3.76-1.69-3.76-3.77s1.68-3.76,3.76-3.76
		C467.141,277.77,468.831,279.45,468.831,281.53z"/>
	<circle style="fill:#00AD90;" cx="434.171" cy="267.22" r="2.26"/>
	<path style="fill:#00AD90;" d="M427.891,265.46c0,2.77-2.25,5.02-5.02,5.02c-2.78,0-5.02-2.25-5.02-5.02s2.24-5.02,5.02-5.02
		C425.641,260.44,427.891,262.69,427.891,265.46z"/>
	<path style="fill:#00AD90;" d="M399.011,272.24c0,3.19-2.59,5.78-5.78,5.78s-5.77-2.59-5.77-5.78c0-3.19,2.58-5.78,5.77-5.78
		S399.011,269.05,399.011,272.24z"/>
	<path style="fill:#00AD90;" d="M392.981,252.9c0,1.53-1.24,2.76-2.76,2.76c-1.53,0-2.76-1.23-2.76-2.76c0-1.52,1.23-2.76,2.76-2.76
		C391.741,250.14,392.981,251.38,392.981,252.9z"/>
	<path style="fill:#00AD90;" d="M376.661,248.38c0,1.53-1.24,2.76-2.77,2.76c-1.52,0-2.76-1.23-2.76-2.76
		c0-1.53,1.24-2.76,2.76-2.76C375.421,245.62,376.661,246.85,376.661,248.38z"/>
	<path style="fill:#00AD90;" d="M380.421,260.94c0,0.69-0.56,1.25-1.25,1.25c-0.7,0-1.26-0.56-1.26-1.25c0-0.7,0.56-1.26,1.26-1.26
		C379.861,259.68,380.421,260.24,380.421,260.94z"/>
	<path style="fill:#00AD90;" d="M368.871,268.47c0,2.92-2.36,5.28-5.28,5.28c-2.91,0-5.27-2.36-5.27-5.28
		c0-2.91,2.36-5.27,5.27-5.27C366.511,263.2,368.871,265.56,368.871,268.47z"/>
	<path style="fill:#00AD90;" d="M366.361,257.42c0,0.83-0.68,1.51-1.51,1.51s-1.51-0.68-1.51-1.51c0-0.83,0.68-1.5,1.51-1.5
		S366.361,256.59,366.361,257.42z"/>
	<path style="fill:#00AD90;" d="M380.171,286.93c0,1.88-1.52,3.39-3.39,3.39s-3.39-1.51-3.39-3.39c0-1.87,1.52-3.39,3.39-3.39
		S380.171,285.06,380.171,286.93z"/>
	<path style="fill:#00AD90;" d="M335.971,267.97c0,3.75-3.04,6.78-6.78,6.78c-3.75,0-6.79-3.03-6.79-6.78
		c0-3.74,3.04-6.78,6.79-6.78C332.931,261.19,335.971,264.23,335.971,267.97z"/>
	<path style="fill:#00AD90;" d="M339.481,255.54c0,1.18-0.95,2.13-2.13,2.13s-2.14-0.95-2.14-2.13c0-1.18,0.96-2.14,2.14-2.14
		S339.481,254.36,339.481,255.54z"/>
	<path style="fill:#00AD90;" d="M344.261,249.64c0,0.97-0.79,1.75-1.76,1.75c-0.97,0-1.76-0.78-1.76-1.75
		c0-0.97,0.79-1.76,1.76-1.76C343.471,247.88,344.261,248.67,344.261,249.64z"/>
	<path style="fill:#00AD90;" d="M321.901,259.56c0,1.87-1.52,3.39-3.39,3.39c-1.87,0-3.39-1.52-3.39-3.39
		c0-1.88,1.52-3.39,3.39-3.39C320.381,256.17,321.901,257.68,321.901,259.56z"/>
	<circle style="fill:#00AD90;" cx="325.921" cy="250.64" r="1.76"/>
	<path style="fill:#00AD90;" d="M348.781,275.63c0,1.18-0.96,2.14-2.14,2.14c-1.18,0-2.13-0.96-2.13-2.14s0.95-2.13,2.13-2.13
		C347.821,273.5,348.781,274.45,348.781,275.63z"/>
	<path style="fill:#00AD90;" d="M312.361,279.27c0,1.39-1.13,2.51-2.51,2.51c-1.39,0-2.52-1.12-2.52-2.51
		c0-1.38,1.13-2.51,2.52-2.51C311.231,276.76,312.361,277.89,312.361,279.27z"/>
	<path style="fill:#00AD90;" d="M293.771,260.94c0,2.63-2.13,4.77-4.77,4.77c-2.64,0-4.77-2.14-4.77-4.77
		c0-2.64,2.13-4.77,4.77-4.77C291.641,256.17,293.771,258.3,293.771,260.94z"/>
	<path style="fill:#00AD90;" d="M275.691,261.32c0,0.76-0.62,1.38-1.38,1.38c-0.77,0-1.38-0.62-1.38-1.38
		c0-0.77,0.61-1.39,1.38-1.39C275.071,259.93,275.691,260.55,275.691,261.32z"/>
	<path style="fill:#00AD90;" d="M285.991,274.38c0,2.15-1.75,3.89-3.9,3.89c-2.15,0-3.89-1.74-3.89-3.89c0-2.15,1.74-3.9,3.89-3.9
		C284.241,270.48,285.991,272.23,285.991,274.38z"/>
	<path style="fill:#00AD90;" d="M269.161,271.61c0,1.04-0.85,1.89-1.89,1.89c-1.04,0-1.88-0.85-1.88-1.89
		c0-1.04,0.84-1.88,1.88-1.88C268.311,269.73,269.161,270.57,269.161,271.61z"/>
	<path style="fill:#00AD90;" d="M265.891,264.83c0,1.18-0.95,2.14-2.13,2.14c-1.18,0-2.14-0.96-2.14-2.14s0.96-2.13,2.14-2.13
		C264.941,262.7,265.891,263.65,265.891,264.83z"/>
	<path style="fill:#00AD90;" d="M256.601,272.62c0,1.59-1.29,2.89-2.89,2.89c-1.59,0-2.89-1.3-2.89-2.89c0-1.6,1.3-2.89,2.89-2.89
		C255.311,269.73,256.601,271.02,256.601,272.62z"/>
	<circle style="fill:#00AD90;" cx="261.371" cy="281.03" r="1.76"/>
	<g>
		<path style="fill:#88BEAE;" d="M309.941,540.86c0.03,0.01,0.06,0.02,0.09,0.03c0.1,0.03,0.2,0.05,0.3,0.07
			C310.201,540.93,310.071,540.9,309.941,540.86z M353.911,515.2c-0.1-0.01-0.2-0.01-0.29-0.01c0.17,0,0.34,0.01,0.52,0.03
			C354.061,515.21,353.991,515.2,353.911,515.2z M342.251,543.39c0.02-3.12,0.39-6.68,1.8-11.15
			C342.491,537.07,342.201,540.5,342.251,543.39z"/>
		<path style="fill:#88BEAE;" d="M431.911,413.41c0,0.01,0.01,0.01,0.01,0.03v-0.03H431.911z M365.401,518.4
			c0.67,0.32,1.35,0.66,2.04,1.03C366.751,519.05,366.071,518.71,365.401,518.4z"/>
		<path style="fill:#88BEAE;" d="M309.941,540.86c0.03,0.01,0.06,0.02,0.09,0.03c0.1,0.03,0.2,0.05,0.3,0.07
			C310.201,540.93,310.071,540.9,309.941,540.86z M309.941,540.86c0.03,0.01,0.06,0.02,0.09,0.03c0.1,0.03,0.2,0.05,0.3,0.07
			C310.201,540.93,310.071,540.9,309.941,540.86z M309.941,540.86c0.03,0.01,0.06,0.02,0.09,0.03c0.1,0.03,0.2,0.05,0.3,0.07
			C310.201,540.93,310.071,540.9,309.941,540.86z M309.941,540.86c0.03,0.01,0.06,0.02,0.09,0.03c0.1,0.03,0.2,0.05,0.3,0.07
			C310.201,540.93,310.071,540.9,309.941,540.86z M309.941,540.86c0.03,0.01,0.06,0.02,0.09,0.03c0.1,0.03,0.2,0.05,0.3,0.07
			C310.201,540.93,310.071,540.9,309.941,540.86z M309.941,540.86c0.03,0.01,0.06,0.02,0.09,0.03c0.1,0.03,0.2,0.05,0.3,0.07
			C310.201,540.93,310.071,540.9,309.941,540.86z M309.941,540.86c0.03,0.01,0.06,0.02,0.09,0.03c0.1,0.03,0.2,0.05,0.3,0.07
			C310.201,540.93,310.071,540.9,309.941,540.86z M431.411,412.64l-16.58-24.11c-50.98,10.42-107.75,2.01-107.75,2.01l-3.01-0.5
			l-8.29,11.3c0,0-19.09,44.2-21.6,58.77c-2.51,14.57-1,34.66-1,36.17c0,1.5,2.01,8.54,2.01,8.54s-10.55-0.51-10.55-2.01
			c0-1.51-4.52-9.54-1.52-17.57c-0.26,0.35-4.97,6.78-3.51,16.06l-6.53-2.01c0,0-1.5-17.04,4-27.59c-0.52,0.75-9,13.37-8.52,24.58
			c0,0-5.02-0.51-4.02-10.05c1.01-9.54,19.59-52.24,26.63-60.28c7.03-8.03,15.06-19.57,24.59-24.6c-0.51,0.15-8.86,2.96-27.1,24.85
			c-18.84,22.61-30.9,58.02-30.14,61.79c4.72,23.61,38.42,23.36,38.42,23.36c6.03,9.79,24.12,27.88,24.12,27.88s0,0-4.53,3.76
			c-3.27,2.73-2.59,8.61-0.83,12.51c0.68,1.49,1.51,2.69,2.34,3.32c0.11,0.08,0.27,0.16,0.49,0.23c5.44,1.88,42.46,0.02,42.46,0.02
			c1.35-3.24,1.54-6.04,1.47-8.94c-0.05-2.11-0.24-4.29-0.21-6.74c-0.05-2.89,0.24-6.32,1.8-11.15c0.11-0.34,0.22-0.67,0.34-1.02
			c0.12-0.34,0.24-0.69,0.37-1.04c5.27-14.31,22.35-11.55,25.36-1.75c1.81,5.88,0.63,15.08-1.25,22.1
			c-1.25,4.67-0.75,8.29-0.75,8.29c0.59,0.12,1.19,0.22,1.8,0.33c0.06,0.01,0.12,0.02,0.17,0.03c0.56,0.09,1.12,0.18,1.7,0.27
			c0.57,0.09,1.15,0.17,1.74,0.25c0.58,0.08,1.17,0.15,1.76,0.22c0.61,0.07,1.22,0.14,1.84,0.2c0.64,0.07,1.29,0.13,1.95,0.19
			c1.36,0.13,2.75,0.24,4.13,0.33c1.01,0.07,2.04,0.13,3.05,0.19c0.12,0.01,0.24,0.01,0.36,0.02c1.13,0.06,2.25,0.1,3.37,0.15
			c2.23,0.09,4.4,0.15,6.46,0.18c0.14,0,0.28,0.01,0.41,0.01c0.2,0,0.39,0,0.59,0.01c0.96,0.01,1.88,0.02,2.77,0.02
			c1.23,0.01,2.4,0.01,3.49,0.01c0.53-0.01,1.05-0.01,1.54-0.01c0.35-0.01,0.69-0.01,1.01-0.01c0.52-0.01,1.01-0.02,1.46-0.02
			c0.66-0.01,1.26-0.03,1.77-0.03h0.07c0.03,0,0.05-0.01,0.08,0c0.07-0.01,0.13-0.01,0.19-0.01c0.03-0.01,0.08-0.01,0.11,0
			c0.51-0.02,0.93-0.03,1.24-0.04c0.09-0.01,0.17-0.01,0.24-0.01c0.26-0.01,0.4-0.02,0.4-0.02c5.27-15.07-4.52-17.33-4.52-17.33
			c3.86-2.77,8.23-7.75,12.22-12.95c0.26-0.35,0.53-0.69,0.79-1.04c6.54-8.71,11.85-17.66,11.85-17.66
			c35.42-3.01,40.69-21.85,40.69-21.85C473.601,454.84,431.411,412.64,431.411,412.64z M316.581,554.46h-5.53l-1.01-7.87
			c-1.26,1.26-1.02,7.96-1.02,7.96l-5.29,0.5v-8.29c-2,2.01-2.47,8.7-2.47,8.7h-3.27c0,0-0.03-0.12-0.07-0.35
			c-0.31-1.68-1.41-8.95,2.58-11.16c0.09-0.05,0.19-0.1,0.29-0.15c0.18-0.08,0.36-0.15,0.56-0.23c1.68-0.59,4.14-0.76,6.72-0.71
			c0.16,0,0.33,0,0.49,0.01c0.36,0.01,0.72,0.02,1.08,0.04c0.29,0.01,0.58,0.02,0.87,0.04c0.28,0.02,0.55,0.04,0.83,0.06h0.06
			c0.07,0.01,0.13,0.01,0.19,0.01s0.12,0.01,0.18,0.02h0.01c0.14,0.01,0.27,0.02,0.41,0.03c0.13,0.01,0.26,0.02,0.39,0.03
			c0.12,0.01,0.23,0.02,0.35,0.04c0.9,0.08,1.75,0.17,2.52,0.27c0.18,0.02,0.35,0.04,0.51,0.06c0.11,0.01,0.22,0.03,0.33,0.04
			c0.2,0.03,0.39,0.05,0.57,0.08c0.45,0.06,0.84,0.11,1.19,0.17c0.1,0.01,0.19,0.02,0.28,0.04c0.53,0.08,0.91,0.14,1.11,0.17
			c0.05,0.01,0.08,0.02,0.11,0.02c0.03,0.01,0.04,0.01,0.04,0.01c3.52,1.25,6.78,1.59,9.05,3.09
			C330.901,548.6,316.581,554.46,316.581,554.46z M409.561,558.46h-3.27c0,0-0.56-5.92-2.56-7.93v8.29l-5.25-0.51
			c0,0,0.26-6.58-0.99-7.83l-0.99,7.98h-5.53c0,0-14.31-5.98-12.05-7.48c2.26-1.51,5.52-1.96,9.04-3.22c0,0,14.56-2.94,19.09-0.42
			C411.571,549.85,409.561,558.46,409.561,558.46z M434.801,465.38c-0.71,26.38-6.56,49.31-16.19,63.36
			c-0.36,0.53-0.73,1.04-1.1,1.54c-0.35,0.47-0.7,0.93-1.06,1.38c-0.21,0.27-0.43,0.53-0.65,0.79c-0.5,0.61-1.02,1.19-1.55,1.75
			c-0.38,0.4-0.76,0.79-1.14,1.17c-0.19,0.19-0.38,0.37-0.58,0.55c-0.2,0.19-0.39,0.36-0.59,0.54c-0.19,0.17-0.37,0.33-0.56,0.49
			l-0.03,0.03c-0.14,0.12-0.29,0.25-0.44,0.37c-1.28,1.05-2.6,1.98-3.97,2.77c-0.07,0.04-0.15,0.09-0.23,0.13
			c-0.54,0.3-1.08,0.58-1.63,0.84c-0.22,0.11-0.44,0.21-0.66,0.3c-0.51,0.23-1.02,0.43-1.54,0.62c-0.05,0.02-0.11,0.04-0.16,0.06
			c-0.1,0.03-0.21,0.07-0.32,0.1c-0.22,0.08-0.45,0.15-0.68,0.22c-0.22,0.07-0.44,0.13-0.66,0.19c-0.24,0.06-0.48,0.12-0.72,0.18
			c-0.23,0.06-0.46,0.11-0.7,0.15c-0.34,0.07-0.69,0.14-1.04,0.19h-0.04c-0.35,0.06-0.71,0.1-1.06,0.14
			c-21.85,2.26-12.43-13.81-29.01-23.23c-0.35-0.2-0.71-0.4-1.05-0.58c-0.69-0.37-1.37-0.71-2.04-1.03
			c-0.37-0.18-0.73-0.35-1.08-0.5c-1.3-0.58-2.55-1.05-3.76-1.43c-0.27-0.09-0.54-0.17-0.8-0.24c-0.88-0.26-1.73-0.47-2.57-0.62
			c-0.26-0.05-0.53-0.1-0.78-0.13c-0.1-0.03-0.2-0.04-0.3-0.05c-0.57-0.09-1.13-0.15-1.68-0.19c-0.11-0.02-0.2-0.02-0.29-0.02
			c-0.18-0.02-0.35-0.03-0.52-0.03c-0.77-0.04-1.52-0.02-2.24,0.03c-0.11,0-0.22,0.01-0.32,0.03c-0.15,0-0.3,0.02-0.45,0.04
			c-0.18,0.01-0.34,0.03-0.51,0.06c-0.09,0.01-0.18,0.02-0.27,0.04c-0.35,0.05-0.7,0.11-1.04,0.19c-0.16,0.03-0.31,0.06-0.46,0.1
			c-0.21,0.05-0.42,0.1-0.62,0.16c-0.35,0.1-0.7,0.21-1.04,0.33c-0.41,0.14-0.81,0.3-1.2,0.47c-0.26,0.11-0.52,0.23-0.77,0.36
			c-0.46,0.23-0.91,0.48-1.34,0.76c-0.13,0.07-0.27,0.16-0.4,0.25c-0.94,0.62-1.8,1.33-2.59,2.11c-0.3,0.29-0.58,0.59-0.85,0.9
			c-0.27,0.31-0.53,0.62-0.78,0.95c-0.13,0.16-0.25,0.32-0.37,0.49c-0.17,0.24-0.34,0.47-0.49,0.72c-0.19,0.27-0.36,0.55-0.53,0.83
			c-0.15,0.26-0.3,0.52-0.44,0.79c-0.16,0.28-0.3,0.57-0.44,0.86c-4.52,9.42-14.07,14.82-23.11,15.57
			c-0.21,0.02-0.42,0.03-0.63,0.03c-0.15,0-0.3-0.01-0.45-0.02c-0.12,0-0.25-0.01-0.37-0.03h-0.04c-0.06,0-0.1,0-0.15-0.01
			c-0.08,0-0.16-0.01-0.24-0.02c-0.26-0.03-0.51-0.08-0.77-0.13c-0.06-0.01-0.12-0.02-0.18-0.04c-0.07-0.01-0.13-0.03-0.2-0.05
			c-0.13-0.03-0.26-0.06-0.39-0.1c-0.08-0.02-0.17-0.05-0.25-0.08c-0.15-0.04-0.3-0.09-0.45-0.15c-0.1-0.04-0.21-0.08-0.31-0.12
			c-0.2-0.08-0.41-0.16-0.61-0.26c-0.49-0.23-0.98-0.49-1.47-0.79c-0.11-0.07-0.23-0.14-0.34-0.22c-0.12-0.07-0.23-0.15-0.35-0.23
			c-0.14-0.09-0.28-0.19-0.42-0.29c-0.61-0.44-1.21-0.93-1.82-1.47c-0.25-0.22-0.5-0.45-0.75-0.69c-0.39-0.38-0.79-0.77-1.19-1.19
			c-0.4-0.42-0.8-0.86-1.2-1.32c-0.2-0.23-0.4-0.46-0.6-0.69c-0.25-0.29-0.5-0.59-0.75-0.9c-0.23-0.29-0.47-0.58-0.7-0.87
			c-0.27-0.34-0.54-0.69-0.81-1.05c-0.26-0.33-0.51-0.67-0.76-1.01c-0.42-0.57-0.84-1.15-1.26-1.74c-0.03-0.04-0.06-0.08-0.09-0.12
			c-0.92-1.3-1.85-2.66-2.79-4.07c-0.35-0.52-0.7-1.05-1.06-1.59c-0.36-0.54-0.71-1.08-1.07-1.63c-0.47-0.72-0.94-1.45-1.42-2.19
			c-0.9-1.38-1.8-2.78-2.73-4.21c-9.8-15.07-10.55-55,0.38-79.49c6.33-14.19,11.9-22.56,15.47-27.09
			c4.02-6.61,7.42-11.01,8.26-11.71c2.26-1.89,26,5.27,44.83,7.53c18.84,2.26,52.37-10.17,56.14-6.03c0,0,2.07,3.57,4.85,8.99
			C420.221,409.82,435.801,427.98,434.801,465.38z M464.561,493.77l-3.01-10.55c0,0-0.5,10.55-3.02,13.56
			c-2.51,3.01-9.54,4.02-9.54,4.02l3.51-16.05c-0.3,0.69-5.16,11.72-9.54,17.55c-4.52,6.03-8.04,3.52-8.04,3.52
			s4.02-13.06,5.53-27.12c0.06-0.49,0.09-1.03,0.12-1.61c0.02-0.58,0.03-1.2,0.03-1.85c0-0.58,0-1.18-0.02-1.81
			c-0.02-0.52-0.04-1.06-0.07-1.61c0-0.05,0-0.11-0.01-0.16c-0.01-0.32-0.03-0.65-0.05-0.98c-0.06-1-0.13-2.05-0.22-3.13
			c-0.06-0.72-0.12-1.46-0.2-2.21c-0.1-1.14-0.22-2.31-0.36-3.5c-0.07-0.7-0.15-1.4-0.24-2.11c-0.01-0.1-0.03-0.21-0.04-0.31
			c-0.09-0.82-0.19-1.65-0.3-2.48c-0.21-1.68-0.44-3.38-0.68-5.09c-0.06-0.43-0.12-0.86-0.18-1.29c-0.12-0.86-0.25-1.73-0.38-2.59
			c-0.26-1.79-0.53-3.59-0.81-5.36c-0.1-0.61-0.2-1.21-0.29-1.81c-0.14-0.9-0.29-1.79-0.43-2.67c-0.09-0.54-0.18-1.09-0.27-1.62
			c-0.13-0.82-0.27-1.63-0.4-2.43c-0.2-1.2-0.4-2.37-0.6-3.51c-0.13-0.76-0.26-1.51-0.39-2.23c-0.13-0.73-0.25-1.44-0.38-2.12
			c-0.09-0.52-0.18-1.02-0.26-1.51c-0.08-0.45-0.16-0.9-0.24-1.33c-0.07-0.35-0.13-0.7-0.19-1.03c-0.01-0.08-0.03-0.16-0.04-0.24
			c-0.08-0.41-0.15-0.81-0.22-1.2c-0.23-1.24-0.44-2.35-0.62-3.31c-0.09-0.52-0.18-0.99-0.26-1.42c-0.03-0.12-0.05-0.24-0.07-0.36
			c-0.03-0.17-0.06-0.34-0.1-0.49v-0.03c-0.01-0.05-0.02-0.1-0.03-0.15c-0.06-0.3-0.11-0.57-0.16-0.8c0-0.01,0-0.03-0.01-0.04
			c0-0.05-0.01-0.1-0.02-0.14c-0.01-0.05-0.02-0.1-0.03-0.14c-0.05-0.29-0.09-0.49-0.11-0.58v-0.01c0-0.02-0.01-0.02-0.01-0.03h0.01
			v0.01h0.01c0,0,0.01,0,0.02,0.02c0,0,0,0,0.01,0.01c0.03,0.02,0.07,0.06,0.12,0.13c0.01,0,0.01,0,0.01,0v0.01l0.01,0.01
			c0.01-0.01,0.01,0,0.01,0.01c0.01,0,0.02,0.01,0.02,0.02c0,0,0.01,0,0.01,0.01c0.02,0.01,0.03,0.03,0.05,0.05
			c0.01,0.01,0.02,0.01,0.02,0.02c0,0,0,0,0.01,0.01c0,0,0.01,0,0.01,0.01l0.01,0.01c0.03,0.02,0.06,0.05,0.08,0.08
			c0.13,0.13,0.29,0.3,0.48,0.5l0.01,0.01c0.04,0.04,0.08,0.09,0.12,0.13c0.03,0.03,0.05,0.05,0.08,0.08
			c0.14,0.15,0.29,0.32,0.46,0.5c0.16,0.18,0.34,0.38,0.53,0.58c0.47,0.53,1.02,1.14,1.62,1.84c0.12,0.14,0.25,0.28,0.37,0.43
			c0.94,1.09,2.02,2.38,3.19,3.85c0.23,0.29,0.47,0.59,0.71,0.9c1.74,2.2,3.66,4.76,5.67,7.65c0.28,0.39,0.56,0.8,0.83,1.21
			c1.07,1.56,2.17,3.21,3.26,4.95c0.34,0.53,0.68,1.07,1.01,1.62c0.34,0.55,0.68,1.1,1.01,1.66c0.6,0.99,1.2,2,1.78,3.04
			c0.26,0.44,0.51,0.88,0.75,1.33c0.51,0.89,1,1.8,1.48,2.72c0.32,0.59,0.64,1.19,0.94,1.79c1,1.93,1.98,3.92,2.92,5.97
			c5.01,10.89,9.04,26.12,9.04,31.65C468.581,491.76,464.561,493.77,464.561,493.77z M309.941,540.86c0.03,0.01,0.06,0.02,0.09,0.03
			c0.1,0.03,0.2,0.05,0.3,0.07C310.201,540.93,310.071,540.9,309.941,540.86z M309.941,540.86c0.03,0.01,0.06,0.02,0.09,0.03
			c0.1,0.03,0.2,0.05,0.3,0.07C310.201,540.93,310.071,540.9,309.941,540.86z M309.941,540.86c0.03,0.01,0.06,0.02,0.09,0.03
			c0.1,0.03,0.2,0.05,0.3,0.07C310.201,540.93,310.071,540.9,309.941,540.86z M309.941,540.86c0.03,0.01,0.06,0.02,0.09,0.03
			c0.1,0.03,0.2,0.05,0.3,0.07C310.201,540.93,310.071,540.9,309.941,540.86z M309.941,540.86c0.03,0.01,0.06,0.02,0.09,0.03
			c0.1,0.03,0.2,0.05,0.3,0.07C310.201,540.93,310.071,540.9,309.941,540.86z M309.941,540.86c0.03,0.01,0.06,0.02,0.09,0.03
			c0.1,0.03,0.2,0.05,0.3,0.07C310.201,540.93,310.071,540.9,309.941,540.86z M309.941,540.86c0.03,0.01,0.06,0.02,0.09,0.03
			c0.1,0.03,0.2,0.05,0.3,0.07C310.201,540.93,310.071,540.9,309.941,540.86z"/>
	</g>
	<path style="fill:#97CAB7;" d="M309.941,540.86c0.03,0.01,0.06,0.02,0.09,0.03c0.1,0.03,0.2,0.05,0.3,0.07
		C310.201,540.93,310.071,540.9,309.941,540.86z M353.911,515.2c-0.1-0.01-0.2-0.01-0.29-0.01c0.17,0,0.34,0.01,0.52,0.03
		C354.061,515.21,353.991,515.2,353.911,515.2z M359.171,510.25c0.21,0,0.41,0.01,0.62,0.01h0.29
		C359.781,510.25,359.471,510.25,359.171,510.25z M410.911,537.35c0.15-0.12,0.3-0.25,0.44-0.37v-0.01
		C411.211,537.1,411.061,537.22,410.911,537.35z"/>
	<path style="fill:#97CAB7;" d="M416.671,406.18c3.92,7.63,9.23,18.92,12.1,29.06c4.9,17.33,6.78,50.49-19.97,64.05
		c-1.07,0.54-2.15,1.06-3.25,1.56c-0.4,0.19-0.8,0.37-1.2,0.54c-0.41,0.18-0.81,0.36-1.22,0.53c-0.71,0.3-1.43,0.59-2.15,0.87
		c-0.25,0.1-0.51,0.2-0.77,0.3c-0.49,0.19-0.98,0.37-1.48,0.55c-0.98,0.36-1.97,0.71-2.97,1.03c-0.35,0.12-0.69,0.23-1.03,0.33
		c-0.45,0.15-0.9,0.29-1.35,0.42c-0.45,0.14-0.9,0.27-1.35,0.4c-0.79,0.23-1.58,0.45-2.38,0.66c-0.85,0.22-1.71,0.44-2.57,0.64
		c-0.43,0.1-0.86,0.2-1.29,0.3c-0.43,0.1-0.86,0.19-1.3,0.28c-1.73,0.37-3.47,0.7-5.22,0.98c-0.39,0.07-0.79,0.13-1.19,0.19
		c-1.88,0.29-3.78,0.54-5.67,0.73c-1.29,0.14-2.58,0.26-3.86,0.34c-0.06,0.01-0.12,0.01-0.18,0.02c-0.41,0.03-0.81,0.05-1.22,0.07
		c-0.21,0.02-0.43,0.03-0.64,0.04c-0.65,0.04-1.3,0.07-1.96,0.1c-1.35,0.06-2.69,0.09-4.03,0.09h-0.73c-0.21,0-0.41-0.01-0.62-0.01
		c-0.75,0-1.51-0.01-2.26-0.03c-0.27,0-0.54,0-0.81-0.02c-0.13,0-0.26,0-0.38-0.01c-0.62-0.01-1.23-0.04-1.84-0.07
		c-0.83-0.04-1.66-0.08-2.48-0.14c-0.18-0.01-0.36-0.02-0.54-0.04c-0.79-0.05-1.57-0.11-2.35-0.19c-0.39-0.03-0.78-0.07-1.17-0.11
		s-0.78-0.08-1.17-0.13c-0.98-0.1-1.96-0.23-2.93-0.37c-0.56-0.07-1.12-0.15-1.67-0.24c-0.48-0.07-0.96-0.15-1.44-0.23
		c-0.52-0.08-1.03-0.17-1.54-0.27c-1.1-0.2-2.2-0.41-3.28-0.65c-0.75-0.16-1.5-0.33-2.24-0.51c-0.25-0.05-0.51-0.11-0.76-0.18
		c-0.77-0.18-1.53-0.38-2.28-0.59c-0.19-0.05-0.39-0.1-0.58-0.16c-0.04-0.01-0.08-0.02-0.12-0.04c-0.74-0.2-1.48-0.41-2.2-0.64
		c-0.45-0.13-0.89-0.27-1.33-0.42c-0.06-0.01-0.12-0.03-0.19-0.06c-0.58-0.18-1.16-0.38-1.73-0.58c-0.71-0.24-1.41-0.5-2.1-0.76
		c-24.87-9.42-37.68-24.86-35.79-51.24c1.18-16.56,9.79-34.01,16.6-45.17c-3.57,4.53-9.14,12.9-15.47,27.09
		c-10.93,24.49-10.18,64.42-0.38,79.49c0.93,1.43,1.83,2.83,2.73,4.21c0.48,0.74,0.95,1.47,1.42,2.19c0.36,0.55,0.71,1.09,1.07,1.63
		c0.36,0.54,0.71,1.07,1.06,1.59c0.94,1.41,1.87,2.77,2.79,4.07c0.03,0.04,0.06,0.08,0.09,0.12c0.42,0.59,0.84,1.17,1.26,1.74
		c0.25,0.34,0.5,0.68,0.76,1.01c0.27,0.36,0.54,0.71,0.81,1.05c0.23,0.29,0.47,0.58,0.7,0.87c0.25,0.31,0.5,0.61,0.75,0.9
		c0.2,0.23,0.4,0.46,0.6,0.69c0.4,0.46,0.8,0.9,1.2,1.32c0.4,0.42,0.8,0.81,1.19,1.19c0.25,0.24,0.5,0.47,0.75,0.69
		c0.61,0.54,1.21,1.03,1.82,1.47c0.14,0.1,0.28,0.2,0.42,0.29c0.12,0.08,0.23,0.16,0.35,0.23c0.11,0.08,0.23,0.15,0.34,0.22
		c0.49,0.3,0.98,0.56,1.47,0.79c0.2,0.1,0.41,0.18,0.61,0.26c0.1,0.04,0.21,0.08,0.31,0.12c0.15,0.06,0.3,0.11,0.45,0.15
		c0.08,0.03,0.17,0.06,0.25,0.08c0.13,0.04,0.26,0.07,0.39,0.1c0.07,0.02,0.13,0.04,0.2,0.05c0.06,0.02,0.12,0.03,0.18,0.04
		c0.26,0.05,0.51,0.1,0.77,0.13c0.08,0.01,0.16,0.02,0.24,0.02c0.05,0.01,0.09,0.01,0.15,0.01h0.04c0.12,0.02,0.25,0.03,0.37,0.03
		c0.15,0.01,0.3,0.02,0.45,0.02c0.21,0,0.42-0.01,0.63-0.03c9.04-0.75,18.59-6.15,23.11-15.57c0.14-0.29,0.28-0.58,0.44-0.86
		c0.14-0.27,0.29-0.53,0.44-0.79c0.17-0.28,0.34-0.56,0.53-0.83c0.15-0.25,0.32-0.48,0.49-0.72c0.12-0.17,0.24-0.33,0.37-0.49
		c0.25-0.33,0.51-0.64,0.78-0.95c0.27-0.31,0.55-0.61,0.85-0.9c0.79-0.78,1.65-1.49,2.59-2.11c0.13-0.09,0.27-0.18,0.4-0.25
		c0.43-0.28,0.88-0.53,1.34-0.76c0.25-0.13,0.51-0.25,0.77-0.36c0.39-0.17,0.79-0.33,1.2-0.47c0.34-0.12,0.69-0.23,1.04-0.33
		c0.2-0.06,0.41-0.11,0.62-0.16c0.15-0.04,0.3-0.07,0.46-0.1c0.34-0.08,0.69-0.14,1.04-0.19c0.09-0.02,0.18-0.03,0.27-0.04
		c0.17-0.03,0.33-0.05,0.51-0.06c0.15-0.02,0.3-0.04,0.45-0.04c0.1-0.02,0.21-0.03,0.32-0.03c0.72-0.05,1.47-0.07,2.24-0.03
		c0.09,0,0.19,0,0.29,0.01c0.08,0,0.15,0.01,0.23,0.02c0.09,0,0.18,0,0.29,0.02c0.55,0.04,1.11,0.1,1.68,0.19
		c0.1,0.01,0.2,0.02,0.3,0.05c0.25,0.03,0.52,0.08,0.78,0.13c0.84,0.15,1.69,0.36,2.57,0.62c0.26,0.07,0.53,0.15,0.8,0.24
		c1.21,0.38,2.46,0.85,3.76,1.43c0.35,0.15,0.71,0.32,1.08,0.5c0.67,0.31,1.35,0.65,2.04,1.03c0.34,0.18,0.7,0.38,1.05,0.58
		c16.58,9.42,7.16,25.49,29.01,23.23c0.35-0.04,0.71-0.08,1.06-0.14h0.04c0.35-0.05,0.7-0.12,1.04-0.19
		c0.24-0.04,0.47-0.09,0.7-0.15c0.24-0.06,0.48-0.12,0.72-0.18c0.22-0.06,0.44-0.12,0.66-0.19c0.23-0.07,0.46-0.14,0.68-0.22
		c0.11-0.03,0.22-0.07,0.32-0.1c0.05-0.02,0.11-0.04,0.16-0.06c0.52-0.19,1.03-0.39,1.54-0.62c0.22-0.09,0.44-0.19,0.66-0.3
		c0.55-0.26,1.09-0.54,1.63-0.84c0.08-0.04,0.16-0.09,0.23-0.13c1.37-0.79,2.69-1.72,3.97-2.77c0.15-0.13,0.3-0.25,0.44-0.38
		c0.01,0,0.02-0.01,0.03-0.02c0.19-0.16,0.37-0.32,0.56-0.49c0.2-0.18,0.39-0.35,0.59-0.54c0.2-0.18,0.39-0.36,0.58-0.55
		c0.38-0.38,0.76-0.77,1.14-1.17c0.52-0.56,1.04-1.14,1.55-1.75c0.22-0.26,0.44-0.52,0.65-0.79c0.36-0.45,0.71-0.91,1.06-1.38
		c0.37-0.5,0.74-1.01,1.1-1.54c9.63-14.05,15.48-36.98,16.19-63.36C435.801,427.98,420.221,409.82,416.671,406.18z M301.521,530.94
		c-1.5-4.15,13.94-0.76,13.94-0.76C316.221,532.82,303.031,535.08,301.521,530.94z M311.691,539.98c-4.14,0.38-7.15-3.02-7.15-3.02
		c4.04,2.58,12.41-0.96,12.8-1.12C317.251,536.06,315.711,539.61,311.691,539.98z M308.681,525.29c-5.27-1.13-10.92,3.39-11.68,2.26
		c-0.75-1.13,2.64-5.28,8.67-5.65c6.02-0.38,15.44,3.76,15.44,3.76C321.491,527.17,313.961,526.42,308.681,525.29z M401.651,541.11
		c-4.02-0.37-5.56-3.92-5.65-4.14c0.39,0.16,8.76,3.7,12.8,1.13C408.801,538.1,405.791,541.49,401.651,541.11z M411.821,532.07
		c-1.51,4.14-14.7,1.88-13.94-0.76C397.881,531.31,413.321,527.92,411.821,532.07z M416.341,528.68c-0.75,1.13-6.41-3.39-11.68-2.26
		s-12.81,1.88-12.43,0.37c0,0,9.42-4.14,15.44-3.76C413.701,523.4,417.091,527.55,416.341,528.68z"/>
	<path style="fill:#ACDAC2;" d="M367.391,510.01c-0.08,0.01-0.16,0.01-0.24,0.02c0.41-0.02,0.81-0.04,1.22-0.07
		c0.06-0.01,0.12-0.01,0.18-0.02C368.161,509.97,367.781,509.99,367.391,510.01z M359.791,510.26h0.29
		c-0.3-0.01-0.61-0.01-0.91-0.01C359.381,510.25,359.581,510.26,359.791,510.26z"/>
	<path style="fill:#ACDAC2;" d="M428.771,435.24c-2.87-10.14-8.18-21.43-12.1-29.06c-2.78-5.42-4.85-8.99-4.85-8.99
		c-3.77-4.14-37.3,8.29-56.14,6.03c-18.83-2.26-42.57-9.42-44.83-7.53c-0.84,0.7-4.24,5.1-8.26,11.71
		c-6.81,11.16-15.42,28.61-16.6,45.17c-1.89,26.38,10.92,41.82,35.79,51.24c0.69,0.26,1.39,0.52,2.1,0.76
		c0.57,0.2,1.15,0.4,1.73,0.58c0.07,0.03,0.13,0.05,0.19,0.06c0.44,0.15,0.88,0.29,1.33,0.42c0.72,0.23,1.46,0.44,2.2,0.64
		c0.04,0.02,0.08,0.03,0.12,0.04c0.19,0.06,0.39,0.11,0.58,0.16c0.75,0.21,1.51,0.41,2.28,0.59c0.25,0.07,0.51,0.13,0.76,0.18
		c0.74,0.18,1.49,0.35,2.24,0.51c1.08,0.24,2.18,0.45,3.28,0.65c0.51,0.1,1.02,0.19,1.54,0.27c0.48,0.08,0.96,0.16,1.44,0.23
		c0.55,0.09,1.11,0.17,1.67,0.24c0.97,0.14,1.95,0.27,2.93,0.37c0.39,0.05,0.78,0.09,1.17,0.13s0.78,0.08,1.17,0.11
		c0.78,0.07,1.56,0.14,2.35,0.19c0.18,0.02,0.36,0.03,0.54,0.04c0.82,0.06,1.65,0.1,2.48,0.14c0.61,0.03,1.22,0.06,1.84,0.07
		c0.12,0.01,0.25,0.01,0.38,0.01c0.27,0.02,0.54,0.02,0.81,0.02c0.75,0.02,1.51,0.03,2.26,0.03c0.3,0,0.61,0,0.91,0.01h0.44
		c1.34-0.01,2.68-0.04,4.03-0.09c0.66-0.03,1.31-0.06,1.96-0.1c0.21-0.01,0.43-0.02,0.64-0.04c0.08-0.01,0.16-0.01,0.24-0.02
		c0.39-0.02,0.77-0.04,1.16-0.07c1.28-0.08,2.57-0.2,3.86-0.34c1.89-0.19,3.79-0.44,5.67-0.73c0.4-0.06,0.8-0.12,1.19-0.19
		c1.75-0.28,3.49-0.61,5.22-0.98c0.44-0.09,0.87-0.18,1.3-0.28c0.43-0.1,0.86-0.2,1.29-0.3c0.86-0.2,1.72-0.42,2.57-0.64
		c0.8-0.21,1.59-0.43,2.38-0.66c0.45-0.13,0.9-0.26,1.35-0.4c0.45-0.13,0.9-0.27,1.35-0.42c0.34-0.1,0.68-0.21,1.03-0.33
		c1-0.32,1.99-0.67,2.97-1.03c0.5-0.18,0.99-0.36,1.48-0.55c0.26-0.1,0.52-0.2,0.77-0.3c0.72-0.28,1.44-0.57,2.15-0.87
		c0.41-0.17,0.81-0.35,1.22-0.53c0.4-0.17,0.8-0.35,1.2-0.54c1.1-0.5,2.18-1.02,3.25-1.56
		C435.551,485.73,433.671,452.57,428.771,435.24z M408.301,462.62c-6.03,21.6-48.72,37.68-54.75,37.17c0,0-46.22-14.06-46.72-42.19
		s18.59-39.69,26.12-39.18c7.54,0.5,19.09,6.53,24.62,5.52c5.52-1,16.07-9.04,27.62-6.03
		C396.751,420.93,414.331,441.02,408.301,462.62z"/>
	<path style="fill:#FEEA8A;" d="M408.301,462.62c-6.03,21.6-48.72,37.68-54.75,37.17c0,0-46.22-14.06-46.72-42.19
		s18.59-39.69,26.12-39.18c7.54,0.5,19.09,6.53,24.62,5.52c5.52-1,16.07-9.04,27.62-6.03
		C396.751,420.93,414.331,441.02,408.301,462.62z"/>
		<g class="hand">
	<path style="fill:#ACDAC2;" d="M431.911,413.4c0,0,0-0.01,0.01,0.01h-0.01C431.911,413.41,431.911,413.41,431.911,413.4z"/>
	<path style="fill:#ACDAC2;" d="M468.581,486.23c0,5.53-4.02,7.54-4.02,7.54l-3.01-10.55c0,0-0.5,10.55-3.02,13.56
		c-2.51,3.01-9.54,4.02-9.54,4.02l3.51-16.05c-0.3,0.69-5.16,11.72-9.54,17.55c-4.52,6.03-8.04,3.52-8.04,3.52
		s4.02-13.06,5.53-27.12c0.06-0.49,0.09-1.03,0.12-1.61c0.02-0.58,0.03-1.2,0.03-1.85c0-0.58,0-1.18-0.02-1.81
		c-0.02-0.52-0.04-1.06-0.07-1.61c0-0.05,0-0.11-0.01-0.16c-0.01-0.32-0.03-0.65-0.05-0.98c-0.06-1-0.13-2.05-0.22-3.13
		c-0.06-0.72-0.12-1.46-0.2-2.21c-0.1-1.14-0.22-2.31-0.36-3.5c-0.07-0.69-0.15-1.4-0.24-2.11c-0.01-0.1-0.03-0.21-0.04-0.31
		c-0.09-0.82-0.19-1.64-0.3-2.48c-0.21-1.67-0.43-3.37-0.68-5.09c-0.06-0.43-0.12-0.86-0.18-1.29c-0.12-0.86-0.24-1.73-0.38-2.59
		c-0.26-1.79-0.53-3.59-0.81-5.36c-0.1-0.61-0.2-1.21-0.29-1.81c-0.14-0.9-0.29-1.79-0.43-2.67c-0.09-0.54-0.18-1.09-0.27-1.62
		c-0.13-0.82-0.27-1.63-0.4-2.43c-0.2-1.2-0.4-2.37-0.6-3.51c-0.13-0.76-0.26-1.51-0.39-2.23c-0.13-0.73-0.25-1.44-0.38-2.12
		c-0.09-0.52-0.18-1.02-0.26-1.51c-0.08-0.45-0.16-0.9-0.24-1.33c-0.06-0.35-0.13-0.7-0.19-1.03c-0.01-0.08-0.03-0.16-0.04-0.24
		c-0.08-0.41-0.15-0.81-0.22-1.2c-0.23-1.24-0.44-2.35-0.62-3.31c-0.09-0.52-0.18-0.99-0.26-1.42c-0.03-0.12-0.05-0.24-0.07-0.36
		c-0.03-0.17-0.06-0.34-0.1-0.49v-0.03c-0.01-0.06-0.02-0.1-0.03-0.15c-0.06-0.3-0.11-0.57-0.16-0.8c0-0.01,0-0.03-0.01-0.04
		c0-0.05-0.01-0.1-0.02-0.14c-0.01-0.05-0.02-0.1-0.03-0.14c-0.05-0.29-0.09-0.49-0.11-0.58v-0.03h0.01c0,0,0.01,0,0.02,0.02
		c0,0,0,0,0.01,0.01c0.03,0.02,0.07,0.06,0.12,0.13l0.02,0.02c0,0,0.01,0,0.01,0.01c0.01,0,0.02,0.01,0.02,0.02
		c0,0,0.01,0,0.01,0.01c0.02,0.01,0.03,0.03,0.05,0.05c0.01,0.01,0.02,0.01,0.02,0.02c0,0,0,0,0.01,0.01c0,0,0.01,0,0.01,0.01
		l0.01,0.01c0.03,0.02,0.06,0.05,0.08,0.08c0.13,0.13,0.29,0.3,0.48,0.5l0.01,0.01c0.04,0.04,0.08,0.09,0.12,0.13
		c0.03,0.03,0.05,0.05,0.08,0.08c0.14,0.15,0.29,0.32,0.46,0.5c0.16,0.18,0.34,0.38,0.53,0.58c0.47,0.53,1.02,1.14,1.62,1.84
		c0.12,0.14,0.25,0.28,0.37,0.43c0.94,1.09,2.02,2.38,3.19,3.85c0.23,0.29,0.47,0.59,0.71,0.9c1.74,2.2,3.66,4.76,5.67,7.65
		c0.28,0.4,0.55,0.8,0.83,1.21c1.07,1.56,2.17,3.21,3.26,4.95c0.34,0.53,0.68,1.07,1.01,1.62c0.34,0.55,0.68,1.1,1.01,1.66
		c0.6,0.99,1.19,2,1.78,3.04c0.26,0.44,0.51,0.88,0.75,1.33c0.51,0.89,1,1.8,1.48,2.72c0.32,0.59,0.63,1.19,0.94,1.79
		c1,1.93,1.98,3.92,2.92,5.97C464.551,465.47,468.581,480.7,468.581,486.23z"/>
	<path style="fill:#ACDAC2;" d="M432.081,413.58c0.01,0,0.01,0,0.01,0v0.01L432.081,413.58z"/>
	</g>
	<path style="fill:#ACDAC2;" d="M273.181,496.28c0,1.5,2.01,8.54,2.01,8.54s-10.55-0.51-10.55-2.01c0-1.51-4.52-9.54-1.52-17.57
		c-0.26,0.35-4.97,6.78-3.51,16.06l-6.53-2.01c0,0-1.5-17.04,4-27.59c-0.52,0.75-9,13.37-8.52,24.58c0,0-5.02-0.51-4.02-10.05
		c1.01-9.54,19.59-52.24,26.63-60.28c7.03-8.03,15.06-19.57,24.59-24.6c0.01,0,0.01-0.01,0.02-0.01c0,0-19.09,44.2-21.6,58.77
		C271.671,474.68,273.181,494.77,273.181,496.28z"/>
	<g>
		<path style="fill:#ACDAC2;" d="M416.341,528.68c-0.75,1.13-6.41-3.39-11.68-2.26s-12.81,1.88-12.43,0.37c0,0,9.42-4.14,15.44-3.76
			C413.701,523.4,417.091,527.55,416.341,528.68z"/>
		<path style="fill:#ACDAC2;" d="M411.821,532.07c-1.51,4.14-14.7,1.88-13.94-0.76C397.881,531.31,413.321,527.92,411.821,532.07z"
			/>
		<path style="fill:#ACDAC2;" d="M408.801,538.1c0,0-3.01,3.39-7.15,3.01c-4.02-0.37-5.56-3.92-5.65-4.14
			C396.391,537.13,404.761,540.67,408.801,538.1z"/>
	</g>
	<g>
		<path style="fill:#ACDAC2;" d="M321.111,525.66c0.38,1.51-7.15,0.76-12.43-0.37c-5.27-1.13-10.92,3.39-11.68,2.26
			c-0.75-1.13,2.64-5.28,8.67-5.65C311.691,521.52,321.111,525.66,321.111,525.66z"/>
		<path style="fill:#ACDAC2;" d="M301.521,530.94c-1.5-4.15,13.94-0.76,13.94-0.76C316.221,532.82,303.031,535.08,301.521,530.94z"
			/>
		<path style="fill:#ACDAC2;" d="M317.341,535.84c-0.09,0.22-1.63,3.77-5.65,4.14c-4.14,0.38-7.15-3.02-7.15-3.02
			C308.581,539.54,316.951,536,317.341,535.84z"/>
	</g>
	<path style="fill:#ACDAC2;" d="M409.561,558.46h-3.27c0,0-0.56-5.92-2.56-7.93v8.29l-5.25-0.51c0,0,0.26-6.58-0.99-7.83l-0.99,7.98
		h-5.53c0,0-14.31-5.98-12.05-7.48c2.26-1.51,5.52-1.96,9.04-3.22c0,0,14.56-2.94,19.09-0.42
		C411.571,549.85,409.561,558.46,409.561,558.46z"/>
	<path style="fill:#ACDAC2;" d="M316.581,554.46h-5.53l-1.01-7.87c-1.26,1.26-1.02,7.96-1.02,7.96l-5.29,0.5v-8.29
		c-2,2.01-2.47,8.7-2.47,8.7h-3.27c0,0-0.03-0.12-0.07-0.35c-0.31-1.68-1.41-8.95,2.58-11.16c0.09-0.05,0.19-0.1,0.29-0.15
		c0.18-0.08,0.36-0.15,0.56-0.23c1.68-0.59,4.14-0.76,6.72-0.71c0.16,0,0.33,0,0.49,0.01c0.36,0.01,0.72,0.02,1.08,0.04
		c0.29,0.01,0.58,0.02,0.87,0.04c0.28,0.02,0.55,0.04,0.83,0.06c0.29,0.01,0.57,0.04,0.85,0.06c4.01,0.33,7.4,0.93,7.4,0.93
		c3.52,1.25,6.78,1.59,9.05,3.09C330.901,548.6,316.581,554.46,316.581,554.46z"/>
</g>
</svg>
