<svg width="504" height="504" viewBox="0 0 504 504" fill="none" xmlns="http://www.w3.org/2000/svg">
<path d="M334.631 315.257C335.578 317.521 336.168 319.851 335.873 322.33C335.75 323.36 335.559 324.382 335.427 325.412C335.313 326.303 335.212 327.197 335.155 328.093C335.025 330.122 335.691 331.908 336.915 333.496C337.337 334.043 337.812 334.55 338.279 335.06C339.553 336.452 340.137 338.108 340.204 339.974C340.262 341.582 340.086 343.153 339.485 344.658C339.075 345.686 338.677 346.719 338.239 347.735C337.19 350.17 336.412 352.663 336.457 355.354C336.459 355.457 336.337 355.563 336.273 355.667C334.681 354.648 333.716 353.127 333.541 351.121C333.445 350.023 333.507 348.909 333.524 347.803C333.537 346.973 333.605 346.144 333.629 345.314C333.676 343.713 333.113 342.326 332.062 341.143C331.512 340.524 330.953 339.89 330.304 339.383C327.333 337.063 326.197 333.91 326.115 330.285C326.084 328.904 326.098 327.509 326.248 326.138C326.637 322.594 325.761 319.432 323.662 316.565C322.469 314.934 321.149 313.434 319.56 312.185C317.551 310.606 315.313 309.387 313.193 308.05C312.72 308.445 313.085 308.638 313.211 308.791C314.094 309.856 315.044 310.868 315.898 311.956C317.489 313.981 318.819 316.149 319.484 318.683C320.324 321.886 320.044 324.997 318.807 328.033C318.099 329.772 317.062 331.328 315.989 332.863C315.078 334.166 314.188 335.488 313.367 336.849C311.604 339.77 311.424 342.848 312.616 346.022C312.859 346.669 313.152 347.298 313.389 347.947C313.674 348.725 313.972 349.504 314.179 350.305C314.811 352.752 314.345 354.986 312.679 356.902C311.515 358.242 310.23 359.479 309.482 361.137C309.259 360.984 309.094 360.933 309.075 360.849C308.922 360.177 308.706 359.501 308.685 358.82C308.653 357.787 308.744 356.749 308.817 355.716C308.856 355.165 308.941 354.615 309.047 354.072C309.558 351.473 308.914 349.142 307.469 346.976C307.048 346.344 306.65 345.687 306.328 345.001C305.358 342.938 305.037 340.798 305.563 338.537C305.927 336.975 306.47 335.49 307.161 334.053C307.641 333.055 308.112 332.053 308.628 331.074C309.898 328.668 309.95 326.182 309.202 323.622C308.472 321.123 307.192 318.92 305.579 316.907C304.758 315.882 303.845 314.931 302.978 313.942C302.021 312.849 301.042 311.773 300.12 310.651C296.792 306.601 295.168 301.901 294.916 296.705C294.829 294.908 294.86 293.106 294.807 291.308C294.758 289.646 294.587 288.001 294.124 286.389C293.239 283.304 291.41 280.989 288.624 279.407C286.869 278.41 285.017 277.656 283.068 277.147C280.062 276.363 276.993 275.917 274.001 275.41C273.574 275.735 273.664 276.096 273.755 276.415C274.507 279.046 275.993 280.984 278.762 281.734C279.627 281.968 280.485 282.253 281.313 282.595C283.623 283.55 285.199 285.193 285.852 287.646C286.083 288.514 286.355 289.379 286.494 290.264C286.908 292.895 287.628 295.393 289.522 297.577C289.033 297.771 288.687 298.005 288.324 298.038C285.84 298.263 283.813 297.402 282.477 295.265C281.936 294.4 281.612 293.39 281.253 292.423C281.038 291.843 280.94 291.219 280.797 290.613C280.189 288.051 278.602 286.529 275.997 286.083C275.247 285.955 274.497 285.826 273.75 285.678C273.209 285.571 272.67 285.447 272.136 285.306C270.166 284.785 268.656 283.625 267.619 281.89C267.089 281.003 266.626 280.064 266.237 279.107C265.507 277.311 264.358 275.901 262.706 274.886C261.038 273.862 259.544 272.646 258.552 270.786C258.127 271.049 257.766 271.228 257.457 271.472C255.537 272.992 253.964 274.815 252.708 276.919C251.786 278.463 250.905 280.04 249.875 281.511C247.802 284.472 244.933 286.314 241.398 287.032C240.4 287.235 239.335 287.211 238.31 287.15C236.792 287.059 235.282 286.842 233.768 286.677C232.453 286.534 231.152 286.573 229.842 286.806C227.339 287.252 225.31 288.45 223.781 290.471C223.114 291.353 222.495 292.273 221.868 293.185C220.431 295.278 218.572 296.918 216.39 298.178C215.621 298.622 214.77 298.985 213.91 299.198C211.859 299.706 209.931 299.448 208.19 297.848C208.471 297.615 208.685 297.377 208.95 297.227C210.214 296.514 211.546 295.909 212.751 295.109C214.811 293.741 215.893 291.687 216.43 289.32C216.44 289.274 216.358 289.207 216.369 289.223C214.8 289.793 213.278 290.444 211.697 290.886C210.507 291.219 209.244 291.295 208.011 291.465C205.375 291.829 202.874 292.607 200.626 294.041C199.642 294.669 198.706 295.41 197.876 296.229C196.565 297.523 195.724 299.115 195.534 300.978C195.401 302.284 195.304 303.597 195.274 304.908C195.227 306.926 194.989 308.909 194.414 310.847C193.102 315.273 190.373 318.347 185.884 319.703C184.363 320.163 182.801 320.488 181.284 320.958C179.703 321.447 178.127 321.97 176.597 322.598C174.586 323.423 173.178 324.899 172.365 326.933C172.057 327.703 171.687 328.449 171.371 329.216C170.574 331.151 169.184 332.334 167.121 332.8C165.589 333.146 164.09 333.636 162.523 334.077C162.23 333.792 162.498 333.495 162.658 333.225C163.125 332.437 163.766 331.818 164.554 331.345C165.147 330.989 165.71 330.582 166.31 330.239C167.793 329.391 168.587 328.067 169.003 326.463C169.263 325.46 169.515 324.453 169.802 323.458C170.28 321.802 171.276 320.507 172.628 319.459C174.061 318.349 175.635 317.502 177.298 316.792C179.268 315.951 181.229 315.083 183.163 314.163C184.484 313.535 185.632 312.65 186.603 311.533C187.6 310.386 188.157 309.092 188.119 307.563C188.098 306.733 188.099 305.899 188.014 305.075C187.742 302.424 187.923 299.826 188.797 297.291C188.859 297.111 188.805 296.89 188.805 296.65C186.128 296.107 183.459 296.008 180.774 296.534C178.072 297.064 176.069 298.53 174.953 301.049C174.397 302.304 173.986 303.64 173.651 304.974C173.11 307.127 172.458 309.233 171.558 311.264C170.724 313.145 169.525 314.744 167.795 315.858C165.937 317.055 164.013 318.151 162.102 319.264C160.967 319.925 159.776 320.491 158.656 321.174C156.405 322.546 155.09 324.603 154.517 327.145C154.335 327.953 154.223 328.779 154.111 329.6C153.858 331.461 153.372 333.255 152.687 335.003C151.697 337.528 149.941 339.287 147.447 340.312C146.296 340.785 145.147 341.284 143.958 341.636C139.733 342.887 136.984 345.702 135.271 349.656C135.161 349.91 135.058 350.167 134.941 350.417C134.914 350.475 134.841 350.511 134.686 350.649C134.516 350.372 134.286 350.135 134.212 349.856C133.304 346.419 133.666 343.123 135.454 340.035C136.389 338.419 137.428 336.863 138.407 335.272C138.869 334.521 139.416 333.805 139.584 332.943C139.251 332.528 139.008 332.84 138.858 332.981C137.849 333.924 136.786 334.826 135.891 335.871C131.894 340.535 129.346 345.93 127.963 351.896C127.588 353.513 127.142 355.114 126.795 356.736C125.807 361.351 123.744 365.465 121.033 369.284C120.072 370.638 119.076 371.97 118.15 373.348C115.928 376.654 114.183 380.186 113.63 384.171C113.355 386.151 113.273 388.17 113.269 390.172C113.265 392.176 113.376 394.19 113.593 396.182C114.193 401.692 113.232 406.941 111.05 411.982C110.172 414.01 109.101 415.955 108.111 417.934C106.185 421.785 104.7 425.799 103.683 429.982C103.425 431.042 103.27 432.127 103.015 433.486C102.637 432.996 102.394 432.771 102.262 432.494C101.513 430.919 101.041 429.266 100.904 427.519C100.675 424.596 101.026 421.717 101.527 418.847C101.872 416.871 102.209 414.893 102.536 412.914C103.141 409.253 102.536 405.75 101.116 402.361C101.04 402.179 100.884 402.029 100.651 401.705C100.425 402.485 100.241 403.129 100.052 403.771C99.462 405.773 98.711 407.701 97.418 409.371C96.785 410.189 96.12 410.976 95.17 411.414C94.597 410.98 95.062 410.604 95.176 410.295C96.219 407.475 96.736 404.562 96.835 401.567C96.887 399.965 96.738 398.382 96.302 396.84C95.719 394.778 95.091 392.729 94.481 390.674C94.383 390.343 94.292 390.007 94.171 389.684C92.858 386.164 93.682 383.034 95.887 380.144C97.02 378.66 98.129 377.158 99.245 375.661C99.493 375.328 99.742 374.993 99.954 374.637C101.147 372.635 101.893 370.511 101.723 368.134C101.649 367.099 101.621 366.06 101.541 365.025C101.275 361.615 101.992 358.43 103.65 355.442C104.799 353.372 106.234 351.514 107.775 349.73C108.409 348.997 109.051 348.271 109.669 347.525C109.821 347.341 109.891 347.09 110.013 346.842C109.771 346.798 109.621 346.719 109.513 346.758C107.694 347.417 105.878 348.084 104.068 348.765C103.616 348.935 103.186 349.161 102.748 349.366C100.518 350.412 99.202 352.124 98.77 354.577C98.532 355.934 98.119 357.264 97.734 358.591C96.984 361.175 95.584 363.364 93.661 365.241C92.622 366.255 91.61 367.3 90.64 368.38C88.883 370.336 88.141 372.655 88.358 375.271C88.45 376.374 88.627 377.469 88.704 378.573C88.815 380.157 89.067 381.764 88.906 383.325C88.6 386.285 87.076 388.495 84.215 389.626C84.031 389.699 83.817 389.697 83.48 389.753C83.525 389.297 83.506 388.891 83.611 388.519C84.461 385.501 84.298 382.508 83.53 379.499C83.155 378.029 82.831 376.534 82.65 375.03C82.259 371.78 83.135 368.85 85.213 366.317C86.133 365.195 87.076 364.075 88.131 363.084C90.339 361.009 91.585 358.453 92.213 355.542C92.417 354.596 92.623 353.65 92.848 352.708C93.47 350.102 94.868 348.034 97.129 346.566C97.476 346.341 97.802 346.083 98.135 345.837C98.19 345.796 98.232 345.738 98.336 345.629C98.611 344.037 98.607 342.4 98.087 340.78C97.791 339.858 97.491 338.937 97.225 338.007C96.398 335.12 96.752 332.349 98.344 329.829C99.299 328.318 100.484 326.946 101.623 325.559C102.456 324.544 103.377 323.6 104.269 322.634C105.971 320.793 106.719 318.637 106.351 316.148C106.098 314.439 105.76 312.743 105.461 311.04C105.269 309.95 105.051 308.864 104.895 307.769C104.515 305.102 104.765 302.505 106.025 300.093C106.456 299.268 106.501 298.523 106.132 297.725C105.667 296.722 105.149 295.743 104.692 294.736C103.979 293.164 103.222 291.606 102.621 289.99C101.817 287.828 101.884 285.655 102.871 283.53C103.279 282.653 103.62 281.745 103.977 280.845C104.687 279.06 104.81 277.26 104.393 275.355C103.935 273.266 103.628 271.138 103.381 269.012C103.222 267.64 103.351 266.257 103.739 264.9C104.215 263.237 105.11 261.882 106.501 260.872C107.228 260.345 108.023 259.912 108.754 259.39C109.766 258.669 110.795 257.96 111.731 257.146C113.216 255.855 113.978 254.189 113.959 252.198C113.952 251.437 113.965 250.674 113.916 249.915C113.729 247.005 113.671 244.115 115.17 241.29C114.719 241.29 114.444 241.224 114.217 241.301C112.71 241.807 111.211 242.336 109.714 242.872C107.6 243.629 105.745 244.799 104.117 246.351C102.702 247.7 101.906 249.299 101.738 251.268C101.573 253.195 101.28 255.113 101.006 257.03C100.716 259.063 99.86 260.863 98.619 262.484C97.862 263.473 97.06 264.429 96.327 265.435C95.759 266.215 95.192 267.013 94.756 267.87C93.978 269.399 93.728 271.024 94.281 272.698C94.584 273.616 94.899 274.533 95.258 275.431C96.334 278.125 96.261 280.856 95.444 283.571C95.025 284.963 94.35 286.261 92.919 287.198C92.813 286.908 92.655 286.683 92.663 286.465C92.765 283.813 91.905 281.432 90.66 279.15C90.262 278.422 89.88 277.684 89.522 276.936C88.764 275.352 88.424 273.666 88.332 271.92C88.211 269.608 88.971 267.563 90.234 265.68C90.851 264.761 91.51 263.87 92.158 262.972C93.477 261.144 93.999 259.133 93.62 256.891C93.482 256.073 93.475 255.234 93.337 254.416C92.573 249.89 93.895 245.935 96.627 242.376C98.114 240.439 99.955 238.865 101.912 237.421C102.522 236.971 103.134 236.523 103.857 235.992C103.553 235.73 103.337 235.48 103.067 235.323C101.607 234.473 100.435 233.311 99.386 232.007C98.431 230.821 97.493 229.621 96.503 228.465C95.743 227.579 94.907 226.76 93.847 226.271C93.471 226.598 93.72 226.827 93.854 227.028C95.742 229.848 95.366 232.663 93.804 235.447C93.366 236.227 92.817 236.953 92.262 237.658C90.823 239.483 90.254 241.555 90.312 243.856C90.34 244.959 90.26 246.068 90.162 247.169C90.068 248.223 89.649 249.176 89.004 250.014C88.855 250.207 88.619 250.333 88.41 250.499C88.279 250.291 88.151 250.184 88.16 250.088C88.333 248.107 87.954 246.213 87.144 244.426C86.039 241.988 86.147 239.598 87.194 237.193C87.636 236.178 88.067 235.159 88.503 234.142C89.39 232.073 89.225 230.062 88 228.203C87.32 227.172 86.488 226.232 85.656 225.313C85.102 224.701 84.419 224.207 83.807 223.646C79.807 219.984 78.392 215.415 79.113 210.121C79.318 208.614 79.618 207.12 79.887 205.622C80.584 201.732 80.311 197.905 79.142 194.137C78.876 193.279 78.564 192.434 78.279 191.581C77.347 188.792 76.992 185.929 77.123 182.992C77.228 180.654 77.895 178.49 79.115 176.517C79.95 175.166 80.856 173.849 81.835 172.598C84.71 168.922 86.569 164.82 87.289 160.201C87.438 159.246 87.698 158.309 87.906 157.364C88.495 154.687 89.623 152.264 91.279 150.077C91.947 149.195 92.518 148.242 93.169 147.347C94.434 145.606 94.747 143.731 94.201 141.644C93.692 139.698 93.512 137.7 93.478 135.683C93.429 132.79 94.296 130.243 96.147 128.019C96.899 127.115 97.644 126.202 98.343 125.258C99.572 123.598 100.235 121.758 100.175 119.65C100.104 117.151 100.386 114.676 100.95 112.237C101.406 110.263 102.167 108.433 103.358 106.77C104.652 104.963 106.324 103.686 108.386 102.918C109.551 102.484 110.735 102.093 111.931 101.753C114.672 100.973 116.978 99.552 118.814 97.351C119.7 96.289 120.67 95.298 121.614 94.285C124.843 90.822 128.805 88.739 133.472 87.953C135.583 87.598 137.685 87.211 139.704 86.423C141.135 85.864 142.488 85.199 143.731 84.309C145.812 82.819 147.868 81.294 150.199 80.196C150.28 80.158 150.295 79.979 150.384 79.761C147.141 79.375 144.046 79.447 141.308 81.506C140.921 81.797 140.507 82.052 140.121 82.344C137.564 84.286 134.702 85.015 131.523 84.566C130.565 84.431 129.597 84.314 128.632 84.297C126.014 84.252 123.937 85.25 122.555 87.558C121.809 88.804 121.013 90.021 120.218 91.236C119.384 92.51 118.187 93.29 116.73 93.681C116.534 93.734 116.319 93.724 116.113 93.725C116.054 93.725 115.995 93.662 115.888 93.601C115.933 93.435 115.934 93.221 116.036 93.08C117.22 91.439 118.022 89.601 118.823 87.76C119.237 86.809 119.686 85.873 120.125 84.933C121.841 81.253 124.881 79.282 128.705 78.389C129.774 78.14 130.894 78.093 131.995 77.998C132.752 77.933 133.519 77.975 134.277 77.917C136.261 77.765 138.061 77.129 139.576 75.798C140.356 75.113 141.13 74.421 141.899 73.724C145.046 70.869 148.681 70.15 152.706 71.325C154.096 71.731 155.442 72.288 156.801 72.796C158.478 73.423 160.16 74.021 162.183 74.193C161.305 72.571 159.918 71.361 160 69.541C160.529 69.262 160.829 69.663 161.186 69.785C162.295 70.164 163.37 70.654 164.495 70.97C167.068 71.693 169.575 71.369 171.969 70.235C174.669 68.956 177.13 67.295 179.503 65.483C181.536 63.93 183.593 62.399 185.729 60.995C190.206 58.051 195.179 56.498 200.49 55.904C204.877 55.413 209.189 55.951 213.504 56.615C216.784 57.12 220.053 57.775 223.398 57.612C224.634 57.552 225.866 57.396 227.595 57.239C226.848 56.864 226.537 56.711 226.229 56.553C224.939 55.892 223.644 55.239 222.36 54.564C220.525 53.599 218.72 52.575 216.864 51.655C214.983 50.723 213.008 50.677 211.002 51.268C209.743 51.639 208.475 51.979 207.208 52.323C205.915 52.674 204.615 52.673 203.301 52.412C202.013 52.156 200.711 51.967 199.423 51.709C197.702 51.365 195.993 51.302 194.28 51.757C194.021 51.826 193.741 51.811 193.249 51.854C193.458 51.448 193.538 51.14 193.732 50.944C195.065 49.587 196.77 49.037 198.602 48.92C200.118 48.824 201.648 48.842 203.167 48.903C205.426 48.994 207.568 48.561 209.634 47.679C210.27 47.408 210.918 47.164 211.549 46.883C214.08 45.758 216.653 45.741 219.239 46.629C220.348 47.01 221.427 47.484 222.504 47.951C223.709 48.474 224.894 49.043 226.092 49.583C229.935 51.315 233.895 51.806 238.042 50.864C239.654 50.498 241.315 50.314 242.965 50.158C245.121 49.954 247.248 50.224 249.323 50.854C251.506 51.517 253.691 52.172 255.865 52.864C258.598 53.733 261.374 54.175 264.249 53.914C265.351 53.814 266.461 53.802 267.565 53.716C270.715 53.471 273.784 53.865 276.758 54.914C278.256 55.443 279.722 56.064 281.197 56.657C282.685 57.255 284.206 57.641 285.826 57.692C287.346 57.741 288.866 57.883 290.377 58.055C292.877 58.34 295.238 59.134 297.469 60.271C299.008 61.056 300.492 61.949 301.984 62.822C303.297 63.59 304.592 64.391 305.888 65.189C309.463 67.392 313.367 68.391 317.544 68.353C319.065 68.339 320.587 68.258 322.107 68.175C326.81 67.919 331.503 67.775 336.201 68.4C339.701 68.865 342.929 69.944 345.811 71.997C347.107 72.92 348.411 73.836 349.662 74.819C352.074 76.715 354.79 77.782 357.848 78.01C361.326 78.27 364.466 79.385 367.123 81.713C368.631 83.035 370.387 83.699 372.393 83.892C374.81 84.124 377.148 84.679 379.321 85.88C382.791 87.799 384.177 90.323 383.705 94.241C383.599 95.118 383.506 96.017 383.047 96.744C382.55 96.893 382.524 96.536 382.417 96.329C382.227 95.961 382.065 95.577 381.915 95.19C380.904 92.576 378.963 91.103 376.267 90.505C374.424 90.096 372.581 89.902 370.707 90.225C367.758 90.733 365.244 89.861 363.091 87.834C362.738 87.502 362.381 87.175 362.024 86.847C360.861 85.779 359.471 85.217 357.918 85.038C357.024 84.935 356.128 84.859 355.231 84.783C354.188 84.694 353.182 84.475 352.236 84.009C352.003 83.894 351.764 83.711 351.448 83.919C351.448 84.101 351.387 84.316 351.457 84.472C352.321 86.379 353.451 88.109 354.965 89.569C356.241 90.8 357.783 91.576 359.47 92.036C361.27 92.526 363.109 92.875 364.907 93.371C367.103 93.977 369.308 94.58 371.451 95.347C375.652 96.851 378.914 99.503 380.95 103.549C381.199 104.043 381.518 104.501 381.764 104.996C383.285 108.053 385.795 110.076 388.786 111.509C390.708 112.43 392.338 113.61 393.582 115.35C394.184 116.192 394.887 116.963 395.563 117.751C397.065 119.503 398.835 120.926 400.856 122.043C402.309 122.846 403.743 123.683 405.197 124.483C409.259 126.718 412.09 130.003 413.524 134.416C414.207 136.517 414.795 138.658 415.28 140.813C416.362 145.614 417.58 150.363 419.77 154.805C419.847 154.961 419.8 155.178 419.811 155.374C416.774 155.175 414.185 153.384 412.852 150.554C412.2 149.169 411.79 147.704 411.577 146.187C411.307 144.269 411.014 142.353 410.781 140.431C410.378 137.11 408.93 134.387 406.309 132.285C404.853 131.117 403.357 130.02 401.759 129.116C401.357 129.428 401.603 129.674 401.733 129.869C402.462 130.963 403.239 132.026 403.95 133.131C404.886 134.585 405.799 136.054 406.679 137.542C408.077 139.905 408.801 142.49 409.073 145.207C409.232 146.791 409.391 148.375 409.501 149.962C409.73 153.274 410.914 156.139 413.341 158.453C413.942 159.026 414.518 159.625 415.111 160.206C415.655 160.739 416.206 161.264 416.756 161.791C420.976 165.831 423.048 170.806 423.193 176.614C423.227 177.998 423.27 179.383 423.242 180.767C423.158 185.029 423.796 189.171 425.126 193.224C425.815 195.326 426.33 197.476 426.655 199.676C427.545 205.703 426.007 211.077 422.31 215.834C420.998 217.522 419.453 219.029 417.995 220.601C416.491 222.222 414.965 223.824 413.44 225.426C413.315 225.557 413.12 225.622 412.879 225.764C412.641 224.915 412.883 224.199 413.075 223.484C413.616 221.462 414.541 219.608 415.555 217.791C416.533 216.039 417.545 214.305 418.47 212.525C420.131 209.325 420.883 205.909 420.687 202.302C420.578 200.29 420.124 198.337 419.59 196.398C418.911 193.933 418.26 191.459 417.645 188.977C417.433 188.123 417.364 187.233 417.197 186.147C416.857 186.39 416.626 186.498 416.473 186.675C415.341 187.983 414.183 189.271 413.115 190.63C411.92 192.151 410.709 193.675 409.686 195.311C407.561 198.71 407.048 202.362 408.169 206.264C408.932 208.92 409.58 211.614 410.162 214.316C410.643 216.55 410.935 218.811 410.412 221.109C409.957 223.11 409.184 224.936 407.742 226.412C406.826 227.35 405.85 228.237 404.846 229.081C404.054 229.747 403.212 230.37 402.333 230.916C399.093 232.927 396.669 235.751 394.398 238.739C393.163 240.364 392.335 242.185 391.896 244.164C391.234 247.15 391.916 249.799 394.136 251.959C394.927 252.729 395.833 253.38 396.669 254.105C398.132 255.373 399.597 256.64 401.035 257.936C403.615 260.263 404.799 263.17 404.6 266.646C404.553 267.474 404.595 268.307 404.572 269.137C404.525 270.812 405.06 272.25 406.218 273.476C406.882 274.179 407.526 274.911 408.1 275.688C409.958 278.205 410.655 281.02 410.141 284.119C409.79 286.234 409.431 288.349 409.085 290.465C408.57 293.621 408.377 296.79 408.694 299.981C408.712 300.163 408.638 300.355 408.611 300.518C408.211 300.677 408.046 300.396 407.886 300.2C405.952 297.826 404.907 295.081 404.536 292.062C404.247 289.708 404.396 287.353 404.664 285.017C404.984 282.236 404.255 279.818 402.525 277.663C402.352 277.447 402.189 277.223 402.01 277.011C400.455 275.172 399.508 273.048 399.105 270.683C398.463 270.625 398.439 271.119 398.309 271.447C397.173 274.303 396.95 277.257 397.755 280.202C398.428 282.665 399.324 285.07 400.192 287.475C401.246 290.393 401.708 293.38 401.252 296.45C401.051 297.806 400.607 299.131 400.212 300.452C399.876 301.577 399.435 302.669 399.072 303.786C398.676 305.001 398.642 306.239 398.997 307.468C399.361 308.729 399.75 309.984 400.152 311.234C400.703 312.945 401.345 314.63 401.825 316.36C402.589 319.112 402.912 321.911 402.564 324.782C402.31 326.879 401.615 328.815 400.728 330.698C398.945 334.487 398.293 338.466 398.69 342.621C399.037 346.258 400.6 349.233 403.62 351.362C404.466 351.959 405.377 352.463 406.252 353.02C407.827 354.023 409.439 354.974 410.961 356.052C413.718 358.004 415.848 360.511 417.399 363.53C418.831 366.318 419.378 369.272 419.247 372.365C419.168 374.231 419.042 376.098 418.841 377.954C418.48 381.295 418.622 384.581 419.567 387.824C420.07 389.55 420.557 391.286 420.92 393.044C421.254 394.664 421.447 396.317 421.637 397.963C421.964 400.797 421.326 403.465 420.105 406.01C419.716 406.82 419.295 407.616 418.873 408.409C418.288 409.508 417.678 410.595 417.096 411.695C414.402 416.784 413.947 422.102 415.601 427.586C416.118 429.3 416.867 430.945 417.517 432.618C417.658 432.981 418.03 433.275 417.785 433.843C416.817 433.477 416.006 432.848 415.178 432.274C410.625 429.118 408.479 424.684 408.295 419.217C408.206 416.558 408.692 413.979 409.381 411.435C409.887 409.566 410.445 407.711 411.025 405.863C412.133 402.335 412.249 398.796 411.252 395.227C410.88 393.895 410.566 392.545 410.144 391.23C408.905 387.37 408.409 383.405 408.398 379.368C408.392 377.291 408.386 375.215 408.417 373.138C408.485 368.499 406.925 364.469 403.958 360.939C402.576 359.295 401.102 357.75 399.177 356.08C399.345 356.714 399.36 357.017 399.497 357.248C401.738 361.041 402.358 365.132 401.799 369.454C401.613 370.895 401.466 372.341 401.321 373.787C401.054 376.451 401.329 379.05 402.453 381.501C403.202 383.134 404.028 384.733 404.859 386.326C405.922 388.365 406.724 390.478 407.084 392.765C407.614 396.139 407.157 399.405 405.977 402.555C405.301 404.36 404.412 406.097 403.49 407.795C402.302 409.983 400.971 412.093 399.728 414.251C398.207 416.89 396.818 419.597 395.66 422.419C394.089 426.247 393.347 430.229 393.351 434.361C393.353 436.033 393.575 437.67 393.97 439.291C394.061 439.664 394.059 440.059 394.123 440.659C392.197 439.749 390.798 438.543 389.7 437.013C387.161 433.474 386.217 429.527 386.888 425.218C387.297 422.596 388.231 420.139 389.42 417.781C390.509 415.62 391.651 413.485 392.81 411.261C392.676 411.087 392.542 410.845 392.347 410.671C389.401 408.025 387.379 404.756 385.88 401.131C384.066 396.746 383.174 392.138 382.547 387.461C382.281 385.473 381.984 383.487 381.631 381.513C381.238 379.317 380.42 377.268 379.367 375.3C377.932 372.616 376.516 369.921 375.161 367.195C374.332 365.526 373.633 363.792 372.844 362.016C372.544 361.921 372.231 361.781 371.903 361.724C362.265 360.046 354.696 355.169 349.203 347.071C346.82 343.558 344.959 339.775 343.492 335.805C342.174 332.238 340.966 328.63 339.722 325.037C338.748 322.223 337.71 319.436 336.181 316.865C335.864 316.332 335.51 315.816 335.127 315.329C335.05 315.231 334.763 315.3 334.58 315.287C334.647 315.188 334.744 315.096 334.752 314.997C334.757 314.936 334.625 314.865 334.555 314.798C334.552 314.898 334.54 315 334.551 315.099C334.557 315.155 334.603 315.205 334.631 315.257ZM177.516 262.162C177.163 262.366 176.818 262.585 176.456 262.772C174.432 263.815 172.344 264.75 170.388 265.907C165.203 268.973 161.176 273.134 158.654 278.677C157.596 281.004 156.443 283.287 155.332 285.59C153.248 289.913 150.296 293.511 146.333 296.239C144.398 297.571 142.436 298.865 140.445 300.111C137.621 301.879 134.982 303.885 132.592 306.198C131.556 307.201 130.687 308.377 129.757 309.487C129.581 309.698 129.495 309.963 129.852 310.163C130.02 310.076 130.22 310.006 130.38 309.884C133.908 307.197 137.714 304.947 141.556 302.75C143.895 301.413 146.232 300.068 148.519 298.647C152.765 296.009 156.191 292.55 158.65 288.176C160.411 285.044 162.13 281.888 163.887 278.755C165.036 276.707 166.151 274.634 167.405 272.651C169.764 268.92 172.787 265.821 176.552 263.476C176.903 263.258 177.257 263.03 177.554 262.749C177.638 262.67 177.524 262.383 177.502 262.192C177.604 262.197 177.706 262.201 177.808 262.209C177.813 262.209 177.816 262.24 177.819 262.256C177.72 262.224 177.618 262.193 177.516 262.162ZM370.152 355.864C370.21 354.615 369.959 353.803 369.047 353.163C367.091 351.79 365.956 349.822 365.444 347.521C365.145 346.175 364.892 344.799 364.825 343.426C364.683 340.514 363.497 338.091 361.629 335.943C360.63 334.794 359.606 333.668 358.584 332.539C357.011 330.801 355.985 328.774 355.59 326.478C355.333 324.984 355.234 323.457 355.163 321.94C355.098 320.559 355.159 319.172 355.179 317.788C355.204 315.981 354.997 314.2 354.677 312.424C354.398 310.876 353.748 309.527 352.669 308.4C352.049 307.752 351.394 307.124 350.686 306.576C349.319 305.518 347.928 304.486 346.503 303.507C339.262 298.532 333.348 292.324 328.909 284.722C327.688 282.631 326.415 280.57 325.113 278.529C323.734 276.367 322.203 274.314 320.382 272.495C317.91 270.027 314.961 268.426 311.504 267.907C309.8 267.651 308.055 267.528 306.332 267.561C301.346 267.656 296.399 268.274 291.453 268.863C291.118 268.903 290.797 269.058 290.253 269.226C292.114 269.774 293.713 270.203 295.283 270.717C298.561 271.791 301.135 273.803 302.984 276.715C303.651 277.765 304.272 278.847 304.857 279.944C305.606 281.347 306.286 282.787 307.015 284.201C308.51 287.101 310.271 289.827 312.344 292.351C314.569 295.06 317.199 297.275 320.33 298.864C321.871 299.646 323.443 300.367 325.006 301.103C326.758 301.927 328.539 302.692 330.267 303.563C336.303 306.605 340.749 311.191 343.423 317.415C344.377 319.635 345.157 321.931 345.987 324.203C347.386 328.034 348.685 331.904 350.167 335.703C351.555 339.259 353.406 342.585 355.713 345.643C358.118 348.831 361.009 351.476 364.475 353.475C366.213 354.477 368.022 355.313 370.152 355.864ZM197.94 175.368C197.343 174.78 196.685 174.85 196.098 174.711C190.468 173.381 184.968 169.52 183.958 161.875C183.632 159.408 183.407 156.927 183.194 154.447C182.916 151.202 182.534 147.98 181.537 144.86C180.324 141.061 178.004 138.157 174.519 136.219C173.312 135.548 172.051 134.973 170.808 134.367C169.379 133.67 167.922 133.026 166.515 132.287C164.28 131.114 162.388 129.514 160.842 127.511C157.67 123.402 156.534 118.758 157.207 113.647C157.505 111.384 157.873 109.13 158.168 106.867C158.612 103.468 158.266 100.109 157.684 96.749C157.183 93.86 157.199 90.962 158.039 88.113C158.113 87.862 158.136 87.597 158.222 87.122C157.753 87.329 157.435 87.413 157.182 87.589C155.878 88.498 154.538 89.368 153.307 90.37C150.813 92.4 148.766 94.818 147.298 97.703C145.979 100.295 145.399 103.016 145.698 105.932C145.933 108.221 146.534 110.419 147.209 112.598C148.525 116.85 149.312 121.189 149.578 125.63C149.703 127.712 150.121 129.746 150.859 131.7C151.78 134.141 153.375 135.981 155.821 136.994C157.225 137.576 158.661 138.082 160.065 138.664C161.724 139.351 163.405 140.004 165.004 140.815C167.128 141.892 168.91 143.415 170.295 145.383C171.32 146.839 171.911 148.438 171.955 150.216C171.989 151.599 171.969 152.984 171.948 154.368C171.918 156.31 172.006 158.238 172.397 160.15C173.386 164.988 175.459 169.196 179.531 172.175C183.687 175.216 188.352 176.723 193.531 176.398C195.003 176.303 196.479 176.078 197.94 175.368ZM214.325 88.874C214.583 89.007 214.784 89.17 215.011 89.219C216.966 89.647 218.91 90.162 220.887 90.447C225.695 91.14 230.539 91.125 235.385 91.015C239.327 90.926 243.27 90.853 247.213 90.812C250.471 90.778 253.706 91.048 256.909 91.679C263.104 92.9 268.578 95.489 273.019 100.073C274.078 101.166 275.172 102.225 276.242 103.307C278.949 106.046 282.046 108.19 285.629 109.646C287.355 110.347 289.042 111.157 290.704 112.002C293.535 113.442 295.838 115.495 297.559 118.181C298.007 118.88 298.497 119.552 298.926 120.262C300.694 123.185 303.133 125.36 306.173 126.899C307.467 127.555 308.733 128.27 309.983 129.007C312.196 130.311 313.818 132.149 314.835 134.518C315.271 135.534 315.727 136.543 316.205 137.541C317.214 139.645 318.664 141.371 320.625 142.66C321.434 143.192 322.233 143.74 323.015 144.31C325.232 145.927 327.05 147.88 328.135 150.447C328.227 150.665 328.409 150.846 328.746 151.321C328.859 150.757 328.942 150.517 328.949 150.275C328.987 148.962 329.063 147.647 329.021 146.337C328.895 142.458 327.207 139.294 324.433 136.667C323.883 136.146 323.255 135.705 322.648 135.247C320.927 133.95 319.354 132.492 318.018 130.803C317.248 129.829 316.575 128.776 315.893 127.736C314.416 125.483 312.538 123.711 310.022 122.658C309.002 122.231 308.023 121.709 307 121.289C303.871 120.004 301.54 117.825 299.807 114.96C299.127 113.836 298.473 112.694 297.758 111.593C295.746 108.492 293.055 106.183 289.636 104.745C288.872 104.424 288.107 104.103 287.345 103.774C283.803 102.247 280.682 100.127 278.113 97.226C277.15 96.138 276.195 95.042 275.199 93.985C273.254 91.921 271.339 89.825 269.308 87.849C267.007 85.61 264.287 83.954 261.349 82.673C259.026 81.66 256.58 81.206 254.058 81.477C251.93 81.706 249.801 82 247.706 82.433C244.594 83.077 241.528 83.941 238.416 84.579C234.626 85.356 230.806 85.983 227.003 86.698C222.927 87.464 218.86 88.287 214.706 88.534C214.609 88.543 214.521 88.695 214.325 88.874ZM280.81 262.128C281.183 262.291 281.357 262.412 281.545 262.443C283.247 262.729 284.941 263.113 286.656 263.251C291.081 263.605 295.506 263.287 299.93 263.09C302.901 262.958 305.874 262.86 308.847 262.805C311.763 262.751 314.647 263.116 317.506 263.662C321.393 264.405 324.908 265.995 327.822 268.681C330.52 271.169 332.997 273.882 334.971 277.006C336.449 279.345 337.925 281.685 339.375 284.041C342.871 289.725 347.239 294.548 352.992 298.041C354.171 298.757 355.268 299.612 356.388 300.424C360.928 303.711 364.2 308.006 366.498 313.09C367.867 316.118 369.07 319.205 370.1 322.365C371.149 325.586 372.256 328.788 373.362 331.989C374.495 335.266 375.998 338.379 377.638 341.427C377.882 341.88 378.203 342.292 378.529 342.784C378.617 342.592 378.683 342.518 378.668 342.468C378.489 341.874 378.305 341.28 378.108 340.691C376.541 336 375.813 331.159 375.47 326.241C375.253 323.137 375.009 320.033 374.658 316.942C373.722 308.7 369.684 302.234 363.084 297.349C360.977 295.79 358.682 294.482 356.453 293.093C354.869 292.105 353.231 291.204 351.652 290.209C347.902 287.845 344.82 284.818 342.612 280.944C341.79 279.502 340.934 278.079 340.148 276.618C339.427 275.279 338.782 273.899 338.097 272.541C336.47 269.315 334.547 266.284 332.122 263.593C328.667 259.76 324.407 257.391 319.308 256.496C316.276 255.963 313.235 255.998 310.208 256.318C306.149 256.746 302.152 257.557 298.187 258.546C294.165 259.549 290.117 260.452 286.064 261.325C284.401 261.681 282.697 261.845 280.81 262.128ZM253.81 244.609C253.81 243.856 253.863 243.237 253.802 242.631C253.328 237.996 251.249 234.339 247.124 232.019C245.744 231.243 244.284 230.591 242.813 230.001C239.069 228.499 235.146 227.691 231.168 227.103C226.059 226.348 221.451 224.473 217.543 221.007C216.406 219.998 215.218 219.031 213.966 218.172C212.602 217.236 211.181 216.36 209.705 215.618C207.703 214.613 205.539 214.201 203.284 214.177C201.172 214.155 199.168 214.649 197.183 215.257C195.069 215.905 192.978 216.628 190.868 217.291C188.869 217.919 186.815 218.133 184.722 218.08C182.122 218.014 179.821 217.133 177.924 215.395C176.656 214.233 175.519 212.915 174.43 211.579C173.559 210.51 172.872 209.293 172.062 208.172C170.928 206.602 169.882 204.945 168.577 203.529C164.816 199.448 160.11 198.08 154.679 198.962C154.836 201.876 156.365 204.307 158.834 205.509C159.887 206.021 160.994 206.438 162.104 206.817C164.68 207.697 166.751 209.254 168.341 211.435C169.113 212.494 169.777 213.634 170.469 214.75C171.38 216.22 172.235 217.725 173.176 219.174C174.31 220.92 175.642 222.506 177.185 223.917C180.333 226.795 183.994 227.804 188.133 226.857C190.758 226.256 193.348 225.501 195.945 224.782C198.676 224.025 201.383 223.182 204.191 222.731C208.326 222.067 212.181 222.715 215.672 225.115C216.812 225.899 217.954 226.683 219.058 227.516C222.935 230.44 227.272 232.315 232.006 233.342C234.234 233.825 236.456 234.356 238.65 234.975C244.513 236.629 249.662 239.429 253.402 244.415C253.435 244.461 253.512 244.471 253.81 244.609ZM358.629 107.949C359.055 110.12 359.414 111.802 359.711 113.496C360.152 116.016 360.538 118.545 360.965 121.067C361.426 123.79 362.533 126.212 364.384 128.279C365.03 129.001 365.688 129.712 366.309 130.455C367.062 131.356 367.835 132.249 368.506 133.21C370.219 135.668 371.029 138.407 370.937 141.417C370.877 143.374 370.451 145.254 369.855 147.102C368.982 149.809 367.78 152.375 366.47 154.893C365.257 157.224 364.002 159.533 362.832 161.886C362.218 163.12 361.718 164.415 361.218 165.702C360.237 168.228 360.382 170.731 361.578 173.142C362.222 174.439 363.008 175.665 363.728 176.923C364.38 178.062 365.111 179.164 365.664 180.349C366.593 182.339 366.887 184.428 366.401 186.618C366.083 188.05 365.584 189.401 364.919 190.697C363.61 193.246 361.851 195.452 359.795 197.44C358.702 198.496 357.638 199.587 356.625 200.72C355.836 201.603 355.241 202.625 355.059 203.828C355.023 204.068 355.075 204.322 355.091 204.66C355.407 204.541 355.61 204.501 355.774 204.398C358.639 202.589 361.525 200.811 364.349 198.941C365.612 198.105 366.876 197.203 367.92 196.119C370.871 193.053 372.473 189.412 372.206 185.058C372.039 182.331 371.293 179.753 370.34 177.22C369.634 175.344 368.872 173.488 368.194 171.602C367.283 169.067 367.136 166.461 367.736 163.837C368.154 162.012 368.781 160.251 369.726 158.622C370.454 157.366 371.247 156.146 371.947 154.875C372.98 152.999 374.033 151.128 374.937 149.19C376.024 146.861 376.152 144.409 375.604 141.887C375.114 139.632 374.237 137.539 373.211 135.497C371.621 132.332 370.387 129.042 369.596 125.584C369.273 124.17 368.857 122.777 368.508 121.368C367.101 115.694 363.365 111.737 358.629 107.949ZM108.067 127.677C108.028 128.188 107.976 128.453 107.995 128.713C108.035 129.264 108.089 129.816 108.176 130.361C108.912 134.984 111.108 138.805 114.546 141.946C117.003 144.191 119.61 146.241 122.394 148.064C124.014 149.125 125.646 150.167 127.275 151.215C132.066 154.297 135.607 158.45 137.886 163.665C138.772 165.692 139.532 167.773 140.425 169.796C141.289 171.754 142.145 173.728 143.19 175.591C145.329 179.405 148.549 182.024 152.554 183.757C157.151 185.747 161.928 186.007 166.801 185.381C168.278 185.191 169.793 185.109 171.438 184.424C170.698 184.245 170.178 184.109 169.654 183.996C168.102 183.66 166.519 183.435 165.001 182.985C159.873 181.466 155.306 178.968 151.624 175.008C149.149 172.346 147.221 169.321 145.806 165.984C144.781 163.567 143.851 161.108 142.919 158.653C141.705 155.456 139.997 152.544 137.917 149.844C136.04 147.408 133.865 145.317 131.073 143.923C129.28 143.028 127.532 142.044 125.757 141.112C123.309 139.826 120.813 138.626 118.413 137.256C114.46 135 111.008 132.163 108.606 128.206C108.537 128.096 108.416 128.018 108.067 127.677ZM128.775 319.713C129.139 319.557 129.34 319.516 129.486 319.403C132.792 316.856 136.466 314.926 140.18 313.076C143.644 311.35 147.146 309.7 150.631 308.016C151.253 307.715 151.88 307.424 152.5 307.118C159.277 303.771 164.127 298.539 167.397 291.793C168.18 290.179 168.765 288.47 169.485 286.824C170.398 284.735 171.236 282.601 172.319 280.602C174.769 276.08 178.35 272.724 183.125 270.713C187.041 269.064 191.116 268.118 195.359 267.753C201.385 267.234 207.39 267.697 213.396 267.986C217.546 268.186 221.692 268.34 225.84 268.168C229.526 268.015 233.1 267.238 236.523 265.832C236.945 265.659 237.329 265.391 237.849 265.101C237.6 265.037 237.53 264.996 237.467 265.006C232.629 265.758 227.828 265.485 223.03 264.6C217.049 263.497 211.071 262.38 205.005 261.794C199.931 261.304 194.936 261.533 189.982 262.808C181.858 264.899 175.63 269.43 171.589 276.848C170.53 278.791 169.5 280.75 168.409 282.675C166.807 285.502 165.213 288.336 163.523 291.11C161.262 294.821 158.291 297.898 154.741 300.394C153.102 301.546 151.406 302.622 149.689 303.655C147.616 304.902 145.463 306.017 143.398 307.277C140.684 308.933 137.966 310.592 135.36 312.408C133.782 313.508 132.353 314.847 130.971 316.195C130.192 316.955 129.63 317.942 129.001 318.848C128.868 319.038 128.871 319.321 128.775 319.713ZM265.064 237.888C266.347 236.477 266.859 234.831 267.361 233.198C267.89 231.475 268.2 229.688 268.169 227.883C268.13 225.602 267.301 223.572 265.953 221.738C264.464 219.711 262.639 218.029 260.67 216.49C259.362 215.468 258.036 214.468 256.755 213.412C253.326 210.586 250.727 207.159 249.145 202.971C248.486 201.228 247.692 199.533 246.906 197.842C245.448 194.706 242.974 192.755 239.706 191.721C237.324 190.968 234.884 190.501 232.422 190.132C227.648 189.417 223.388 187.628 219.857 184.251C219.21 183.632 218.491 183.079 217.763 182.555C215.551 180.963 213.08 179.98 209.938 179.302C210.734 179.941 211.128 180.296 211.559 180.598C213.847 182.202 215.833 184.123 217.441 186.401C218.836 188.377 220.135 190.42 221.462 192.443C222.069 193.368 222.629 194.323 223.229 195.253C224.458 197.158 226.131 198.06 228.474 197.891C230.327 197.757 232.208 197.849 234.066 197.983C237 198.194 239.519 199.411 241.648 201.44C242.858 202.593 243.936 203.861 244.737 205.325C245.664 207.021 246.664 208.706 247.341 210.505C248.904 214.656 251.6 217.714 255.491 219.798C256.828 220.514 258.108 221.354 259.354 222.223C261.751 223.896 263.428 226.142 264.388 228.907C265.24 231.36 265.572 233.877 265.242 236.466C265.18 236.94 265.123 237.414 265.064 237.888ZM253.625 152.75C253.926 152.007 254.066 151.772 254.116 151.518C254.672 148.716 254.804 145.884 254.558 143.047C253.963 136.168 250.834 130.851 244.789 127.34C242.32 125.906 239.705 124.847 236.969 124.07C231.096 122.403 225.066 121.586 219.034 120.801C214.509 120.212 209.966 119.762 205.448 119.126C199.222 118.25 193.289 116.51 188.124 112.724C188.024 112.65 187.822 112.715 187.573 112.715C187.775 112.976 187.886 113.152 188.028 113.298C188.415 113.693 188.806 114.085 189.21 114.462C192.334 117.371 195.893 119.587 199.852 121.175C204.103 122.881 208.525 123.972 212.992 124.922C218.061 126 223.133 127.069 228.177 128.258C233.12 129.423 237.827 131.236 242.069 134.078C247.836 137.942 251.587 143.227 253.069 150.057C253.23 150.795 253.376 151.538 253.625 152.75ZM272.787 247.045C272.806 247.169 272.825 247.293 272.845 247.416C273.093 247.445 273.343 247.51 273.589 247.496C277.335 247.288 281.062 247.655 284.777 247.994C288.097 248.297 291.408 248.34 294.727 248.24C297.716 248.149 300.64 247.617 303.464 246.623C306.796 245.451 309.646 243.564 311.876 240.791C314.763 237.201 315.669 233.021 315.493 228.535C315.414 226.531 315.32 224.522 315.105 222.529C314.684 218.627 315.744 215.155 317.87 211.92C318.894 210.362 319.821 208.737 320.735 207.111C322.07 204.737 322.909 202.184 323.322 199.493C323.359 199.253 323.516 198.962 323.151 198.821C323.081 198.841 322.991 198.839 322.957 198.881C320.825 201.511 318.754 204.195 316.554 206.767C313.752 210.042 312.23 213.779 311.906 218.071C311.745 220.205 311.445 222.337 311.057 224.442C310.245 228.854 308.643 232.945 305.826 236.501C303.425 239.531 300.385 241.616 296.625 242.515C294.888 242.93 293.088 243.161 291.304 243.283C288.13 243.499 284.944 243.538 281.767 243.71C279.829 243.815 277.897 244.06 276.159 245.024C275.015 245.659 273.91 246.369 272.787 247.045ZM164.133 246.889C164.695 246.889 165.032 246.929 165.358 246.883C167.97 246.507 170.597 246.469 173.219 246.633C176.483 246.837 179.622 247.615 182.632 248.915C185.196 250.022 186.909 251.9 187.797 254.53C188.083 255.379 188.283 256.257 188.53 257.119C188.637 257.494 188.764 257.864 188.897 258.286C189.477 258.204 189.954 258.158 190.421 258.067C194.578 257.258 198.761 256.883 202.994 257.249C203.682 257.309 204.372 257.361 205.062 257.39C205.305 257.4 205.63 257.493 205.701 257.095C205.618 256.988 205.557 256.853 205.453 256.785C201.461 254.182 197.506 251.519 193.451 249.016C191.581 247.861 189.557 246.925 187.53 246.061C183.921 244.523 180.124 243.814 176.199 244.14C174.279 244.299 172.359 244.611 170.476 245.021C168.4 245.472 166.309 245.936 164.133 246.889ZM371.895 267.532C371.094 268.363 370.908 269.263 370.562 270.071C369.648 272.205 369.817 274.237 371.207 276.141C371.858 277.033 372.514 277.927 373.086 278.87C373.835 280.107 374.598 281.351 375.188 282.666C376.666 285.962 376.336 289.143 374.204 292.06C373.436 293.11 372.459 294.006 371.58 294.975C371.271 295.315 370.74 295.469 370.681 296.134C371.297 296.787 371.939 297.501 372.619 298.178C373.281 298.838 373.738 299.715 374.618 300.259C376.911 298.058 378.82 295.724 380.024 292.885C380.872 290.886 381.198 288.792 381.037 286.61C380.81 283.525 379.655 280.827 377.579 278.586C374.731 275.512 372.863 271.98 372.083 267.867C372.069 267.803 372.017 267.747 371.895 267.532ZM392.168 390.394C391.967 391.06 391.826 391.316 391.822 391.573C391.789 393.779 391.624 395.999 391.804 398.189C392.036 401.024 392.847 403.746 394.255 406.253C394.406 406.521 394.647 406.739 394.813 406.939C395.023 406.86 395.122 406.855 395.145 406.81C396.98 403.3 397.433 399.752 395.412 396.146C394.406 394.349 393.389 392.558 392.168 390.394Z" fill="#A90061"/>
<path d="M269.265 394.26C269.283 393.816 269.324 393.371 269.317 392.927C269.264 389.879 269.422 386.841 269.779 383.815C269.835 383.339 269.918 382.853 270.087 382.408C270.163 382.208 270.482 381.978 270.685 381.983C270.9 381.988 271.238 382.216 271.298 382.415C271.497 383.072 271.639 383.754 271.722 384.436C271.83 385.328 271.85 386.23 271.927 387.126C271.985 387.801 272.042 388.483 272.466 389.343C272.8 386.897 273.094 384.717 273.399 382.539C273.456 382.13 273.519 381.713 273.65 381.324C273.875 380.654 274.49 380.252 275.113 380.581C276.167 381.137 277.151 380.751 278.142 380.589C290.371 378.587 302.338 375.51 314.15 371.789C320.014 369.942 325.897 368.152 331.793 366.408C337.042 364.856 342.42 363.896 347.859 363.325C350.541 363.043 353.244 362.989 355.927 363.444C358.564 363.891 360.941 364.964 363.154 366.434C365.765 368.168 368.071 370.25 370.102 372.63C372.844 375.844 375.303 379.273 377.676 382.764C377.985 383.219 378.265 383.705 378.473 384.212C378.557 384.417 378.495 384.797 378.347 384.949C378.198 385.103 377.799 385.193 377.617 385.101C377.132 384.854 376.671 384.532 376.262 384.17C374.604 382.705 372.977 381.203 371.322 379.733C368.132 376.899 364.492 374.802 360.53 373.264C358.226 372.37 355.87 372.148 353.407 372.688C350.362 373.355 347.372 374.191 344.442 375.235C333.965 378.969 323.452 382.622 313.287 387.159C306.094 390.37 299.017 393.84 291.839 397.088C284.977 400.193 278.056 403.167 271.153 406.182C270.396 406.512 269.607 406.791 268.807 406.993C267.729 407.265 267.055 406.808 266.862 405.731C266.765 405.189 266.732 404.631 266.716 404.079C266.575 399.367 266.124 394.694 265.012 390.101C264.932 389.769 264.819 389.4 264.892 389.087C264.96 388.794 265.204 388.471 265.463 388.317C265.633 388.216 266.061 388.304 266.21 388.462C266.581 388.855 266.943 389.3 267.157 389.79C267.654 390.928 268.057 392.108 268.51 393.266C268.649 393.622 268.825 393.964 268.984 394.312C269.077 394.295 269.171 394.278 269.265 394.26Z" fill="#A90061"/>
<path d="M225.366 388.841C225.969 388.412 225.765 387.887 225.816 387.449C225.981 386.006 226.094 384.557 226.267 383.115C226.306 382.789 226.47 382.462 226.641 382.173C226.854 381.814 227.529 381.891 227.669 382.29C227.804 382.675 227.894 383.082 227.952 383.487C228.389 386.579 228.458 389.691 228.445 392.807C228.443 393.358 228.445 393.908 228.445 394.47C228.944 394.452 229 394.061 229.114 393.764C229.583 392.538 230.003 391.292 230.496 390.075C230.7 389.57 231.003 389.091 231.332 388.655C231.588 388.316 232.016 388.084 232.414 388.366C232.654 388.535 232.85 388.901 232.881 389.198C232.923 389.596 232.815 390.02 232.723 390.422C231.755 394.616 231.174 398.854 231.153 403.166C231.149 404.06 231.04 404.964 230.877 405.845C230.695 406.833 230.04 407.253 229.059 407.014C228.257 406.819 227.465 406.544 226.708 406.215C220.685 403.597 214.642 401.023 208.661 398.31C201.043 394.854 193.489 391.258 185.887 387.765C179.979 385.05 173.92 382.706 167.794 380.529C162.39 378.608 157.037 376.541 151.614 374.677C149.139 373.826 146.552 373.297 144.009 372.645C141.928 372.111 139.887 372.366 137.888 373.063C133.725 374.514 129.982 376.706 126.643 379.572C124.911 381.059 123.259 382.638 121.552 384.154C121.143 384.517 120.683 384.84 120.2 385.091C120.011 385.189 119.619 385.123 119.455 384.978C119.299 384.84 119.201 384.446 119.287 384.263C119.579 383.64 119.915 383.025 120.321 382.47C122.529 379.457 124.717 376.429 127.002 373.475C128.959 370.944 131.309 368.797 133.911 366.927C137.388 364.428 141.226 363.119 145.538 363.133C149.293 363.145 152.986 363.648 156.669 364.283C162.611 365.307 168.369 367.024 174.113 368.827C184.07 371.953 194.016 375.125 204.186 377.513C206.204 377.987 208.235 378.414 210.27 378.811C213.593 379.459 216.924 380.065 220.253 380.686C221.062 380.837 221.83 381.002 222.666 380.584C223.305 380.265 223.932 380.645 224.123 381.324C224.328 382.054 224.465 382.808 224.567 383.56C224.772 385.068 224.926 386.582 225.118 388.092C225.145 388.326 225.266 388.55 225.366 388.841Z" fill="#A90061"/>
<path d="M336.115 445.885C336.018 446.372 336.428 446.412 336.711 446.529C338.849 447.411 341.074 447.999 343.34 448.431C344.403 448.634 345.485 448.74 346.555 448.907C346.886 448.959 347.237 449.012 347.524 449.167C347.728 449.277 347.949 449.552 347.961 449.765C347.973 449.983 347.793 450.33 347.603 450.417C347.121 450.638 346.594 450.843 346.072 450.882C340.422 451.3 334.988 450.482 329.87 447.946C329.268 447.648 328.679 447.326 328.067 447.007C327.724 447.46 328.142 447.651 328.337 447.83C330.501 449.818 332.905 451.441 335.646 452.536C336.211 452.762 336.79 452.962 337.327 453.243C337.53 453.349 337.788 453.692 337.745 453.852C337.669 454.133 337.426 454.484 337.171 454.575C336.74 454.728 336.238 454.779 335.78 454.733C334.906 454.646 334.029 454.517 333.177 454.305C329.776 453.461 326.677 451.992 323.968 449.741C323.724 449.538 323.459 449.361 323.202 449.17C322.905 449.56 323.201 449.752 323.326 449.941C324.507 451.728 326.107 453.073 327.886 454.229C328.343 454.526 328.832 454.836 328.648 455.509C328.501 456.046 327.978 456.308 327.12 456.165C326.323 456.032 325.528 455.828 324.764 455.563C322.097 454.636 319.797 453.106 317.741 451.186C317.364 450.834 317.095 450.327 316.385 450.139C316.321 450.44 316.205 450.684 316.233 450.91C316.322 451.645 316.392 452.396 316.603 453.1C316.835 453.874 317.251 454.591 317.512 455.358C317.609 455.643 317.589 456.053 317.448 456.313C317.236 456.706 316.751 456.809 316.374 456.626C315.775 456.337 315.169 456.001 314.678 455.56C313.396 454.406 312.562 452.928 311.881 451.36C311.643 450.812 311.421 450.258 311.212 449.755C310.391 449.63 310.448 450.372 310.294 450.655C310.002 451.193 309.733 451.747 309.752 452.359C309.803 453.984 310.173 455.671 310.196 457.353C310.199 457.572 309.984 457.949 309.817 457.981C309.536 458.035 309.079 457.972 308.932 457.779C308.529 457.248 308.199 456.645 307.93 456.031C307.168 454.288 306.359 452.574 305.222 451.037C305.035 450.784 304.788 450.575 304.379 450.148C304.434 451.251 304.53 452.043 304.496 452.83C304.461 453.635 304.351 454.447 304.173 455.234C304.027 455.879 303.12 456.065 302.726 455.542C302.405 455.115 302.188 454.609 301.94 454.13C301.316 452.928 300.713 451.715 300.072 450.523C299.925 450.251 299.658 450.043 299.324 449.669C299.145 450.669 299.046 451.474 298.847 452.253C298.664 452.969 298.406 453.672 298.106 454.347C298.021 454.538 297.668 454.72 297.447 454.71C297.229 454.7 296.907 454.485 296.832 454.285C296.644 453.784 296.539 453.245 296.456 452.712C296.215 451.166 295.819 449.672 295.048 448.048C294.774 448.504 294.585 448.798 294.417 449.103C294.027 449.812 293.688 450.555 293.239 451.225C293.089 451.448 292.664 451.593 292.368 451.587C291.93 451.578 291.638 451.23 291.567 450.8C291.49 450.334 291.484 449.856 291.46 449.382C291.42 448.577 291.234 447.815 290.853 446.87C290.561 447.196 290.391 447.363 290.247 447.552C289.917 447.987 289.633 448.462 289.266 448.862C288.916 449.243 288.27 449.094 288.105 448.604C287.993 448.272 287.959 447.913 287.92 447.562C287.852 446.957 287.849 446.341 287.735 445.745C287.592 444.994 287.231 444.398 286.503 443.993C284.954 443.132 283.572 442.035 282.377 440.719C282.102 440.416 281.806 440.119 281.609 439.729C281.366 439.248 281.812 438.642 282.331 438.788C282.334 438.789 282.336 438.79 282.339 438.79C283.896 439.255 285.436 439.777 286.988 440.262C290.434 441.338 293.983 441.924 297.566 442.201C306.649 442.902 315.587 442.176 324.217 439.045C329.633 437.08 334.512 434.214 338.635 430.136C340.379 428.411 341.937 426.543 343.18 424.421C343.351 424.129 343.486 423.784 343.732 423.576C343.96 423.383 344.351 423.205 344.605 423.272C344.858 423.338 345.196 423.711 345.204 423.959C345.228 424.694 345.167 425.446 345.028 426.17C344.864 427.024 344.583 427.856 344.323 428.803C344.721 429.001 345.05 429.228 345.414 429.335C350.591 430.854 355.825 430.985 361.104 429.949C362.035 429.766 362.961 429.559 363.896 429.406C364.479 429.31 364.948 429.554 365.09 429.954C365.238 430.372 365.166 430.786 364.858 431.084C364.424 431.506 363.972 431.933 363.46 432.247C358.205 435.467 352.576 437.727 346.467 438.683C344.531 438.986 342.57 439.134 340.605 439.354C340.46 439.68 340.697 439.802 340.959 439.893C343.532 440.788 346.173 441.369 348.895 441.534C352.159 441.731 355.396 441.501 358.612 440.9C359.408 440.751 360.223 440.682 361.032 440.646C361.251 440.636 361.616 440.837 361.677 441.02C361.769 441.298 361.764 441.728 361.601 441.942C361.326 442.305 360.933 442.623 360.524 442.829C359.68 443.255 358.81 443.644 357.919 443.961C352.09 446.031 346.089 446.87 339.918 446.37C338.638 446.266 337.368 446.028 336.092 445.856C336.043 445.891 335.998 445.933 335.946 445.951C335.909 445.963 335.861 445.942 335.818 445.936C335.918 445.918 336.016 445.902 336.115 445.885Z" fill="#A90061"/>
<path d="M161.648 445.885C161.745 446.372 161.335 446.412 161.052 446.529C158.914 447.411 156.689 447.999 154.423 448.431C153.36 448.634 152.278 448.74 151.208 448.907C150.877 448.959 150.526 449.012 150.239 449.167C150.035 449.277 149.814 449.552 149.802 449.765C149.79 449.983 149.97 450.33 150.16 450.417C150.642 450.638 151.169 450.843 151.691 450.882C157.341 451.3 162.775 450.482 167.893 447.946C168.495 447.648 169.084 447.326 169.696 447.007C170.039 447.46 169.621 447.651 169.426 447.83C167.262 449.818 164.858 451.441 162.117 452.536C161.552 452.762 160.973 452.962 160.436 453.243C160.233 453.349 159.975 453.692 160.018 453.852C160.094 454.133 160.337 454.484 160.592 454.575C161.023 454.728 161.525 454.779 161.983 454.733C162.857 454.646 163.734 454.517 164.586 454.305C167.987 453.461 171.086 451.992 173.795 449.741C174.039 449.538 174.304 449.361 174.561 449.17C174.858 449.56 174.562 449.752 174.437 449.941C173.256 451.728 171.656 453.073 169.877 454.229C169.42 454.526 168.931 454.836 169.115 455.509C169.262 456.046 169.785 456.308 170.643 456.165C171.44 456.032 172.235 455.828 172.999 455.563C175.666 454.636 177.966 453.106 180.022 451.186C180.399 450.834 180.668 450.327 181.378 450.139C181.442 450.44 181.558 450.684 181.53 450.91C181.441 451.645 181.371 452.396 181.16 453.1C180.928 453.874 180.512 454.591 180.251 455.358C180.154 455.643 180.174 456.053 180.315 456.313C180.527 456.706 181.012 456.809 181.389 456.626C181.988 456.337 182.594 456.001 183.085 455.56C184.367 454.406 185.201 452.928 185.882 451.36C186.12 450.812 186.342 450.258 186.551 449.755C187.372 449.63 187.315 450.372 187.469 450.655C187.761 451.193 188.03 451.747 188.011 452.359C187.96 453.984 187.59 455.671 187.567 457.353C187.564 457.572 187.779 457.949 187.946 457.981C188.227 458.035 188.684 457.972 188.831 457.779C189.234 457.248 189.564 456.645 189.833 456.031C190.595 454.288 191.404 452.574 192.541 451.037C192.728 450.784 192.975 450.575 193.384 450.148C193.329 451.251 193.233 452.043 193.267 452.83C193.302 453.635 193.412 454.447 193.59 455.234C193.736 455.879 194.643 456.065 195.037 455.542C195.358 455.115 195.575 454.609 195.823 454.13C196.447 452.928 197.05 451.715 197.692 450.523C197.839 450.251 198.106 450.043 198.44 449.669C198.619 450.669 198.718 451.474 198.917 452.253C199.1 452.969 199.358 453.672 199.658 454.347C199.743 454.538 200.096 454.72 200.317 454.71C200.535 454.7 200.857 454.485 200.932 454.285C201.12 453.784 201.225 453.245 201.308 452.712C201.549 451.166 201.945 449.672 202.716 448.048C202.99 448.504 203.179 448.798 203.347 449.103C203.737 449.812 204.076 450.555 204.525 451.225C204.675 451.448 205.1 451.593 205.396 451.587C205.834 451.578 206.126 451.23 206.197 450.8C206.274 450.334 206.28 449.856 206.304 449.382C206.344 448.577 206.53 447.815 206.911 446.87C207.203 447.196 207.373 447.363 207.517 447.552C207.847 447.987 208.131 448.462 208.498 448.862C208.848 449.243 209.494 449.094 209.659 448.604C209.771 448.272 209.805 447.913 209.844 447.562C209.912 446.957 209.915 446.341 210.029 445.745C210.172 444.994 210.533 444.398 211.261 443.993C212.81 443.132 214.192 442.035 215.387 440.719C215.662 440.416 215.958 440.119 216.155 439.729C216.398 439.248 215.952 438.642 215.433 438.788C215.43 438.789 215.428 438.79 215.425 438.79C213.868 439.255 212.328 439.777 210.776 440.262C207.33 441.338 203.781 441.924 200.198 442.201C191.115 442.902 182.177 442.176 173.547 439.045C168.131 437.08 163.252 434.214 159.129 430.136C157.385 428.411 155.827 426.543 154.584 424.421C154.413 424.129 154.278 423.784 154.032 423.576C153.804 423.383 153.413 423.205 153.159 423.272C152.906 423.338 152.568 423.711 152.559 423.959C152.535 424.694 152.596 425.446 152.735 426.17C152.899 427.024 153.18 427.856 153.44 428.803C153.042 429.001 152.713 429.228 152.349 429.335C147.172 430.854 141.938 430.985 136.659 429.949C135.728 429.766 134.802 429.559 133.867 429.406C133.284 429.31 132.815 429.554 132.673 429.954C132.525 430.372 132.597 430.786 132.905 431.084C133.339 431.506 133.791 431.933 134.303 432.247C139.558 435.467 145.187 437.727 151.296 438.683C153.232 438.986 155.193 439.134 157.157 439.354C157.302 439.68 157.065 439.802 156.803 439.893C154.23 440.788 151.589 441.369 148.867 441.534C145.603 441.731 142.366 441.501 139.15 440.9C138.354 440.751 137.539 440.682 136.73 440.646C136.511 440.636 136.146 440.837 136.085 441.02C135.993 441.298 135.998 441.728 136.161 441.942C136.436 442.305 136.829 442.623 137.238 442.829C138.082 443.255 138.952 443.644 139.843 443.961C145.672 446.031 151.673 446.87 157.844 446.37C159.124 446.266 160.394 446.028 161.67 445.856C161.719 445.891 161.764 445.933 161.816 445.951C161.853 445.963 161.901 445.942 161.944 445.936C161.845 445.918 161.747 445.902 161.648 445.885Z" fill="#A90061"/>
</svg>
