<svg width="504" height="504" viewBox="0 0 504 504" fill="none" xmlns="http://www.w3.org/2000/svg">
<path d="M150.682 178.016C150.861 178.061 151.04 178.082 151.215 178.082C152.126 178.082 152.935 177.509 153.286 176.805C153.289 176.799 153.291 176.793 153.295 176.786C154.589 174.079 155.094 171.189 155.584 168.396C155.829 166.99 156.062 165.662 156.386 164.359C156.448 164.116 156.438 163.861 156.359 163.624C156.26 163.326 156.26 163.153 156.26 163.039C156.26 162.897 156.237 162.756 156.192 162.62C156.097 162.337 155.846 161.584 155.104 161.277C154.843 161.17 154.448 161.09 153.985 161.237C152.611 161.402 151.848 162.738 151.791 164.049C151.381 165.926 150.932 167.804 150.484 169.68C150.025 171.599 149.566 173.518 149.148 175.437C149.129 175.529 149.118 175.623 149.118 175.717C149.119 177.156 149.887 177.887 150.682 178.016Z" fill="white"/>
<path d="M238.693 224.32C239.584 225.477 240.006 226.744 239.981 228.106C245.692 221.845 256.916 214.73 264.128 210.762L264.329 210.657C264.451 210.591 264.571 210.527 264.688 210.479C265.002 211.993 264.671 213.451 264.302 214.469C264.287 214.512 264.272 214.556 264.262 214.6C262.07 223.363 254.57 231.328 244.653 235.401C243.422 235.948 242.047 236.455 240.351 236.455C239.165 236.455 238.312 236.257 237.437 235.76C237.435 235.759 237.433 235.757 237.431 235.757C236.882 237.349 236.373 238.89 235.899 240.39C237.527 241.051 239.237 241.09 240.41 241.09H240.629C249.055 240.373 257.635 234.043 262.394 228.096C265.765 223.947 270.154 217.414 269.343 208.531C269.307 208.312 269.272 208.105 269.966 207.758C270.783 207.35 271.599 206.983 272.416 206.616C273.269 206.233 274.12 205.849 274.859 205.473C275.746 205.128 276.634 204.797 277.516 204.468C282.487 202.617 292.322 199.161 288.793 196.807C286.612 195.353 286.559 195.698 272.144 201.725C270.83 202.274 269.52 202.822 268.291 203.326L267.887 203.47C267.744 203.522 267.627 203.577 267.542 203.592C267.439 203.592 267.283 203.592 266.915 203.101C263.199 198.322 258.201 197.328 252.62 196.611C250.982 196.283 249.342 196.035 247.755 195.794C246.028 195.531 244.396 195.284 242.663 194.926C241.189 194.762 240.078 194.444 239.076 193.876C236.296 192.569 236.375 190.311 236.947 188.592C237.202 187.696 237.737 186.683 238.433 185.807C242.177 180.362 248.512 176.703 254.196 176.703C256.664 176.703 261.385 177.813 261.385 179.555C261.385 180.314 261.804 181.063 262.45 181.463C262.924 181.755 263.471 181.82 263.957 181.641C264.966 181.354 265.809 180.578 266.123 179.639C266.137 179.595 266.15 179.551 266.16 179.506C266.557 177.719 265.826 176.102 264.089 174.944C260.367 172.524 257.685 172.068 253.649 172.068H253.565C244.524 172.954 237.725 177.39 233.37 185.229C231.739 188.035 231.404 190.973 232.423 193.503C233.449 196.046 235.753 197.96 238.954 198.935C238.531 199.522 238.132 200.105 237.752 200.674C237.009 201.788 236.244 202.902 235.472 204.025C234.174 205.914 232.832 207.867 231.594 209.828C228.553 214.2 221.778 222.98 217.818 224.965C217.113 225.387 216.669 225.444 216.328 225.444C214.205 225.444 213.644 220.85 213.641 218.333C213.492 216.11 213.306 213.343 213.474 210.829C214.991 186.215 220.648 160.288 229.353 137.936C229.694 137.253 229.934 136.618 229.983 135.815C230.21 135.078 229.897 134.204 229.441 133.746C229.265 133.568 229.043 133.446 228.802 133.391C228.645 133.314 228.364 133.19 228.006 133.19C227.328 133.19 226.619 133.633 226.234 134.283C225.13 135.735 224.587 137.261 224.011 138.875L223.765 139.563C223.764 139.566 223.762 139.568 223.762 139.569C217.077 158.258 212.398 177.934 210.022 197.16C209.446 197.58 208.878 198 208.294 198.42C207.247 199.173 206.201 199.927 205.221 200.662C203.115 202.166 201.125 203.586 198.481 203.586C197.12 203.586 196.125 203.031 195.383 201.802C194.554 200.641 193.969 199.572 193.546 198.449L191.557 192.978C191.149 191.755 190.554 190.634 189.902 189.827C189.347 188.994 188.472 188.572 187.303 188.572C186.89 188.572 186.324 188.572 185.712 188.878C185.621 188.924 185.536 188.98 185.457 189.045C183.026 191.07 180.561 196.906 179.918 198.714C178.451 202.136 177.016 205.678 175.628 209.105C174.622 211.587 173.612 214.082 172.565 216.594C172.128 217.688 171.283 219.585 170.603 220.919V220.491C170.898 214.869 171.461 209.087 172.426 201.762C172.995 197.89 173.418 193.877 173.825 189.995C174.022 188.123 174.219 186.247 174.436 184.353C174.612 182.597 174.812 180.607 173.755 178.704C173.002 177.449 171.92 176.73 170.789 176.73C170.016 176.73 169.189 177.124 168.981 177.23C167.502 178.052 166.472 179.254 165.476 180.418L164.896 181.094C161.287 185.906 158.377 191.244 155.769 196.296C153.729 200.264 151.588 204.275 149.517 208.155C148.536 209.994 147.56 211.821 146.615 213.608C146.02 214.678 145.337 215.751 144.676 216.788L144.506 217.057C144.413 214.594 144.788 212.2 145.182 209.686L145.641 206.652C146.536 200.584 147.461 194.31 150.275 188.829C150.306 188.768 150.333 188.703 150.355 188.638C150.504 188.187 150.754 187.434 150.349 186.696C150.201 186.426 149.919 186.085 149.397 185.877C148.929 185.572 148.464 185.572 148.267 185.572C146.94 185.572 146.347 186.304 146.104 186.765C144.674 189.31 143.565 192.9 142.709 196.701C141.825 196.965 141.01 197.364 140.265 197.751L139.694 198.044C133.827 200.637 127.869 203.845 120.556 208.353C120.588 208.162 120.64 207.954 120.703 207.717C120.771 207.455 120.834 207.202 120.856 207.054C122.923 198.592 124.511 191.198 125.72 184.395L125.751 184.16C126.085 181.662 126.4 179.304 126.058 176.734C125.812 174.536 124.414 173.059 122.578 173.059C120.764 173.059 118.248 174.589 117.258 175.501C115.884 176.375 114.694 177.396 113.471 178.45C113.266 178.655 113.041 178.88 112.947 178.993C112.822 178.903 112.622 178.739 112.331 178.449C112.295 178.412 112.255 178.378 112.215 178.346C109.652 176.332 107.22 175.394 104.56 175.394C102.213 175.394 99.901 176.117 97.131 177.702C96.54 177.998 95.974 178.389 95.52 178.702L95.058 179.023C86.33 186.072 81.285 195.407 80.063 206.766C80.058 206.813 80.055 206.86 80.055 206.907C80.055 208.124 80.055 209.503 80.247 210.836C80.693 213.066 82.353 214.565 84.376 214.565C84.931 214.565 85.842 214.565 86.644 214.092C88.391 213.373 89.885 212.289 91.177 210.812C93.64 208.184 96.187 205.468 98.563 202.754C100.388 200.596 102.213 198.397 104.04 196.199C126.515 169.106 124.643 172.062 115.118 210.792C114.864 211.934 114.227 212.856 113.092 213.708C110.019 216.105 83.058 237.607 83.063 254.165C82.854 256.457 83.518 258.571 84.931 260.118C86.3 261.617 88.295 262.443 90.549 262.443C91.078 262.443 91.672 262.443 92.319 262.255C94.014 262.061 95.817 261.409 97.322 260.464C105.328 256.371 108.645 247.042 111.315 239.53C113.621 232.782 116.005 225.804 117.686 218.738C118.297 216.3 119.458 214.639 121.464 213.351C129.142 208.352 135.436 204.875 141.651 202.204C140.663 208.215 140.232 213.763 140.11 215.582V220.587C140.11 220.66 140.116 220.737 140.129 220.809C140.313 221.917 140.594 223.59 142.346 224.174C142.4 224.192 142.455 224.207 142.512 224.218C142.683 224.288 143.003 224.409 143.43 224.409C144.717 224.409 145.984 223.538 146.577 222.267C147.853 220.61 148.821 219.095 149.587 217.561C153.123 211.234 156.186 205.546 158.951 200.171C162.594 193.075 165.69 188.007 169.29 183.245C169.45 183.076 169.609 182.874 169.772 182.664C169.786 182.647 169.8 182.628 169.816 182.608C169.815 182.685 169.813 182.76 169.812 182.822L169.775 183.623C169.618 185.983 169.456 188.423 169.144 190.762C168.716 195.042 168.192 199.345 167.685 203.506C167.208 207.422 166.715 211.47 166.313 215.408C166.102 216.989 166.081 218.63 166.062 220.217C166.049 221.251 166.036 222.296 165.968 223.423C165.968 224.661 166.272 225.85 166.774 226.682C167.307 227.749 168.398 228.412 169.622 228.412C170.272 228.412 170.884 228.151 171.442 227.634C172.84 226.719 173.874 225.303 174.518 223.419C176.432 219.395 178.014 215.848 179.358 212.562L180.551 209.511C181.978 205.848 183.454 202.061 185.027 198.39C185.525 197.143 186.254 195.95 187.027 194.687L187.1 194.567C187.471 195.486 187.852 196.5 188.242 197.539L188.489 198.187C189.273 200.244 190.085 202.372 191.352 204.43C191.375 204.469 191.402 204.507 191.429 204.543C193.422 207.135 195.985 208.562 198.647 208.562C199.71 208.562 200.861 208.345 201.733 207.994C202.982 207.577 204.107 206.973 204.913 206.486C206.43 205.415 207.904 204.339 209.344 203.273C209.154 205.202 208.979 207.128 208.837 209.044C208.672 215.361 208.65 220.186 209.885 224.779C210.852 228.255 213.139 230.249 216.162 230.249C220.335 230.249 224.217 226.068 226.303 223.823C231.347 218.4 235.476 212.282 239.471 206.364C240.839 204.338 242.203 202.316 243.55 200.393C243.69 200.218 243.798 200.031 243.902 199.843C244.307 199.904 244.721 199.961 245.106 200.031C246.868 200.367 248.63 200.66 250.392 200.954C252.133 201.244 253.875 201.534 255.634 201.869C258.733 202.416 260.872 203.475 262.604 205.34C262.856 205.591 262.976 205.759 263.032 205.854C262.968 205.916 262.849 206.014 262.639 206.145C262.238 206.412 261.837 206.618 261.448 206.82C260.901 207.105 260.334 207.398 259.792 207.817C252.944 211.814 244.044 217.393 238.011 223.54C238.26 223.777 238.492 224.032 238.693 224.32ZM108.234 184.034C106.329 186.255 104.425 188.493 102.516 190.738C98.463 195.502 94.27 200.43 90.022 205.255C88.865 206.699 87.452 208.322 85.729 209.434C85.1 209.742 84.872 209.766 84.83 209.802C84.829 209.801 84.696 209.611 84.696 208.915V207.156C85.904 196.771 90.558 188.398 98.49 182.296C100.623 180.772 102.359 180.206 104.897 180.206C105.894 180.206 106.994 180.507 107.889 181.019C109.083 181.735 109.261 182.116 109.281 182.247C109.304 182.39 109.249 182.849 108.234 184.034ZM102.032 249.063C100.019 253.4 96.113 256.621 91.468 257.71C91.172 257.809 91.002 257.809 90.551 257.809C88.774 257.809 87.533 256.362 87.528 254.399C87.685 252.519 88.164 250.651 88.915 248.997C88.934 248.955 88.951 248.912 88.965 248.869C92.019 239.712 104.152 226.992 112.393 220.285C109.797 229.702 106.828 239.635 102.032 249.063Z" fill="white"/>
<path d="M302.431 227.457C306.388 228.683 309.869 228.011 311.374 227.022C312.522 226.27 312.522 225.479 311.968 224.331C311.176 222.63 309.436 224.766 304.925 224.015C300.85 223.342 298.871 219.385 298.554 215.152C298.356 212.382 298.633 210.601 300.057 207.753C301.363 205.26 304.449 203.44 307.654 204.152C308.169 204.27 308.723 204.35 309.277 204.39C310.899 204.469 311.176 201.581 308.762 200.908C306.111 200.196 303.697 200.038 301.205 201.462C290.68 207.397 292.896 224.608 302.431 227.457Z" fill="white"/>
<path d="M318.971 228.09C319.802 228.208 320.554 228.05 321.029 227.338C321.978 225.914 323.481 221.522 323.877 221.007C327.24 220.809 335.708 220.77 336.578 220.809C337.092 222.194 337.924 224.489 338.438 225.676C338.675 226.23 339.032 226.784 339.347 227.338C340.021 228.565 342.671 228.367 342.711 226.23C342.711 225.676 342.553 225.122 342.394 224.608C340.89 220.019 336.142 204.864 333.096 201.066C332.147 199.839 329.456 199.641 328.467 200.987C327.873 201.818 327.398 202.649 326.963 203.559C325.301 207.159 323.64 210.76 322.255 214.479C322.215 214.558 318.734 223.936 318.298 226.35C318.22 226.666 317.981 227.971 318.971 228.09ZM325.381 216.972C326.053 214.479 329.535 205.656 330.564 203.994C331.236 205.102 334.521 214.638 335.115 216.339C335.312 216.932 335.549 217.328 334.917 217.367C331.831 217.525 328.745 217.644 325.619 217.525C325.183 217.526 325.223 217.487 325.381 216.972Z" fill="white"/>
<path d="M350.904 227.576C351.299 227.576 351.695 227.616 352.052 227.537C352.684 227.418 353.12 226.904 353.16 226.152C353.239 225.124 352.805 209.455 352.805 209.376C352.765 208.466 353.319 209.613 353.397 209.771C355.099 212.976 361.469 225.162 363.724 227.537C364.476 228.328 365.386 228.249 366.296 227.932C367.364 227.497 367.404 227.814 367.165 204.113C367.165 203.282 367.126 202.411 367.008 201.581C366.85 200.552 366.611 200.117 365.662 199.998C364.594 199.88 364 200.393 363.922 201.581C363.842 203.124 363.842 202.056 363.764 216.102C363.724 221.008 363.882 220.85 363.407 219.98C354.663 205.419 353.95 200.513 351.181 200.039C350.113 199.881 349.716 200.355 349.44 201.463C349.243 202.175 349.243 202.927 349.243 203.639C349.598 226.627 349.716 227.537 350.904 227.576Z" fill="white"/>
<path d="M393.1 200.918C391.408 200.418 389.173 199.918 385.942 200.341C385.325 200.418 384.902 200.726 384.786 201.38C384.401 203.959 384.98 222.817 385.171 225.55C385.249 226.474 385.403 227.09 386.287 227.244C387.133 227.36 387.443 227.553 390.828 226.974C398.217 225.782 404.184 219.7 403.069 211.811C401.837 206.346 398.603 202.574 393.1 200.918ZM397.603 219.469C394.679 222.55 392.138 222.857 389.173 223.433C388.944 223.472 388.675 223.433 388.443 223.472C388.289 223.087 388.327 222.74 388.327 222.394C388.289 201.187 388.173 204.536 388.289 203.574C388.79 203.458 389.251 203.613 389.712 203.728C393.871 204.69 397.678 207.039 399.026 211.08C399.95 213.928 399.681 217.314 397.603 219.469Z" fill="white"/>
<path d="M429.485 204.306C424.057 196.147 410.895 199.687 408.548 209.079C407.009 215.275 409.203 221.395 413.242 224.743C419.861 230.207 431.371 226.628 432.255 213.543C432.334 210.271 431.409 207.153 429.485 204.306ZM415.32 221.778C411.011 218.046 410.008 209.808 414.859 205.575C417.783 202.997 423.671 201.919 426.714 206.73C428.058 208.809 428.713 211.117 428.638 213.543C428.021 223.163 419.939 225.782 415.32 221.778Z" fill="white"/>
<path d="M315.766 267.077C316.092 267.24 316.406 267.289 316.678 267.289C316.938 267.289 317.16 267.244 317.313 267.21C317.617 267.181 317.904 267.048 318.122 266.829C318.211 266.741 318.315 266.653 318.418 266.565C318.757 266.275 319.141 265.945 319.37 265.485C321.168 261.889 322.191 258.018 323.179 254.273L323.635 252.559C323.665 252.448 323.68 252.332 323.68 252.216V251.882C323.68 251.382 323.458 250.965 323.012 250.741C322.966 250.698 322.932 250.644 322.897 250.601C322.803 250.477 322.712 250.367 322.625 250.28C321.918 249.577 320.608 249.931 319.927 250.617C319.865 250.678 319.811 250.745 319.763 250.816C319.329 251.468 319.123 252.087 318.943 252.631C317.798 256.063 316.614 259.612 315.261 263.176C315.096 263.671 314.931 264.17 314.766 264.817C314.699 264.992 314.658 265.176 314.658 265.339C314.658 266.064 315.158 266.561 315.426 266.829C315.525 266.931 315.64 267.014 315.766 267.077Z" fill="white"/>
<path d="M461.43 291.356C461.238 290.488 460.442 290.09 460.076 289.907C459.893 289.816 459.691 289.768 459.486 289.768C457.891 289.768 456.525 290.478 455.319 291.104L454.748 291.397C448.881 293.99 442.923 297.198 435.61 301.706C435.642 301.515 435.694 301.307 435.757 301.07C435.825 300.808 435.888 300.555 435.91 300.407C437.977 291.945 439.565 284.551 440.774 277.748L440.805 277.513C441.139 275.016 441.454 272.657 441.112 270.087C440.866 267.889 439.468 266.412 437.632 266.412C435.818 266.412 433.302 267.942 432.312 268.854C430.938 269.728 429.748 270.749 428.525 271.803C428.32 272.008 428.095 272.233 428.001 272.346C427.876 272.256 427.676 272.092 427.385 271.802C427.349 271.765 427.309 271.731 427.269 271.699C424.706 269.685 422.274 268.747 419.614 268.747C417.267 268.747 414.955 269.47 412.185 271.055C411.591 271.353 411.023 271.745 410.567 272.06L410.112 272.377C403.871 277.417 399.524 283.63 397.1 290.911C395.586 292.606 394.124 294.41 392.88 296.12C383.766 307.966 378.802 310.453 376.242 310.453C370.353 310.453 370.054 298.072 370.052 295.681C370.388 290.798 370.388 285.995 370.388 280.91C370.388 280.823 370.379 280.736 370.362 280.65L370.29 280.286C370.134 279.486 369.958 278.579 369.582 277.65C368.786 276.06 367.659 275.254 366.233 275.254C365.317 275.254 364.499 275.608 363.872 276.239C362.61 277.322 361.512 278.603 360.667 279.961C358.583 282.789 356.507 285.903 353.92 290.08C352.718 292.105 351.54 294.155 350.357 296.21C348.455 299.518 346.488 302.938 344.388 306.303C344.172 306.699 343.971 307.11 343.768 307.522C343.28 308.521 342.837 309.424 342.203 310.079C341.933 309.349 341.987 308.461 342.092 307.229C342.144 306.635 342.194 306.034 342.194 305.468C342.349 299.558 343.361 293.686 344.836 286.683C345.845 281.81 346.687 276.922 347.501 272.194C347.835 270.985 347.895 269.682 347.681 268.182C347.408 266.551 346.049 265.413 344.377 265.413C343.978 265.413 343.566 265.413 343.018 265.689C338.029 267.857 329.329 281.746 329.236 281.896L319.224 298.416C315.704 304.285 312.332 308.445 308.622 311.495C308.504 311.555 308.39 311.617 308.388 311.635C308.013 311.408 307.494 309.707 307.494 307.14C307.689 300.326 310.32 282.191 315.377 279.62C315.949 279.39 316.37 278.901 316.514 278.291C316.681 277.583 316.465 276.824 315.949 276.307C315.484 275.844 314.798 275.589 314.017 275.589H313.683C313.597 275.589 313.509 275.597 313.424 275.615C312.198 275.86 311.339 276.719 310.581 277.477C310.531 277.527 310.486 277.58 310.444 277.637C307.858 281.218 306.161 285.93 305.054 290.339C304.94 290.449 304.834 290.555 304.748 290.645L304.575 290.821C304.504 290.892 304.442 290.97 304.388 291.056C303.503 292.474 302.613 293.693 301.772 294.816C299.222 298.323 296.429 301.952 293.413 305.684C292.017 307.702 290.197 309.169 287.903 310.092C287.397 310.345 287.075 310.453 286.825 310.453C283.511 310.453 281.208 301.11 280.633 294.502C280.512 292.681 279.654 283.595 274.646 283.595C267.588 283.595 261.144 304.493 260.878 305.365C260.248 307.334 259.688 309.316 259.146 311.233C258.514 313.474 257.915 315.59 257.214 317.694C257.192 317.759 257.175 317.826 257.164 317.894C256.985 318.969 256.484 320.527 256.047 321.354C255.339 319.102 254.923 316.864 254.777 314.545C254.344 305.597 255.134 295.938 257.263 284.133C259.253 272.355 262.467 260.514 265.582 249.034C266.665 244.706 267.985 240.132 270.291 236.013C270.319 235.963 270.344 235.911 270.366 235.858C270.416 235.73 270.477 235.604 270.537 235.477C270.876 234.762 271.579 233.273 270.241 231.935C269.99 231.683 269.522 231.213 268.807 231.213C267.661 231.213 266.436 232.272 265.721 233.95C265.229 235.425 264.691 236.878 264.159 238.316C263.265 240.732 262.342 243.229 261.696 245.698C257.81 259.353 253.713 274.695 251.518 290.797C251.459 290.879 251.392 290.96 251.345 291.042C250.364 292.352 249.351 293.704 248.488 295.086L240.47 308.617C236.159 316.162 230.354 323.8 227.603 323.8C226.159 323.8 224.331 319.53 223.878 316.624C223.23 314.033 222.916 311.464 222.916 308.74C222.796 303.48 222.924 298.069 223.284 292.47C223.405 292.092 223.421 291.712 223.421 291.42C223.421 291.342 223.389 291.272 223.377 291.196C223.946 283.114 224.997 274.63 226.581 265.553C226.893 263.935 227.117 262.766 227.45 262.471C227.813 262.148 229.323 262.092 230.606 262.044H247.788C248.337 262.044 249.075 262.044 249.842 261.6C250.545 261.319 251.109 260.539 251.109 259.723C251.109 259.062 250.688 258.588 250.22 258.121C250.026 257.928 249.776 257.8 249.505 257.755L249.084 257.683C248.243 257.539 247.448 257.404 246.669 257.404H246.663C241.471 257.237 236.372 257.237 231.44 257.237H228.457C229.603 249.574 231.895 241.189 235.655 230.891C235.721 230.763 235.797 230.631 235.873 230.497C236.391 229.588 237.344 227.911 236.025 226.265C235.708 225.776 235.196 225.497 234.591 225.522C232.944 225.601 231.795 228.136 231.376 229.224C228.384 237.035 226.006 245.301 224.311 253.777L224.271 253.97C223.869 255.861 223.579 257.229 223.237 257.571C222.992 257.816 221.928 257.841 220.581 257.873L219.359 257.906C216.312 258.071 213.214 258.155 210.218 258.236C207.185 258.318 204.048 258.404 201.079 258.571C199.857 258.571 198.8 258.571 197.691 258.756C197.623 258.768 197.556 258.784 197.49 258.806C195.813 259.366 195.604 260.4 195.761 261.224C195.838 262.385 196.717 263.211 197.908 263.211L200.613 263.21C203.788 263.127 206.921 263.001 210.054 262.876C213.176 262.752 216.298 262.627 219.428 262.544H221.096C221.758 262.544 222.08 262.587 222.233 262.621C222.27 263.03 222.131 264.006 221.996 264.954L221.965 265.17C220.946 271.047 219.503 280.409 218.703 290.153C218.259 290.297 217.808 290.474 217.334 290.74C212.854 292.737 208.642 295.234 204.485 298.353C203.616 298.974 202.724 299.61 201.851 300.161C202.634 295.442 203.401 290.582 203.401 285.747C203.401 284.738 203.401 283.863 203.234 282.805C203.234 278.943 203.18 269.08 197.411 269.08C196.328 269.08 195.279 269.457 193.951 270.345C193.149 270.947 192.252 271.689 191.654 272.649C191.367 273.017 191.071 273.384 190.772 273.753C189.847 274.899 188.891 276.083 188.106 277.393C186.853 279.481 185.642 281.526 184.431 283.572C183.223 285.613 182.015 287.654 180.769 289.731C178.05 294.211 175.033 298.925 171.455 302.996C170.489 303.962 169.394 305.057 168.093 305.876C167.629 306.223 167.405 306.279 167.048 306.279C166.539 306.279 166.042 306.061 165.581 305.605C164.547 304.699 164.124 303.49 163.662 301.96C162.517 297.055 163.407 281.26 169.919 275.56C170.206 275.309 170.37 274.948 170.37 274.568C170.37 273.104 169.484 272.081 168.216 272.081C168.149 272.081 168.082 272.086 168.015 272.096C165.174 272.533 164.08 274.72 163.194 276.491C160.771 281.447 159.296 286.439 158.744 291.576C157.963 292.495 157.261 293.379 156.637 294.316C152.546 300.006 143.942 309.917 137.537 310.988C136.905 311.146 136.36 311.282 135.687 311.282C130.738 311.282 129.999 303.851 129.999 299.457C130.081 296.234 130.293 292.986 130.496 289.846C130.702 286.671 130.916 283.389 131 280.072C131 278.786 130.815 277.486 130.474 276.31C130.162 274.755 128.716 273.916 127.513 273.916C126.931 273.916 126.132 273.916 125.506 274.55C124.635 275.248 123.734 275.97 122.929 276.981C121.772 278.634 120.574 280.343 119.559 282.037C116.983 286.105 114.697 290.459 112.486 294.669C111.937 295.712 111.389 296.759 110.828 297.815C108.668 301.967 106.298 306.198 104.005 310.294C103.179 311.779 102.486 312.845 101.492 313.793C100.722 311.511 100.456 309.046 100.633 305.875C101.312 297.898 102.646 290.059 104.605 282.547C105.022 280.796 105.44 279.004 105.856 277.211C106.273 275.417 106.691 273.623 107.131 271.75L107.154 271.584C107.316 270.454 107.484 269.286 107.106 268.071C106.801 266.545 105.479 265.407 103.989 265.407C99.043 265.407 87.779 283.557 87.667 283.747C84.898 288.517 82.134 293.514 79.002 299.412C78.313 300.561 77.637 301.722 76.958 302.886C75.213 305.883 73.407 308.982 71.342 311.902C70.585 313.113 69.87 314.257 68.866 314.758C68.866 314.759 68.865 314.759 68.865 314.759C68.39 313.528 68.249 312.131 68.105 310.714C67.938 306.525 68.464 302.308 68.927 298.614C69.795 292.708 70.981 287.313 72.544 282.157C72.599 281.988 72.651 281.85 72.696 281.74C72.79 281.803 72.909 281.888 73.062 282.002C73.178 282.079 73.277 282.171 73.375 282.256C73.742 282.576 74.297 283.059 75.129 283.059C75.347 283.059 75.889 283.059 76.399 282.651C76.894 282.339 77.225 281.841 77.32 281.255C77.472 280.316 77.025 279.268 76.062 278.305C75.678 277.921 75.244 277.486 74.828 277.285C74.162 276.869 74.02 276.61 74.397 275.596C75.053 273.298 75.731 270.924 76.24 268.561C76.513 267.632 76.272 266.4 75.414 265.826C74.899 265.407 74.341 265.407 73.961 265.407C73.211 265.407 72.279 265.759 71.831 266.543C71.012 267.77 70.153 268.996 69.295 270.223C68.413 271.483 67.532 272.742 66.658 274.055C65.713 275.63 64.75 276.482 63.35 276.991C51.905 280.988 45.409 293.118 43.17 303.047C42.753 304.437 42.652 305.784 42.554 307.086C42.524 307.49 42.493 307.896 42.447 308.431C42.447 310.4 43.164 311.706 44.51 312.28C45.122 312.586 45.535 312.586 45.935 312.586C47.159 312.586 48.145 311.756 48.792 311.103C53.568 307.035 56.909 301.139 59.617 296.359C61.899 291.957 64.259 287.405 66.799 282.997C67.055 282.484 67.368 282.014 67.712 281.551C67.644 281.855 67.574 282.163 67.493 282.494C67.166 284.212 66.746 285.934 66.34 287.598C65.925 289.296 65.498 291.051 65.158 292.838C64.103 298.41 63.097 305.029 63.641 311.913C63.674 312.213 63.702 312.521 63.729 312.831C63.84 314.118 63.966 315.578 64.562 316.761C65.41 318.878 66.829 320.092 68.456 320.092C71.42 320.092 74.036 316.61 76.238 313.146C79.258 308.449 81.977 303.521 84.626 298.724C87.243 293.979 89.949 289.073 92.786 284.402C95.171 280.292 98.188 276.39 102.208 272.226C102.135 272.668 102.03 273.098 101.904 273.48C101.89 273.522 101.877 273.565 101.868 273.608C101.453 275.449 101.014 277.291 100.574 279.137C99.429 283.93 98.245 288.887 97.516 293.873C96.687 299.016 95.827 304.334 96.004 309.723C96.175 311.772 96.352 313.891 97.113 315.973C97.981 317.925 99.43 319.091 100.987 319.091C104.39 319.091 107.02 314.577 108.487 312.058C109.207 310.72 109.944 309.365 110.687 307.999C112.34 304.961 114.05 301.818 115.667 298.7C119.129 292.105 122.612 286.125 126.295 280.456C125.778 288.131 125.526 294.89 125.526 301.09C125.526 303.942 125.945 306.561 126.741 308.782C128.43 314.905 132.594 315.754 136.906 315.754H136.918C140.74 315.572 143.604 313.805 146.52 311.796C151.216 308.04 155.135 303.739 158.625 299.343C158.659 299.854 158.675 300.361 158.727 300.876C159.086 304.823 161.661 311.084 167.046 311.084C169.538 311.084 172.38 309.128 175.705 305.136C179.798 300.533 182.885 295.216 185.856 290.098C186.491 289.054 187.126 287.999 187.765 286.937C189.452 284.132 191.198 281.23 193.012 278.449C195.71 274.674 196.85 274.016 197.184 273.902C197.246 273.991 197.362 274.201 197.491 274.648C197.75 275.425 197.907 276.386 198.046 277.234L198.11 277.626C199.508 285.705 198.205 293.797 196.947 301.623L196.781 302.666C196.536 303.89 195.95 304.843 194.854 305.783C186.258 313.554 177.368 321.589 171.104 331.744C169.236 334.679 164.893 342.07 164.894 347.347C165.078 352.363 169.029 356.291 173.886 356.291C186.028 356.291 194.753 332.325 196.847 323.95C198.093 319.282 199.278 314.147 200.362 308.72C201.193 305.037 212.092 298.36 218.335 295.481C217.697 307.271 218.282 318.799 221.972 324.634C223.59 327.265 225.483 328.599 227.599 328.599C229.082 328.599 230.515 327.999 232.227 326.667C233.64 325.608 234.86 324.388 236.119 323.12C237.817 321.082 239.334 319.228 240.731 317.129C243.991 311.846 247.233 306.466 250.389 301.223C250.195 303.703 250.046 306.194 249.969 308.696C249.82 311.673 250.03 314.84 250.657 319.007C251.067 321.266 252.158 327.263 255.957 327.263C257.044 327.263 258.239 326.579 259.207 325.366C260.223 323.912 260.762 322.314 261.282 320.768C261.42 320.359 261.556 319.953 261.735 319.445C262.896 315.093 264.297 309.951 265.894 304.809C267.263 300.309 271.278 290.642 274.349 288.689C274.403 288.654 274.411 288.64 274.429 288.614C274.478 288.646 274.533 288.687 274.59 288.734C275.055 289.611 275.346 290.68 275.515 292.16C275.87 294.03 276.178 295.946 276.49 297.885C276.762 299.577 277.036 301.285 277.356 303.037C278.156 306.71 280.661 315.253 286.653 315.253C291.367 315.253 296.733 309.148 297.33 308.453C299.413 306.023 301.356 303.452 303.234 300.856C303.22 300.995 303.203 301.148 303.191 301.277C302.874 304.138 302.655 307.215 303.201 310.315C303.487 312.031 304.247 316.588 308.173 316.588C308.984 316.588 309.904 316.312 310.547 315.883C315.706 312.615 320.686 304.93 323.967 299.46C326.896 294.836 330.045 289.719 333.318 284.264C336.26 279.484 339.206 275.572 342.324 272.306C342.35 272.278 342.376 272.249 342.4 272.219C342.498 272.097 342.592 271.972 342.686 271.847C342.797 271.7 342.89 271.578 342.973 271.476C342.987 272.43 342.788 273.429 342.581 274.46L341.987 277.274C340.829 282.753 339.736 287.929 338.732 293.373C337.927 298.358 337.207 303.739 337.386 309.383C337.559 311.283 337.736 313.247 338.653 315.12C339.033 316.117 340.021 316.755 341.202 316.755C341.847 316.755 342.372 316.493 342.793 316.282C342.87 316.243 342.945 316.196 343.013 316.143C344.678 314.847 345.755 313.235 346.857 311.578C348.355 308.913 349.895 306.249 351.436 303.584C352.982 300.91 354.527 298.236 356.027 295.571C358.795 291.013 361.656 286.301 364.947 281.861C365.103 281.652 365.248 281.407 365.395 281.153C365.486 280.995 365.624 280.754 365.69 280.63C365.72 280.64 365.751 280.649 365.783 280.659C365.864 280.733 365.911 280.928 365.768 281.648C365.751 281.733 365.742 281.819 365.742 281.906C365.742 283.899 365.701 285.891 365.658 287.883C365.617 289.894 365.574 291.906 365.576 293.864C365.37 299.026 365.734 302.84 366.81 306.678C368.129 310.634 371.388 315.254 376.236 315.254C381.451 315.254 386.588 310.119 389.347 307.36C391.435 305.272 393.313 303.029 395.107 300.776C395.11 301.862 395.126 303.032 395.292 304.184C395.738 306.414 397.398 307.913 399.421 307.913C399.976 307.913 400.887 307.913 401.689 307.44C403.436 306.721 404.93 305.637 406.222 304.16C408.685 301.532 411.232 298.816 413.608 296.102C415.433 293.944 417.258 291.745 419.085 289.547C441.942 261.994 439.493 266.201 430.163 304.14C429.909 305.282 429.272 306.204 428.137 307.056C425.064 309.453 398.103 330.955 398.108 347.513C397.899 349.805 398.563 351.919 399.976 353.466C401.345 354.965 403.34 355.791 405.594 355.791C406.123 355.791 406.717 355.791 407.364 355.603C409.059 355.409 410.862 354.757 412.367 353.812C420.373 349.719 423.69 340.39 426.36 332.878C428.666 326.13 431.05 319.152 432.731 312.086C433.342 309.648 434.503 307.987 436.509 306.699C444.953 301.2 451.727 297.532 458.567 294.763C459.23 294.431 459.916 294.089 460.625 293.577C460.95 293.41 461.217 293.115 461.377 292.73C461.58 292.268 461.59 291.773 461.43 291.356ZM47.24 306.192C48.048 302.154 51.395 288.821 61.119 283.18C56.905 291.685 52.809 299.35 47.24 306.192ZM173.729 351.492C172.762 351.492 171.923 351.202 171.228 350.623C169.89 349.527 169.403 348.055 169.689 346.044C172.054 333.207 187.425 318.932 194.813 312.073C194.825 312.061 194.836 312.05 194.848 312.039L195.019 311.868C192.416 324.663 183.704 351.492 173.729 351.492ZM423.286 277.384C421.381 279.605 419.477 281.843 417.568 284.088C413.515 288.852 409.322 293.78 405.074 298.605C403.917 300.049 402.504 301.672 400.781 302.784C400.152 303.092 399.924 303.116 399.882 303.152C399.881 303.151 399.748 302.961 399.748 302.265V300.506C401.295 287.214 408.246 279.72 413.542 275.646C415.675 274.122 417.411 273.556 419.949 273.556C420.946 273.556 422.046 273.857 422.941 274.369C424.135 275.085 424.313 275.466 424.333 275.597C424.357 275.739 424.301 276.199 423.286 277.384ZM417.084 342.413C415.071 346.75 411.165 349.971 406.52 351.06C406.224 351.159 406.054 351.159 405.603 351.159C403.826 351.159 402.585 349.712 402.58 347.749C402.737 345.869 403.216 344.001 403.967 342.347C403.986 342.305 404.003 342.262 404.017 342.219C407.071 333.062 419.204 320.342 427.445 313.635C424.85 323.052 421.881 332.985 417.084 342.413Z" fill="white"/>
<path d="M148.254 128.454C149.41 129.382 151.054 129.367 152.208 128.437C155.259 125.98 158.342 123.563 161.442 121.16C164.897 118.482 168.659 117.21 172.882 116.581C179.622 115.579 185.353 117.387 190.3 121.995C191.926 123.509 193.609 124.97 195.353 126.345C197.187 127.79 199.263 128.81 201.574 129.289C204.2 129.834 206.563 129.028 207.747 127.192C208.918 125.377 208.748 122.729 207.251 120.663C206.515 119.647 205.55 118.762 204.605 117.988C203.142 116.789 201.519 115.787 199.787 115.027C193.44 112.239 186.776 111.079 179.873 111.144C179.216 111.15 178.481 111.531 177.702 110.69C179.222 109.837 180.708 109.068 182.13 108.194C187.685 104.778 193.618 102.661 200.213 102.459C201.871 102.408 203.399 102.545 204.88 103.214C207.159 104.244 209.258 105.569 211.233 107.111C214.767 109.869 215.781 113.551 215.189 117.799C214.992 119.209 214.726 120.606 214.718 122.036C214.708 123.866 215.187 125.556 216.181 127.089C217.381 128.941 218.98 130.07 221.306 129.73C223.387 129.426 224.893 127.82 225.445 125.381C225.874 123.489 225.534 121.645 224.968 119.861C223.13 114.064 219.916 109.102 215.637 104.809C215.218 104.389 214.553 104.168 214.51 103.431C214.691 103.384 214.861 103.297 215.028 103.304C215.382 103.319 215.74 103.355 216.086 103.429C222.283 104.751 227.715 107.296 231.321 112.838C232.538 114.708 233.957 116.419 235.815 117.72C237.392 118.824 239.073 119.55 241.047 119.319C243.71 119.007 245.286 116.923 244.92 114.25C244.608 111.965 243.13 110.285 241.467 108.723C239.9 107.251 238.17 105.955 236.31 104.878C232.294 102.553 228.046 100.779 223.556 99.577C218.917 98.335 214.189 97.56 209.396 96.945C209.763 96.027 210.58 96.063 211.217 95.854C215.869 94.326 220.609 93.118 225.347 91.887C228.352 91.106 231.131 91.487 233.957 92.534C238.31 94.146 242.433 96.247 246.527 98.393C250.39 100.418 254.016 102.864 257.504 105.476C262.041 108.873 264.691 113.624 266.649 118.813C267.498 121.062 268.501 123.257 269.804 125.278C271.042 127.2 272.511 128.938 274.508 130.05C278.536 132.295 281.343 130.416 281.109 125.811C280.997 123.619 280.228 121.617 279.157 119.717C277.927 117.536 276.346 115.609 274.787 113.664C274.455 113.249 273.713 112.949 274.179 112.063C274.692 112.23 275.189 112.397 275.689 112.553C277.992 113.271 280.335 113.877 282.757 113.806C284.808 113.746 286.632 113.031 287.545 110.992C288.499 108.862 287.848 106.98 286.385 105.336C285.799 104.677 285.119 104.074 284.393 103.573C282.083 101.98 279.504 101.073 276.727 100.668C273.318 100.172 269.881 100.34 266.459 100.191C262.225 100.007 258.092 98.778 254.475 96.569C251.061 94.484 247.584 92.502 244.138 90.468C243.721 90.222 243.058 90.168 243.248 89.298C244.096 89.228 244.974 89.136 245.853 89.086C258.83 88.34 271.614 89.501 284.223 92.739C286.59 93.346 288.166 94.6 289.393 96.561C291.292 99.597 292.676 102.871 293.915 106.215C294.423 107.588 294.473 109.011 294.234 110.426C293.646 113.916 292.744 117.294 290.785 120.317C290.382 120.939 289.986 121.565 289.649 122.225C288.253 124.959 287.146 127.842 287.429 130.92C287.716 134.045 290.405 135.935 293.398 134.994C295.041 134.477 296.304 133.372 297.375 132.044C298.698 130.404 299.622 128.473 300.195 126.445C301.73 121.007 301.424 115.577 300.026 110.139C299.798 109.251 299.283 108.368 299.642 107.182C300.922 108.943 301.486 110.764 301.855 112.641C302.431 115.574 302.662 118.565 302.653 121.554C302.641 125.285 302.514 129.022 303.443 132.681C303.891 134.445 304.626 136.033 305.911 137.339C309.146 140.627 313.792 139.403 315.038 134.944C315.429 133.547 315.426 132.134 315.27 130.709C315.057 128.752 314.522 126.87 313.913 125.008C312.249 119.919 309.96 115.096 307.665 110.272C305.66 106.057 303.002 102.292 300.052 98.706C299.639 98.204 298.871 97.874 299.019 96.837C302.971 98.093 306.84 99.396 310.756 100.539C313.226 101.26 315.265 102.607 317.118 104.302C323.047 109.726 326.716 116.36 327.826 124.362C328.12 126.477 328.498 128.576 329.128 130.624C329.845 132.954 330.985 135.053 332.539 136.921C333.958 138.627 335.717 139.492 337.967 138.855C339.899 138.308 341.004 136.665 341.271 134.162C341.388 133.069 341.271 131.999 341.103 130.93C340.971 130.093 340.795 129.26 340.552 128.448C338.334 121.017 334.011 114.955 329.126 109.259C328.397 108.409 327.663 107.563 326.96 106.748C327.293 106.355 327.55 106.403 327.794 106.486C328.299 106.66 328.829 106.794 329.293 107.046C334.171 109.692 338.786 112.599 341.816 117.527C343.863 120.857 346.186 124.025 348.856 126.912C351.668 129.953 355.158 131.841 359.132 132.775C362.493 133.565 364.89 131.481 364.907 128.014C364.915 126.326 364.353 124.809 363.514 123.354C362.926 122.334 362.218 121.384 361.433 120.506C358.125 116.805 354.331 113.702 350.085 111.153C344.263 107.658 338.049 105.018 331.699 102.667C330.479 102.215 329.293 101.673 328.091 101.172C332.23 100.902 336.22 101.225 340.22 101.028C343.719 100.856 347.111 100.244 350.312 98.769C351.96 98.01 353.441 97.026 354.501 95.508C356.611 92.486 355.681 88.307 352.608 86.271C348.577 83.6 344.798 83.997 341.331 87.462C340.262 88.531 339.283 89.703 338.131 90.672C334.843 93.437 331.158 95.17 326.615 94.763C327.119 93.791 328.037 93.565 328.718 93.051C330.452 91.743 331.933 90.214 332.852 88.24C334.961 83.713 331.534 79.528 325.697 80.8C325.045 80.942 324.411 81.168 323.797 81.43C321.779 82.288 319.89 83.358 318.302 84.908C316.321 86.842 314.086 88.463 311.887 90.127C309.363 92.038 306.603 92.889 303.381 92.377C301.445 92.069 299.521 91.768 297.627 91.26C293.157 90.059 288.678 88.893 284.211 87.682C283.666 87.534 282.922 87.688 282.6 86.739C285.162 85.97 287.718 85.341 290.363 85.051C293.545 84.702 296.73 84.359 299.9 83.908C303.013 83.466 305.979 82.528 308.582 80.694C310.412 79.405 311.835 77.769 312.39 75.555C313.166 72.459 311.042 69.545 307.856 69.364C306.035 69.26 304.32 69.705 302.665 70.416C300.614 71.296 298.706 72.444 296.793 73.582C293.2 75.719 289.781 78.151 285.973 79.925C280.75 82.358 275.352 83.912 269.504 83.803C264.173 83.703 258.837 83.869 253.503 83.888C252.906 83.89 252.218 84.041 251.442 83.496C252.827 82.83 253.946 82.3 255.057 81.755C259.536 79.558 263.94 77.227 268.025 74.342C270.154 72.839 272.064 71.112 273.229 68.723C274.058 67.023 274.191 65.269 273.109 63.633C271.951 61.883 270.175 61.408 268.195 61.629C265.532 61.926 263.251 63.109 261.367 64.971C259.978 66.344 258.605 67.767 257.441 69.328C255.027 72.565 252.063 75.249 249.116 77.954C247.805 79.158 246.388 80.237 244.747 80.989C241.753 82.363 238.766 83.774 235.609 84.722C232.496 85.657 229.264 85.972 225.991 86.229C226.537 85.411 227.148 84.798 227.792 84.221C230.974 81.364 233.979 78.335 236.736 75.064C238.237 73.283 239.58 71.384 240.168 69.1C240.712 66.985 240.397 64.985 238.599 63.525C236.806 62.07 234.81 62.138 232.834 63.128C230.531 64.282 228.858 66.082 227.716 68.387C226.8 70.236 226.339 72.236 225.746 74.194C225.021 76.587 224.261 79.035 222.532 80.875C218.365 85.308 213.815 89.269 207.964 91.408C204.287 92.752 200.628 94.145 196.95 95.488C196.428 95.678 195.919 96.187 195.13 95.71C195.857 94.643 196.511 93.604 197.269 92.626C201.405 87.292 204.791 81.424 207.422 75.208C209.088 71.274 210.955 67.361 211.011 62.949C211.037 60.859 210.647 58.878 209.432 57.129C206.877 53.453 202.422 53.623 199.955 57.359C198.874 58.996 198.463 60.836 198.598 62.782C198.697 64.199 198.861 65.62 199.115 67.017C200.145 72.667 198.858 77.977 196.803 83.174C194.744 88.38 191.216 92.604 187.823 96.97C184.053 101.824 178.671 104.067 173.513 107.015C173.479 105.879 174.255 105.422 174.71 104.82C176.641 102.262 178.511 99.668 180.057 96.855C181.654 93.949 182.94 90.929 183.258 87.586C183.506 84.974 183.223 82.465 181.388 80.366C179.677 78.408 176.61 78.312 174.694 80.07C173.245 81.4 172.276 83.042 171.673 84.931C170.816 87.619 170.77 90.387 170.967 93.129C171.278 97.468 169.953 101.205 167.258 104.5C163.142 109.533 158.873 114.466 153.858 118.604C151.897 120.222 149.972 121.875 148.075 123.558C146.601 124.866 146.668 127.18 148.206 128.413C148.221 128.428 148.238 128.441 148.254 128.454Z" fill="#B42075"/>
<path d="M365.976 368.716C365.966 368.7 365.956 368.684 365.946 368.669C365.035 367.235 363.075 366.945 361.789 368.056C361.221 368.547 360.647 369.032 360.067 369.511C353.815 374.673 347.304 379.468 340.748 384.228C337.211 386.797 333.411 387.95 329.17 388.446C322.402 389.237 316.73 387.25 311.93 382.489C310.353 380.925 308.716 379.411 307.015 377.983C305.228 376.481 303.184 375.397 300.89 374.845C298.282 374.218 295.895 374.95 294.654 376.748C293.427 378.525 293.513 381.177 294.945 383.289C295.649 384.327 296.586 385.242 297.506 386.046C298.931 387.29 300.522 388.342 302.229 389.157C308.486 392.143 315.11 393.51 322.011 393.662C322.668 393.676 323.415 393.319 324.166 394.184C322.62 394.989 321.111 395.711 319.662 396.54C314.003 399.78 308.006 401.71 301.409 401.706C299.75 401.705 298.227 401.521 296.768 400.805C294.522 399.704 292.466 398.314 290.54 396.711C287.095 393.844 286.196 390.132 286.921 385.904C287.162 384.5 287.472 383.113 287.524 381.684C287.591 379.855 287.166 378.151 286.221 376.587C285.079 374.698 283.517 373.52 281.181 373.787C279.091 374.026 277.536 375.584 276.907 378.004C276.42 379.881 276.701 381.735 277.211 383.537C278.867 389.388 281.924 394.449 286.065 398.874C286.47 399.307 287.128 399.549 287.149 400.287C286.966 400.329 286.794 400.41 286.627 400.398C286.273 400.372 285.917 400.324 285.573 400.239C279.42 398.724 274.071 396.01 270.64 390.358C269.482 388.451 268.117 386.696 266.301 385.338C264.76 384.185 263.102 383.407 261.122 383.576C258.45 383.804 256.81 385.838 257.091 388.521C257.332 390.814 258.756 392.54 260.37 394.154C261.89 395.674 263.578 397.024 265.404 398.159C269.345 400.609 273.535 402.515 277.986 403.857C282.584 405.244 287.285 406.166 292.057 406.932C291.661 407.838 290.846 407.776 290.203 407.965C285.506 409.347 280.73 410.406 275.956 411.488C272.928 412.174 270.162 411.707 267.37 410.572C263.07 408.825 259.015 406.595 254.99 404.322C251.192 402.177 247.645 399.619 244.24 396.899C239.812 393.362 237.312 388.529 235.517 383.282C234.739 381.007 233.805 378.782 232.566 376.722C231.388 374.762 229.975 372.979 228.014 371.805C224.058 369.435 221.194 371.225 221.284 375.835C221.327 378.03 222.033 380.055 223.044 381.987C224.205 384.206 225.725 386.181 227.222 388.174C227.541 388.599 228.273 388.922 227.779 389.793C227.272 389.61 226.781 389.427 226.285 389.256C224.005 388.466 221.683 387.788 219.26 387.782C217.208 387.778 215.362 388.436 214.386 390.444C213.366 392.543 213.958 394.445 215.368 396.133C215.933 396.81 216.594 397.434 217.304 397.957C219.563 399.621 222.112 400.609 224.876 401.101C228.268 401.703 231.708 401.643 235.124 401.899C239.35 402.216 243.442 403.573 246.989 405.895C250.336 408.086 253.749 410.176 257.13 412.317C257.539 412.576 258.2 412.651 257.983 413.514C257.133 413.557 256.253 413.622 255.373 413.645C242.379 413.984 229.638 412.423 217.136 408.792C214.789 408.111 213.253 406.809 212.088 404.81C210.284 401.716 209.004 398.4 207.871 395.019C207.406 393.631 207.401 392.207 207.684 390.8C208.381 387.331 209.388 383.982 211.441 381.022C211.863 380.413 212.279 379.8 212.636 379.151C214.117 376.462 215.314 373.615 215.127 370.53C214.938 367.398 212.309 365.424 209.288 366.272C207.629 366.737 206.332 367.802 205.22 369.095C203.846 370.693 202.862 372.593 202.226 374.603C200.522 379.99 200.658 385.427 201.885 390.907C202.085 391.802 202.572 392.7 202.176 393.874C200.952 392.074 200.445 390.236 200.136 388.349C199.652 385.4 199.515 382.402 199.618 379.415C199.746 375.686 199.991 371.955 199.177 368.269C198.784 366.492 198.099 364.881 196.857 363.536C193.727 360.149 189.045 361.226 187.659 365.644C187.225 367.028 187.183 368.44 187.294 369.869C187.446 371.832 187.921 373.729 188.472 375.61C189.976 380.749 192.112 385.641 194.255 390.535C196.127 394.81 198.666 398.657 201.502 402.333C201.899 402.847 202.655 403.202 202.476 404.233C198.565 402.854 194.739 401.43 190.861 400.165C188.415 399.367 186.419 397.957 184.62 396.205C178.864 390.598 175.404 383.853 174.545 375.819C174.318 373.696 174.006 371.586 173.44 369.519C172.796 367.168 171.723 365.034 170.228 363.118C168.863 361.368 167.133 360.448 164.863 361.015C162.915 361.501 161.759 363.109 161.414 365.602C161.263 366.691 161.346 367.764 161.481 368.838C161.587 369.679 161.737 370.516 161.954 371.336C163.939 378.833 168.069 385.027 172.773 390.874C173.475 391.746 174.182 392.615 174.859 393.451C174.514 393.834 174.259 393.778 174.018 393.686C173.519 393.497 172.993 393.346 172.537 393.079C167.744 390.281 163.223 387.231 160.349 382.211C158.407 378.819 156.185 375.58 153.606 372.61C150.891 369.482 147.461 367.486 143.518 366.428C140.184 365.533 137.722 367.541 137.597 371.006C137.544 372.472 137.926 373.822 138.547 375.123C139.405 376.917 140.635 378.463 141.981 379.929C145.035 383.255 148.509 386.187 152.324 388.605C157.908 392.144 163.883 394.898 169.995 397.381C171.2 397.871 172.369 398.45 173.554 398.988C169.408 399.128 165.43 398.68 161.426 398.752C157.923 398.814 154.514 399.32 151.268 400.694C149.597 401.401 148.087 402.338 146.979 403.822C144.775 406.776 145.574 410.983 148.581 413.113C152.526 415.909 156.316 415.631 159.889 412.275C160.991 411.24 162.007 410.099 163.188 409.167C166.561 406.506 170.299 404.89 174.827 405.439C174.292 406.394 173.368 406.592 172.671 407.084C170.897 408.337 169.369 409.819 168.389 411.763C166.139 416.222 169.434 420.512 175.308 419.424C175.964 419.302 176.605 419.096 177.227 418.854C179.27 418.06 181.193 417.049 182.828 415.549C184.868 413.678 187.153 412.128 189.403 410.533C191.986 408.702 194.771 407.938 197.976 408.55C199.902 408.918 201.815 409.279 203.692 409.847C208.122 411.188 212.562 412.493 216.99 413.843C217.53 414.008 218.278 413.877 218.57 414.836C215.985 415.525 213.411 416.073 210.758 416.28C207.566 416.529 204.372 416.773 201.19 417.123C198.065 417.467 195.071 418.312 192.411 420.063C190.542 421.295 189.068 422.884 188.444 425.08C187.571 428.15 189.603 431.129 192.782 431.41C194.598 431.571 196.326 431.179 198.003 430.521C200.08 429.706 202.023 428.618 203.97 427.541C207.628 425.517 211.122 423.193 214.983 421.54C220.28 419.272 225.724 417.888 231.566 418.18C236.891 418.447 242.23 418.448 247.561 418.597C248.157 418.613 248.85 418.484 249.609 419.053C248.204 419.676 247.069 420.17 245.942 420.68C241.397 422.736 236.922 424.928 232.748 427.683C230.573 429.118 228.61 430.785 227.37 433.136C226.488 434.809 226.3 436.558 227.331 438.227C228.434 440.013 230.194 440.543 232.179 440.384C234.85 440.17 237.167 439.059 239.108 437.258C240.54 435.929 241.956 434.55 243.169 433.026C245.684 429.866 248.729 427.277 251.76 424.664C253.108 423.502 254.559 422.468 256.222 421.767C259.258 420.488 262.287 419.171 265.472 418.322C268.613 417.485 271.853 417.271 275.133 417.117C274.562 417.917 273.932 418.511 273.271 419.068C270.001 421.824 266.902 424.757 264.045 427.94C262.489 429.673 261.087 431.529 260.428 433.793C259.818 435.89 260.07 437.899 261.821 439.414C263.568 440.925 265.565 440.919 267.571 439.991C269.909 438.91 271.637 437.163 272.851 434.895C273.825 433.076 274.348 431.091 275.002 429.153C275.802 426.784 276.638 424.361 278.424 422.576C282.728 418.275 287.4 414.459 293.315 412.504C297.032 411.276 300.733 409.998 304.451 408.771C304.979 408.597 305.504 408.104 306.277 408.606C305.517 409.65 304.83 410.668 304.042 411.621C299.741 416.823 296.173 422.582 293.348 428.712C291.56 432.592 289.571 436.445 289.377 440.852C289.285 442.941 289.613 444.933 290.773 446.719C293.212 450.473 297.67 450.443 300.252 446.786C301.384 445.184 301.852 443.357 301.778 441.408C301.724 439.988 301.604 438.564 301.394 437.159C300.541 431.479 301.995 426.213 304.211 421.083C306.432 415.944 310.091 411.833 313.618 407.575C317.538 402.842 322.988 400.769 328.236 397.984C328.234 399.12 327.444 399.553 326.971 400.14C324.961 402.636 323.011 405.171 321.377 407.934C319.689 410.789 318.31 413.767 317.888 417.098C317.558 419.701 317.762 422.218 319.53 424.373C321.179 426.383 324.241 426.576 326.211 424.878C327.701 423.594 328.721 421.984 329.382 420.114C330.323 417.455 330.455 414.689 330.345 411.943C330.17 407.597 331.611 403.903 334.408 400.694C338.68 395.793 343.101 390.995 348.243 387.017C354.263 382.36 359.995 377.396 365.529 372.208C366.501 371.304 366.687 369.834 365.976 368.716Z" fill="#B42075"/>
</svg>
